<?xml version="1.0" encoding="utf-8"?>
<!-- Generator: Adobe Illustrator 23.0.5, SVG Export Plug-In . SVG Version: 6.00 Build 0)  -->
<svg version="1.1" id="Layer_1" xmlns:v="https://vecta.io/nano"
	 xmlns="http://www.w3.org/2000/svg" xmlns:xlink="http://www.w3.org/1999/xlink" x="0px" y="0px" viewBox="0 0 200 200"
	 style="enable-background:new 0 0 200 200;" xml:space="preserve">
<style type="text/css">
	.st0{fill:#5959F4;}
	.st1{fill:#FFFFFF;}
	.st2{fill-rule:evenodd;clip-rule:evenodd;fill:#005FFA;}
	.st3{opacity:0.1;fill:#242628;enable-background:new    ;}
	.st4{fill:#282E5B;}
	.st5{fill:#059BDC;}
</style>
<g>
	<path class="st0" d="M92.1,79.9c0,5.6-3,10.1-6.7,10.1s-6.7-4.5-6.7-10.1s3-10.1,6.7-10.1S92.1,74.3,92.1,79.9z"/>
	<path class="st0" d="M121.3,79.9c0,5.6-3,10.1-6.7,10.1s-6.7-4.5-6.7-10.1s3-10.1,6.7-10.1S121.3,74.3,121.3,79.9z"/>
	<path class="st0" d="M165,88.9v0.9h-0.9c-5.3,0-6.9,0-7.4,0c-0.4,0-0.4,0-0.7,0c-0.6,0-2.1,0-8.6,0.1h-1v-1c0,0,0.1-4.3-1.9-9.5
		c-1.1-3-2.8-5.7-4.8-8c-2.5-2.9-5.8-5.1-9.6-6.8c-7.7-3.3-12.9-6.1-17.4-9.4c-4.8-3.6-8.9-7.8-12.8-13.3c-3.9,5.5-8,9.8-12.8,13.4
		c-4.5,3.3-9.7,6.2-17.4,9.4c-3.8,1.6-7,3.9-9.6,6.8c-2,2.3-3.7,5-4.8,7.9c-2,5.1-1.9,9.4-1.9,9.5v1h-1c-6.4,0-8-0.1-8.6-0.1
		c-0.3,0-0.3,0-0.7,0c-0.6,0-2.1,0-7.4,0h-0.9v-0.9c-0.1-8.7,2.6-17.8,7.6-25.5c5.1-7.7,12-13.5,19.6-16.1c3.4-1.2,6.6-2.8,9.7-4.8
		c2.4-1.6,4.7-3.4,6.7-5.3c3.4-3.3,5.2-6,5.2-6.2C89,21.8,94.3,12.5,99.7,3.3c5.4,9.2,10.7,18.4,16.1,27.6c0.1,0.2,1.8,2.9,5.2,6.2
		c2.1,2,4.3,3.8,6.7,5.3c3,2,6.3,3.6,9.7,4.8c7.6,2.7,14.6,8.4,19.6,16.1C162.4,71.1,165.1,80.2,165,88.9z"/>
</g>
<path class="st1" d="M90,130c0,7.2-1.7,14-4.7,20l0,0c-7.4,14.8-22.6,25-40.3,25l0,0c-17.7,0-32.9-10.2-40.3-25l0,0
	c-3-6-4.7-12.8-4.7-20c0-24.8,20.1-45,45-45l0,0C69.9,85,90,105.2,90,130z"/>
<path class="st2" d="M0,130c0-24.9,20.1-45,45-45s45,20.1,45,45s-20.1,45-45,45S0,154.9,0,130L0,130z M63.9,156.1h-9.6v-16.5
	c0-1.3-0.5-2.5-1.4-3.4s-2.1-1.4-3.4-1.4H35.7c-5.3,0-9.6-4.3-9.6-9.6v-21.3h9.6v16.5c0,2.6,2.1,4.8,4.8,4.8h13.8
	c1.4,0,2.7,0.3,3.9,0.9c3.4,1.5,5.6,5,5.6,8.7L63.9,156.1z M53.9,103.9h9.6V120c-5.3,0-9.6-4.3-9.6-9.6V103.9z M26.5,156.1h9.6v-6.5
	c0-5.3-4.3-9.6-9.6-9.6L26.5,156.1z"/>
<path class="st3" d="M45,85c-24.8,0-45,20.2-45,45s20.2,45,45,45s45-20.2,45-45S69.8,85,45,85z M81.3,148
	c-6.6,13.3-20.4,22.5-36.3,22.5l0,0c-15.9,0-29.6-9.2-36.3-22.5l0,0c-2.7-5.4-4.2-11.5-4.2-18c0-22.4,18.1-40.5,40.5-40.5l0,0
	c22.4,0,40.5,18.1,40.5,40.5C85.5,136.5,84,142.6,81.3,148L81.3,148z"/>
<path class="st1" d="M200,130c0,7.2-1.7,14-4.7,20l0,0c-7.4,14.8-22.6,25-40.3,25l0,0c-17.7,0-32.9-10.2-40.3-25l0,0
	c-3-6-4.7-12.8-4.7-20c0-24.8,20.1-45,45-45l0,0C179.9,85,200,105.2,200,130z"/>
<path class="st3" d="M155,85c-24.8,0-45,20.2-45,45s20.2,45,45,45s45-20.2,45-45S179.8,85,155,85z M191.3,148
	c-6.6,13.3-20.4,22.5-36.3,22.5l0,0c-15.9,0-29.6-9.2-36.3-22.5l0,0c-2.7-5.4-4.2-11.5-4.2-18c0-22.4,18.1-40.5,40.5-40.5l0,0
	c22.4,0,40.5,18.1,40.5,40.5C195.5,136.5,194,142.6,191.3,148L191.3,148z"/>
<path class="st4" d="M161.3,118.1c0-8.9-4.3-16.5-7.6-19.1c0,0-0.2-0.1-0.2,0.2c-0.3,17.2-9,21.9-13.8,28.1
	c-11.1,14.5-0.8,30.4,9.7,33.3c5.9,1.6-1.4-2.9-2.3-12.5C146.1,136.5,161.3,127.7,161.3,118.1"/>
<path class="st5" d="M167.1,124c0,0-0.1,0-0.2,0l0,0c-0.2,2.1-2.6,6.8-5.5,11c-10.1,14.4-4.3,21.3-1.1,25.1c1.9,2.2,0,0,4.7-2.2
	c0.4-0.2,9.1-4.8,10.1-15.4C175.9,132.2,169.4,125.8,167.1,124"/>
</svg>
