<svg xmlns="http://www.w3.org/2000/svg" xmlns:v="https://vecta.io/nano" xmlns:xlink="http://www.w3.org/1999/xlink" id="Layer_1" x="0" y="0" version="1.1" viewBox="0 0 200 200" xml:space="preserve" style="enable-background:new 0 0 200 200"><style type="text/css">.st0{fill:#5959f4}.st1{fill:#fff}.st2{fill-rule:evenodd;clip-rule:evenodd;fill:#005ffa}.st3{opacity:.1;fill:#242628;enable-background:new}.st4{fill:#d7e7ff}.st5{fill:#4444c6}</style><g><path d="M92.1,79.9c0,5.6-3,10.1-6.7,10.1s-6.7-4.5-6.7-10.1s3-10.1,6.7-10.1S92.1,74.3,92.1,79.9z" class="st0"/><path d="M121.3,79.9c0,5.6-3,10.1-6.7,10.1s-6.7-4.5-6.7-10.1s3-10.1,6.7-10.1S121.3,74.3,121.3,79.9z" class="st0"/><path d="M165,88.9v0.9h-0.9c-5.3,0-6.9,0-7.4,0c-0.4,0-0.4,0-0.7,0c-0.6,0-2.1,0-8.6,0.1h-1v-1c0,0,0.1-4.3-1.9-9.5 c-1.1-3-2.8-5.7-4.8-8c-2.5-2.9-5.8-5.1-9.6-6.8c-7.7-3.3-12.9-6.1-17.4-9.4c-4.8-3.6-8.9-7.8-12.8-13.3c-3.9,5.5-8,9.8-12.8,13.4 c-4.5,3.3-9.7,6.2-17.4,9.4c-3.8,1.6-7,3.9-9.6,6.8c-2,2.3-3.7,5-4.8,7.9c-2,5.1-1.9,9.4-1.9,9.5v1h-1c-6.4,0-8-0.1-8.6-0.1 c-0.3,0-0.3,0-0.7,0c-0.6,0-2.1,0-7.4,0h-0.9v-0.9c-0.1-8.7,2.6-17.8,7.6-25.5c5.1-7.7,12-13.5,19.6-16.1c3.4-1.2,6.6-2.8,9.7-4.8 c2.4-1.6,4.7-3.4,6.7-5.3c3.4-3.3,5.2-6,5.2-6.2C89,21.8,94.3,12.5,99.7,3.3c5.4,9.2,10.7,18.4,16.1,27.6c0.1,0.2,1.8,2.9,5.2,6.2 c2.1,2,4.3,3.8,6.7,5.3c3,2,6.3,3.6,9.7,4.8c7.6,2.7,14.6,8.4,19.6,16.1C162.4,71.1,165.1,80.2,165,88.9z" class="st0"/></g><path d="M90,130c0,7.2-1.7,14-4.7,20l0,0c-7.4,14.8-22.6,25-40.3,25l0,0c-17.7,0-32.9-10.2-40.3-25l0,0	c-3-6-4.7-12.8-4.7-20c0-24.8,20.1-45,45-45l0,0C69.9,85,90,105.2,90,130z" class="st1"/><path d="M0,130c0-24.9,20.1-45,45-45s45,20.1,45,45s-20.1,45-45,45S0,154.9,0,130L0,130z M63.9,156.1h-9.6v-16.5	c0-1.3-0.5-2.5-1.4-3.4s-2.1-1.4-3.4-1.4H35.7c-5.3,0-9.6-4.3-9.6-9.6v-21.3h9.6v16.5c0,2.6,2.1,4.8,4.8,4.8h13.8	c1.4,0,2.7,0.3,3.9,0.9c3.4,1.5,5.6,5,5.6,8.7L63.9,156.1z M53.9,103.9h9.6V120c-5.3,0-9.6-4.3-9.6-9.6V103.9z M26.5,156.1h9.6v-6.5	c0-5.3-4.3-9.6-9.6-9.6L26.5,156.1z" class="st2"/><path d="M45,85c-24.8,0-45,20.2-45,45s20.2,45,45,45s45-20.2,45-45S69.8,85,45,85z M81.3,148	c-6.6,13.3-20.4,22.5-36.3,22.5l0,0c-15.9,0-29.6-9.2-36.3-22.5l0,0c-2.7-5.4-4.2-11.5-4.2-18c0-22.4,18.1-40.5,40.5-40.5l0,0	c22.4,0,40.5,18.1,40.5,40.5C85.5,136.5,84,142.6,81.3,148L81.3,148z" class="st3"/><path d="M200,130c0,7.2-1.7,14-4.7,20l0,0c-7.4,14.8-22.6,25-40.3,25l0,0c-17.7,0-32.9-10.2-40.3-25l0,0	c-3-6-4.7-12.8-4.7-20c0-24.8,20.1-45,45-45l0,0C179.9,85,200,105.2,200,130z" class="st4"/><path d="M155,85c-24.8,0-45,20.2-45,45s20.2,45,45,45s45-20.2,45-45S179.8,85,155,85z M191.3,148	c-6.6,13.3-20.4,22.5-36.3,22.5l0,0c-15.9,0-29.6-9.2-36.3-22.5l0,0c-2.7-5.4-4.2-11.5-4.2-18c0-22.4,18.1-40.5,40.5-40.5l0,0	c22.4,0,40.5,18.1,40.5,40.5C195.5,136.5,194,142.6,191.3,148L191.3,148z" class="st3"/><path d="M188.7,147.4v0.5h-0.5c-2.8,0-3.6,0-3.9,0c-0.2,0-0.2,0-0.3,0c-0.3,0-1.1,0-4.4,0h-0.5v-0.5c0,0,0.1-2.3-1-4.9	c-0.6-1.5-1.4-2.9-2.5-4.1c-1.3-1.5-3-2.7-5-3.5c-4-1.7-6.7-3.2-9-4.9c-2.5-1.9-4.6-4.1-6.6-6.9c-2,2.9-4.2,5.1-6.7,6.9	c-2.3,1.7-5,3.2-9,4.9c-2,0.9-3.7,2-5,3.5c-1.1,1.2-1.9,2.6-2.5,4.1c-1,2.7-1,4.9-1,4.9v0.5h-0.5c-3.3,0-4.1,0-4.4,0	c-0.2,0-0.2,0-0.3,0c-0.3,0-1.1,0-3.9,0h-0.5v-0.5c-0.1-4.5,1.3-9.2,4-13.2c2.6-4,6.2-7,10.2-8.4c1.8-0.6,3.5-1.5,5-2.5	c1.3-0.8,2.4-1.7,3.5-2.8c1.8-1.7,2.7-3.1,2.7-3.2c2.8-4.8,5.6-9.6,8.4-14.4c2.8,4.8,5.6,9.6,8.4,14.4c0,0.1,0.9,1.5,2.7,3.2	c1.1,1,2.2,2,3.5,2.8c1.6,1,3.3,1.8,5,2.5c3.9,1.4,7.6,4.4,10.2,8.4S188.8,142.9,188.7,147.4z" class="st5"/></svg>