<svg xmlns="http://www.w3.org/2000/svg" xmlns:v="https://vecta.io/nano" xmlns:xlink="http://www.w3.org/1999/xlink" id="Layer_1" x="0" y="0" version="1.1" viewBox="0 0 200 200" xml:space="preserve" style="enable-background:new 0 0 200 200"><style type="text/css">.st0{fill:#d7e7ff}.st1{opacity:.1;fill:#242628;enable-background:new}.st2{fill:#4444c6}</style><path d="M200,100c0,16-3.8,31.1-10.4,44.4l0,0C173.1,177.3,139.3,200,100,200l0,0c-39.3,0-73.1-22.7-89.6-55.6l0,0	C3.8,131.1,0,116,0,100C0,44.9,44.7,0,100,0l0,0C155.3,0,200,44.9,200,100z" class="st0"/><path d="M100,0C44.9,0,0,44.9,0,100s44.9,100,100,100s100-44.9,100-100S155.1,0,100,0z M180.7,140	c-14.7,29.6-45.3,50-80.7,50l0,0c-35.3,0-65.8-20.4-80.7-50l0,0c-6-12-9.3-25.6-9.3-40c0-49.8,40.2-90,90-90l0,0	c49.8,0,90,40.2,90,90C190,114.4,186.7,128,180.7,140L180.7,140z" class="st1"/><path d="M174.9,138.7v1.1h-1.1c-6.2,0-8,0-8.7,0c-0.4,0-0.4,0-0.7,0c-0.7,0-2.4,0-9.8,0h-1.1v-1.1c0,0,0.2-5.1-2.2-10.9	c-1.3-3.3-3.1-6.4-5.6-9.1c-2.9-3.3-6.7-6-11.1-7.8c-8.9-3.8-14.9-7.1-20-10.9c-5.6-4.2-10.2-9.1-14.7-15.3	C95.6,91.1,90.7,96,85.1,100c-5.1,3.8-11.1,7.1-20,10.9c-4.4,2-8.2,4.4-11.1,7.8c-2.4,2.7-4.2,5.8-5.6,9.1c-2.2,6-2.2,10.9-2.2,10.9	v1.1h-1.1c-7.3,0-9.1,0-9.8,0c-0.4,0-0.4,0-0.7,0c-0.7,0-2.4,0-8.7,0h-1.1v-1.1c-0.2-10,2.9-20.4,8.9-29.3	c5.8-8.9,13.8-15.6,22.7-18.7c4-1.3,7.8-3.3,11.1-5.6c2.9-1.8,5.3-3.8,7.8-6.2c4-3.8,6-6.9,6-7.1c6.2-10.7,12.4-21.3,18.7-32	c6.2,10.7,12.4,21.3,18.7,32c0,0.2,2,3.3,6,7.1c2.4,2.2,4.9,4.4,7.8,6.2c3.6,2.2,7.3,4,11.1,5.6c8.7,3.1,16.9,9.8,22.7,18.7	C172,118.2,175.1,128.7,174.9,138.7z" class="st2"/></svg>