<?xml version="1.0" encoding="utf-8"?>
<!-- Generator: Adobe Illustrator 23.0.5, SVG Export Plug-In . SVG Version: 6.00 Build 0)  -->
<svg version="1.1" id="Layer_1" xmlns:v="https://vecta.io/nano"
	 xmlns="http://www.w3.org/2000/svg" xmlns:xlink="http://www.w3.org/1999/xlink" x="0px" y="0px" viewBox="0 0 200 200"
	 style="enable-background:new 0 0 200 200;" xml:space="preserve">
<style type="text/css">
	.st0{fill:#4444C6;}
	.st1{opacity:0.1;fill:#242628;enable-background:new    ;}
	.st2{fill:#FFFFFF;}
	.st3{fill:#282E5B;}
	.st4{fill:#059BDC;}
	.st5{fill:#21284F;}
	.st6{fill:#D2D2D8;}
	.st7{fill:url(#SVGID_1_);}
	.st8{fill:url(#SVGID_2_);}
	.st9{fill:#1AC4FF;}
</style>
<g>
	<path id="C" class="st0" d="M92.1,79.9c0,5.6-3,10.1-6.7,10.1s-6.7-4.5-6.7-10.1s3-10.1,6.7-10.1S92.1,74.3,92.1,79.9z"/>
</g>
<g>
	<path class="st0" d="M121.3,79.9c0,5.6-3,10.1-6.7,10.1s-6.7-4.5-6.7-10.1s3-10.1,6.7-10.1S121.3,74.3,121.3,79.9z"/>
</g>
<path class="st0" d="M165,88.9v0.9h-0.9c-5.3,0-6.9,0-7.4,0c-0.4,0-0.4,0-0.7,0c-0.6,0-2.1,0-8.6,0.1h-1v-1c0,0,0.1-4.3-1.9-9.5
	c-1.1-3-2.8-5.7-4.8-8c-2.5-2.9-5.8-5.1-9.6-6.8c-7.7-3.3-12.9-6.1-17.4-9.4c-4.8-3.6-8.9-7.8-12.8-13.3c-3.9,5.5-8,9.8-12.8,13.4
	c-4.5,3.3-9.7,6.2-17.4,9.4c-3.8,1.6-7,3.9-9.6,6.8c-2,2.3-3.7,5-4.8,7.9c-2,5.1-1.9,9.4-1.9,9.5v1h-1c-6.4,0-8-0.1-8.6-0.1
	c-0.3,0-0.3,0-0.7,0c-0.6,0-2.1,0-7.4,0h-0.9v-0.9c-0.1-8.7,2.6-17.8,7.6-25.5c5.1-7.7,12-13.5,19.6-16.1c3.4-1.2,6.6-2.8,9.7-4.8
	c2.4-1.6,4.7-3.4,6.7-5.3c3.4-3.3,5.2-6,5.2-6.2C89,21.8,94.3,12.5,99.7,3.3c5.4,9.2,10.7,18.4,16.1,27.6c0.1,0.2,1.8,2.9,5.2,6.2
	c2.1,2,4.3,3.8,6.7,5.3c3,2,6.3,3.6,9.7,4.8c7.6,2.7,14.6,8.4,19.6,16.1C162.4,71.1,165.1,80.2,165,88.9z"/>
<path class="st1" d="M45,85c-24.8,0-45,20.2-45,45s20.2,45,45,45s45-20.2,45-45S69.8,85,45,85z M81.3,148
	c-6.6,13.3-20.4,22.5-36.3,22.5l0,0c-15.9,0-29.6-9.2-36.3-22.5l0,0c-2.7-5.4-4.2-11.5-4.2-18c0-22.4,18.1-40.5,40.5-40.5l0,0
	c22.4,0,40.5,18.1,40.5,40.5C85.5,136.5,84,142.6,81.3,148L81.3,148z"/>
<path class="st2" d="M200,130c0,7.2-1.7,14-4.7,20l0,0c-7.4,14.8-22.6,25-40.3,25l0,0c-17.7,0-32.9-10.2-40.3-25l0,0
	c-3-6-4.7-12.8-4.7-20c0-24.8,20.1-45,45-45l0,0C179.9,85,200,105.2,200,130z"/>
<path class="st1" d="M155,85c-24.8,0-45,20.2-45,45s20.2,45,45,45s45-20.2,45-45S179.8,85,155,85z M191.3,148
	c-6.6,13.3-20.4,22.5-36.3,22.5l0,0c-15.9,0-29.6-9.2-36.3-22.5l0,0c-2.7-5.4-4.2-11.5-4.2-18c0-22.4,18.1-40.5,40.5-40.5l0,0
	c22.4,0,40.5,18.1,40.5,40.5C195.5,136.5,194,142.6,191.3,148L191.3,148z"/>
<path class="st3" d="M161.3,118.1c0-8.9-4.3-16.5-7.6-19.1c0,0-0.2-0.1-0.2,0.2c-0.3,17.2-9,21.9-13.8,28.1
	c-11.1,14.5-0.8,30.4,9.7,33.3c5.9,1.6-1.4-2.9-2.3-12.5C146.1,136.5,161.3,127.7,161.3,118.1"/>
<path class="st4" d="M167.1,124c0,0-0.1,0-0.2,0l0,0c-0.2,2.1-2.6,6.8-5.5,11c-10.1,14.4-4.3,21.3-1.1,25.1c1.9,2.2,0,0,4.7-2.2
	c0.4-0.2,9.1-4.8,10.1-15.4C175.9,132.2,169.4,125.8,167.1,124"/>
<circle class="st5" cx="45" cy="130" r="45"/>
<path class="st6" d="M81.4,147.8C81.4,147.8,81.4,147.8,81.4,147.8c0,0.1-0.1,0.1-0.1,0.2c0,0,0,0,0,0
	c-6.6,13.3-20.4,22.5-36.3,22.5h0c-15.9,0-29.6-9.2-36.3-22.5c0,0,0,0,0,0c0,0,0-0.1-0.1-0.1c0,0,0,0,0,0h2.6l0-0.3
	c-0.1-4.5,1.3-9.2,4-13.2c2.6-4,6.2-7,10.2-8.4c1.8-0.6,3.5-1.5,5-2.5c1.3-0.8,2.4-1.7,3.5-2.8c1.8-1.7,2.7-3.1,2.7-3.2
	c2.8-4.8,5.6-9.6,8.4-14.4c2.8,4.8,5.6,9.6,8.4,14.4c0,0.1,0.9,1.5,2.7,3.2c1.1,1,2.2,2,3.5,2.8c1.6,1,3.3,1.8,5,2.5
	c3.9,1.4,7.6,4.4,10.2,8.4c2.6,4,4,8.7,4,13.2l0,0.4H81.4z"/>
<linearGradient id="SVGID_1_" gradientUnits="userSpaceOnUse" x1="8.6099" y1="147.82" x2="81.3901" y2="147.82">
	<stop  offset="0" style="stop-color:#ADADAD"/>
	<stop  offset="0.5003" style="stop-color:#C9C9C9"/>
	<stop  offset="1" style="stop-color:#ADADAD"/>
</linearGradient>
<path class="st7" d="M81.4,147.8C81.4,147.8,81.4,147.8,81.4,147.8l-72.8,0c0,0,0,0,0,0H81.4z"/>
<linearGradient id="SVGID_2_" gradientUnits="userSpaceOnUse" x1="45" y1="170.5" x2="45" y2="89.5">
	<stop  offset="0" style="stop-color:#ADADAD"/>
	<stop  offset="0.5003" style="stop-color:#C9C9C9"/>
	<stop  offset="1" style="stop-color:#ADADAD"/>
</linearGradient>
<rect x="45" y="89.5" class="st8" width="0" height="81"/>
<path class="st3" d="M85.5,130c0,1.2-0.1,2.4-0.2,3.6c0,0.2,0,0.3,0,0.5c0,0.1,0,0.3,0,0.4c0,0.2,0,0.3-0.1,0.5c0,0.1,0,0.3-0.1,0.4
	c0,0.1,0,0.2-0.1,0.4c-0.1,0.9-0.3,1.8-0.5,2.7c0,0.2-0.1,0.3-0.1,0.5c-0.2,0.9-0.5,1.9-0.7,2.8c-0.1,0.2-0.1,0.4-0.2,0.5
	c0,0.1-0.1,0.2-0.1,0.3c-0.2,0.6-0.4,1.3-0.7,1.9c-0.1,0.2-0.1,0.3-0.2,0.5c0,0.1-0.1,0.2-0.1,0.3c-0.1,0.2-0.1,0.3-0.2,0.5
	c-0.1,0.2-0.2,0.4-0.2,0.5c-0.2,0.4-0.4,0.8-0.6,1.3c0,0.1-0.1,0.2-0.1,0.3h-2.6l0-0.4c0.1-4.5-1.3-9.2-4-13.2
	c-2.6-4-6.2-7-10.2-8.4c-1.8-0.6-3.5-1.5-5-2.5c-1.3-0.8-2.4-1.7-3.5-2.8c-1.8-1.7-2.7-3.1-2.7-3.2c-2.8-4.8-5.6-9.6-8.4-14.4
	c-2.8,4.8-5.6,9.6-8.4,14.4c-0.1,0.1-0.9,1.5-2.7,3.2c-1.1,1-2.2,2-3.5,2.8c-1.6,1-3.3,1.8-5,2.5c-3.9,1.4-7.6,4.4-10.2,8.4
	c-2.6,4-4,8.7-4,13.2l0,0.3H8.6c0-0.1-0.1-0.2-0.1-0.3c-0.2-0.4-0.4-0.8-0.6-1.3c-0.1-0.2-0.2-0.4-0.2-0.5c-0.1-0.2-0.1-0.3-0.2-0.5
	c0-0.1-0.1-0.2-0.1-0.3c-0.1-0.2-0.1-0.3-0.2-0.5c-0.2-0.6-0.5-1.2-0.7-1.9c0-0.1-0.1-0.2-0.1-0.3c-0.1-0.2-0.1-0.4-0.2-0.5
	c-0.3-0.9-0.5-1.8-0.7-2.8c0-0.2-0.1-0.3-0.1-0.5c-0.2-0.9-0.4-1.8-0.5-2.7c0-0.1,0-0.2-0.1-0.4c0-0.1,0-0.3-0.1-0.4
	c0-0.2,0-0.3-0.1-0.5c0-0.1,0-0.3,0-0.4c0-0.2,0-0.3,0-0.5c-0.1-1.2-0.2-2.4-0.2-3.6c0-22.4,18.1-40.5,40.5-40.5h0
	C67.4,89.5,85.5,107.6,85.5,130z"/>
<path class="st9" d="M78.7,147.4l0,0.4h-9.6l0-0.4c0,0,0,0,0,0c0-0.3,0-2.4-1-4.9c-0.6-1.5-1.4-2.9-2.5-4.1c-1.3-1.5-3-2.7-5-3.5
	c-4-1.7-6.7-3.2-9-4.9c-2.5-1.9-4.6-4.1-6.6-6.9c-2,2.9-4.2,5.1-6.7,6.9c-2.3,1.7-5,3.2-9,4.9c-2,0.9-3.7,2-5,3.5
	c-1.1,1.2-1.9,2.6-2.5,4.1c-0.9,2.5-1,4.5-1,4.9c0,0,0,0,0,0l0,0.3h-9.6l0-0.3c-0.1-4.5,1.3-9.2,4-13.2c2.6-4,6.2-7,10.2-8.4
	c1.8-0.6,3.5-1.5,5-2.5c1.3-0.8,2.4-1.7,3.5-2.8c1.8-1.7,2.7-3.1,2.7-3.2c2.8-4.8,5.6-9.6,8.4-14.4c2.8,4.8,5.6,9.6,8.4,14.4
	c0,0.1,0.9,1.5,2.7,3.2c1.1,1,2.2,2,3.5,2.8c1.6,1,3.3,1.8,5,2.5c3.9,1.4,7.6,4.4,10.2,8.4C77.4,138.2,78.8,142.9,78.7,147.4z"/>
</svg>
