<?xml version="1.0" encoding="utf-8"?>
<!-- Generator: Adobe Illustrator 23.0.5, SVG Export Plug-In . SVG Version: 6.00 Build 0)  -->
<svg version="1.1" id="Layer_1" xmlns:v="https://vecta.io/nano"
	 xmlns="http://www.w3.org/2000/svg" xmlns:xlink="http://www.w3.org/1999/xlink" x="0px" y="0px" viewBox="0 0 193 230"
	 style="enable-background:new 0 0 193 230;" xml:space="preserve">
<style type="text/css">
	.st0{clip-path:url(#SVGID_2_);}
	.st1{opacity:0.2;}
	.st2{fill:#DCD0BF;}
	.st3{fill:#E9DECA;}
	.st4{fill:#BDB19F;}
	.st5{fill:#FFF3DD;}
	.st6{fill:#C7B9A7;}
	.st7{fill:#A3A3A3;}
	.st8{opacity:0.61;fill:#F1EDE9;enable-background:new    ;}
</style>
<g>
	<g>
		<g>
			<g>
				<g>
					<g>
						<defs>
							<rect id="SVGID_1_" width="192.2" height="230"/>
						</defs>
						<clipPath id="SVGID_2_">
							<use xlink:href="#SVGID_1_"  style="overflow:visible;"/>
						</clipPath>
						<g class="st0">
							<g class="st1">
								<g>
									<g>
										<path class="st2" d="M166.5,164.9h-38.6c0.1-0.6,3.3-39.6,3.5-42.1H163C163.9,133.4,166.4,163.9,166.5,164.9z"/>
										<path class="st2" d="M156.9,49.6h-19.4c0.3-3.6,1.4-16.4,1.4-17.2h16.5C155.7,35.7,156.6,46,156.9,49.6z"/>
										<polygon class="st3" points="157.2,53.6 137.2,53.6 137.5,49.6 156.9,49.6 										"/>
										<polygon class="st4" points="157.4,55.8 137,55.8 137.2,53.6 157.2,53.6 										"/>
										<polygon class="st3" points="157.8,60.2 136.6,60.2 137,55.8 157.4,55.8 										"/>
										<polygon class="st5" points="158.6,70.8 135.7,70.8 136.6,60.2 157.8,60.2 										"/>
										<path class="st6" d="M160.4,91.7H134c0.4-4.7,1.3-15.4,1.7-20.9h22.9l0.5,5.9l0.3,3.2C160,86.6,159.7,84,160.4,91.7z"/>
										<path class="st6" d="M162.2,113.3h-30c0.3-3.1,0.1-1.1,0.9-10.2h28.3C162.1,112.2,161.9,110.1,162.2,113.3z"/>
										<polygon class="st4" points="161.3,103 133,103 134,91.7 160.4,91.7 										"/>
										<path class="st4" d="M163,122.8h-31.6c0.3-3.5,0.5-6.2,0.8-9.5h30C162.7,119,162.5,117.7,163,122.8z"/>
										<path class="st4" d="M167.8,180.6h-41.2c0.8-9.2,0.7-8.8,1.3-15.7h38.6C166.9,170.5,166.6,166.1,167.8,180.6z"/>
										<path class="st3" d="M171.9,230h-49.4c0.4-4.9,0.7-9,1-12.4l0.1-0.6l0.1-1.2l0.3-3.9l0.1-0.8c0.6-7.2,0.9-10.6,1.1-13.5
											l0.3-3.4v-0.5l0.2-2.7c0.2-2.4,0.5-5.6,0.9-10.2h41.2c0.1,0.7,0.1,1.3,0.2,2c0,0.2,0,0.5,0.1,0.7c0,0.2,0,0.4,0.1,0.6
											c0,0.4,0.1,0.9,0.1,1.3c0.1,0.7,0.1,1.3,0.2,1.9c0,0.3,0,0.6,0.1,0.9c0,0.4,0.1,0.8,0.1,1.2c0,0.3,0.1,0.6,0.1,0.9
											c0,0.3,0,0.5,0.1,0.8v0.1c0,0.1,0,0.2,0,0.3s0,0.1,0,0.2v0.3c0,0.1,0,0.2,0,0.3c0,0.2,0,0.3,0,0.5c0,0.3,0,0.5,0.1,0.8
											v0.2l0,0c0,0.1,0,0.1,0,0.2v0.1c0,0.2,0,0.4,0,0.6l0,0c0,0.1,0,0.3,0,0.4v0.1v0.1c0,0.1,0,0.1,0,0.2c0,0.2,0,0.4,0,0.6
											c0,0.1,0,0.2,0,0.3v0.3v0.2c0,0.1,0,0.2,0,0.3l0,0c0,0.1,0,0.1,0,0.2c0,0.1,0,0.2,0,0.3c0,0.2,0,0.3,0,0.5s0,0.5,0.1,0.8
											c0,0.3,0.1,0.7,0.1,1c0,0.2,0,0.3,0,0.5s0,0.3,0,0.5c0,0.1,0,0.3,0,0.5s0,0.4,0,0.6c0,0.2,0,0.3,0,0.5
											c0.1,0.9,0.1,1.8,0.2,2.8c0,0.2,0,0.5,0.1,0.7v0.1c0,0.1,0,0.3,0,0.4c0,0.1,0,0.3,0,0.4c0,0.1,0,0.3,0,0.4
											c0,0.5,0.1,0.9,0.1,1.4c0,0.3,0,0.5,0.1,0.8c0,0.1,0,0.1,0,0.2c0,0.2,0,0.3,0,0.5c0,0.1,0,0.1,0,0.2c0,0.3,0,0.5,0.1,0.8
											v0.1c0,0.2,0,0.3,0,0.5s0,0.4,0,0.6v0.1c0,0.3,0.1,0.6,0.1,0.9c0,0.1,0,0.1,0,0.2c0,0.2,0,0.4,0.1,0.6v0.3
											c0,0.2,0,0.4,0,0.6c0,0.1,0,0.2,0,0.3v0.2c0,0.3,0,0.6,0.1,0.9c0,0.1,0,0.2,0,0.3c0,0.2,0,0.4,0.1,0.6v0.4
											c0,0.1,0,0.2,0,0.4c0,0.4,0.1,0.8,0.1,1.2c0,0.3,0,0.5,0.1,0.8c0,0.5,0.1,1,0.1,1.5c0,0.2,0,0.3,0,0.5
											c0,0.4,0.1,0.7,0.1,1.1C171.5,225.1,171.7,227.5,171.9,230z"/>
										<path class="st2" d="M173.8,160.1h-53.3c-0.5-2,1-4,3.2-4h47C173,156.1,174.4,158.4,173.8,160.1z"/>
										<path class="st4" d="M173.8,160.1c-1.1,4.8-5.3,8-7.4,8c-37.7,0-43.4,2.4-45.8-8H173.8z"/>
										<path class="st2" d="M168,115.2c0,0.1-0.1,0.2-0.1,0.2h-41.5c-1.1-2.4,0.7-4.6,2.9-4.6H165
											C167.3,110.8,168.8,113.1,168,115.2z"/>
										<path class="st4" d="M167.9,115.5c-1.2,2.9-3.7,4.8-5.2,5c-0.2,0-0.3,0-0.5,0c-32.9,0-31,0.3-32.3-0.6
											c-1.5-1.1-2.7-2.6-3.6-4.4H167.9z"/>
										<path class="st2" d="M164.3,80h-34.1c0.1-1.4,1.2-2.6,2.7-2.9c4.4-0.7,8.9-1.1,13.5-1.1c1.3,0,2.5,0,3.7,0
											c3.3,0.1,6.3,0.4,9.1,0.8c0.8,0.1,1.6,0.2,2.4,0.4C163.1,77.4,164.1,78.6,164.3,80z"/>
										<path class="st4" d="M159.9,85.5c-0.2,0-0.4,0.1-0.5,0.1c-25.9,0-24.5,0-24.8,0c-1.7-0.2-3.3-2.3-4.1-3.8l0,0
											c-0.3-0.6-0.4-1.1-0.3-1.7h34.1C164.5,82.2,161.8,85.2,159.9,85.5z"/>
										<path class="st4" d="M155.3,48.1c-17.6,0-17.1,0.3-18.2-0.7c-1.7-1.5-1-4.2,1-4.9c1.8-0.7,16.4-0.7,18.2,0
											C159.2,43.5,158.7,48.1,155.3,48.1z"/>
										<path class="st4" d="M156.6,31.4c-0.1,0.7-0.4,1.4-1.1,1.9c-0.1,0.1-0.2,0.2-0.4,0.3h-15.9c-0.1-0.1-0.2-0.2-0.3-0.2
											c-2.1-1.7-0.8-4.7,1.4-4.7h13.8c0.1,0,0.2,0,0.3,0c0.7,0.1,1.3,0.5,1.7,1c0.1,0.1,0.1,0.2,0.2,0.3
											C156.5,30.3,156.6,30.9,156.6,31.4z"/>
										<polygon class="st4" points="170.9,217.6 123.5,217.6 124.1,211 170.3,211 										"/>
										<polygon class="st4" points="169.2,197.4 125.2,197.4 125.7,190.8 168.6,190.8 										"/>
										<polygon class="st4" points="165,147.7 129.3,147.7 129.9,141.1 164.5,141.1 										"/>
										<polygon class="st4" points="163.7,131.6 130.7,131.6 131.2,125 163.2,125 										"/>
									</g>
									<g>
										<path class="st4" d="M143.3,44.5v-7.6c0-1.6-2.4-1.6-2.4,0v7.6H143.3z"/>
										<path class="st4" d="M147.9,44.5v-7.6c0-1.6-2.4-1.6-2.4,0v7.6H147.9z"/>
										<path class="st4" d="M152.6,44.5v-7.6c0-1.6-2.4-1.6-2.4,0v7.6H152.6z"/>
									</g>
									<path class="st7" d="M167.3,230H150V28.6h2.8C155.3,55.6,164.7,192.5,167.3,230z"/>
									<path class="st8" d="M145.6,28.6c0,1,0,2.7-0.1,5c-0.2,32.6-0.3,185.5-0.7,196.4H129c0.4-6,10.2-151.4,13.2-196.4
										c0.1-1.8,0.2-3.5,0.3-5C142.5,28.6,145.6,28.6,145.6,28.6z"/>
								</g>
							</g>
						</g>
					</g>
				</g>
			</g>
		</g>
	</g>
</g>
</svg>
