<svg xmlns="http://www.w3.org/2000/svg" xmlns:v="https://vecta.io/nano" xmlns:xlink="http://www.w3.org/1999/xlink" id="Layer_1" x="0" y="0" version="1.1" viewBox="0 0 355 386" xml:space="preserve" style="enable-background:new 0 0 355 386"><style type="text/css">.st0{fill:#4444c6}.st1{fill:#da4040}.st2{fill-rule:evenodd;clip-rule:evenodd}.st2,.st3{fill:#fff;stroke:#bdc2c4;stroke-width:10}</style><g><g><path id="C" d="M156.2,269.1c0,15-8.1,27.2-18.1,27.2c-10,0-18.1-12.2-18.1-27.2s8.1-27.2,18.1-27.2 C148.1,241.9,156.2,254.1,156.2,269.1z" class="st0"/></g><g><path d="M234.8,269.1c0,15-8.1,27.2-18.1,27.2c-10,0-18.1-12.2-18.1-27.2s8.1-27.2,18.1-27.2 C226.7,241.9,234.8,254.1,234.8,269.1z" class="st0"/></g><path d="M352.4,293.4l0,2.5l-2.5,0c-14.3,0-18.4,0-20,0c-1,0-1,0-1.8,0c-1.6,0-5.7,0.1-23,0.2l-2.7,0l0.1-2.7 c0-0.1,0.3-11.7-5-25.4c-3.1-8-7.4-15.2-12.9-21.4c-6.9-7.7-15.5-13.9-25.8-18.3c-20.6-8.8-34.6-16.5-46.7-25.4 c-13-9.6-24-21-34.4-35.7c-10.5,14.8-21.5,26.3-34.6,36c-12.1,9-26.1,16.6-46.7,25.4c-10.3,4.4-19,10.6-25.8,18.3 c-5.5,6.2-9.8,13.4-12.9,21.4c-5.3,13.8-5,25.3-5,25.5l0.1,2.7l-2.7,0c-17.3-0.1-21.5-0.1-23-0.2c-0.8,0-0.8,0-1.8,0 c-1.6,0-5.7,0-20,0l-2.5,0l0-2.5c-0.4-23.5,6.9-47.9,20.5-68.7c13.6-20.8,32.3-36.2,52.8-43.5c9.1-3.2,17.9-7.5,26-12.8 c6.5-4.2,12.6-9.1,18.2-14.4c9.2-8.9,13.9-16.2,14.1-16.6c14.5-24.9,28.9-49.8,43.4-74.6c14.4,24.8,28.9,49.6,43.3,74.4 c0.3,0.4,4.9,7.7,14.1,16.6c5.6,5.3,11.7,10.2,18.2,14.4c8.1,5.3,16.9,9.6,26,12.8c20.4,7.2,39.2,22.7,52.8,43.5 C345.4,245.5,352.7,269.8,352.4,293.4z" class="st0"/></g><g><path d="M288.1,83.2c-74.5-67.1-264.2-9.1-259.3,64.1l249.4-16.9c0,0,12.6,90,53.7,87.3 C337.1,205,362.6,150.3,288.1,83.2z" class="st1"/></g><g><g><path d="M243.4,160.4c-54-5.7-108.6-2-161.4,10.9l-37.7,9.3c-10.5,2.6-21-3.8-23.6-14.3s3.8-21,14.3-23.6l37.7-9.3 c57.2-14.1,116.3-18.1,174.8-11.8l38.6,4.1c10.7,1.1,18.5,10.8,17.3,21.5s-10.8,18.5-21.5,17.3L243.4,160.4L243.4,160.4z" class="st2"/></g><circle cx="327.7" cy="226.3" r="22.4" class="st3"/></g></svg>