<?xml version="1.0" encoding="utf-8"?>
<!-- Generator: Adobe Illustrator 23.0.5, SVG Export Plug-In . SVG Version: 6.00 Build 0)  -->
<svg version="1.1" id="Layer_1" xmlns:v="https://vecta.io/nano"
	 xmlns="http://www.w3.org/2000/svg" xmlns:xlink="http://www.w3.org/1999/xlink" x="0px" y="0px" viewBox="0 0 193 230"
	 style="enable-background:new 0 0 193 230;" xml:space="preserve">
<style type="text/css">
	.st0{clip-path:url(#SVGID_2_);}
	.st1{opacity:0.1;}
	.st2{fill:#5959F4;}
</style>
<g>
	<g>
		<defs>
			<rect id="SVGID_1_" width="192.2" height="230"/>
		</defs>
		<clipPath id="SVGID_2_">
			<use xlink:href="#SVGID_1_"  style="overflow:visible;"/>
		</clipPath>
		<g class="st0">
			<g class="st1">
				<g>
					<path class="st2" d="M170.3,117.8c0,8.6-4.6,15.5-10.4,15.5c-5.7,0-10.4-7-10.4-15.5s4.6-15.5,10.4-15.5
						C165.7,102.2,170.3,109.2,170.3,117.8z"/>
					<path class="st2" d="M125.4,117.8c0,8.6-4.6,15.5-10.4,15.5c-5.7,0-10.4-7-10.4-15.5s4.6-15.5,10.4-15.5
						C120.8,102.2,125.4,109.2,125.4,117.8z"/>
					<path class="st2" d="M237.5,131.6l0,1.4l-1.5,0c-8.2,0-10.5,0-11.4,0c-0.5,0-0.5,0-1,0c-0.9,0-3.3,0-13.2,0.1l-1.5,0l0-1.5
						c0-0.1,0.2-6.7-2.9-14.5c-1.8-4.6-4.2-8.7-7.4-12.2c-3.9-4.4-8.9-7.9-14.8-10.4c-11.8-5.1-19.8-9.4-26.7-14.5
						c-7.4-5.5-13.7-12-19.7-20.4c-6,8.5-12.3,15-19.7,20.5c-6.9,5.1-14.9,9.5-26.7,14.5c-5.9,2.5-10.8,6-14.8,10.4
						c-3.1,3.5-5.6,7.6-7.4,12.2c-3,7.9-2.9,14.5-2.9,14.5l0,1.5l-1.5,0c-9.9-0.1-12.3-0.1-13.2-0.1c-0.5,0-0.5,0-1,0
						c-0.9,0-3.2,0-11.4,0l-1.5,0l0-1.4c-0.2-13.4,4-27.4,11.7-39.3C57,80.6,67.7,71.8,79.4,67.7c5.2-1.8,10.2-4.3,14.9-7.3
						c3.7-2.4,7.2-5.2,10.4-8.2c5.3-5.1,7.9-9.3,8.1-9.5C121,28.4,129.3,14.2,137.5,0c8.3,14.2,16.5,28.4,24.8,42.5
						c0.1,0.2,2.8,4.4,8.1,9.5c3.2,3,6.7,5.8,10.4,8.2c4.6,3,9.6,5.5,14.9,7.3c11.7,4.1,22.4,12.9,30.2,24.8
						C233.5,104.3,237.7,118.2,237.5,131.6z"/>
				</g>
			</g>
		</g>
	</g>
</g>
</svg>
