<?xml version="1.0" encoding="utf-8"?>
<!-- Generator: Adobe Illustrator 23.0.5, SVG Export Plug-In . SVG Version: 6.00 Build 0)  -->
<svg version="1.1" id="Layer_1" xmlns:v="https://vecta.io/nano"
	 xmlns="http://www.w3.org/2000/svg" xmlns:xlink="http://www.w3.org/1999/xlink" x="0px" y="0px" viewBox="0 0 193 230"
	 style="enable-background:new 0 0 193 230;" xml:space="preserve">
<style type="text/css">
	.st0{clip-path:url(#SVGID_2_);}
	.st1{opacity:0.5;}
	.st2{fill:#E1F2F1;}
	.st3{fill:#D4E0DF;}
	.st4{fill:#AAB4B3;}
	.st5{fill:#CAD5D4;}
	.st6{fill:#B7C1C0;}
	.st7{fill:#A1AAA9;}
	.st8{fill:#C5D2D3;}
	.st9{fill:#C5D0CF;}
</style>
<g>
	<g>
		<g>
			<defs>
				<rect id="SVGID_1_" width="192.2" height="230"/>
			</defs>
			<clipPath id="SVGID_2_">
				<use xlink:href="#SVGID_1_"  style="overflow:visible;"/>
			</clipPath>
			<g class="st0">
				<g class="st1">
					<g id="_x33_8">
						<rect x="169.8" y="171.9" class="st2" width="8.2" height="3.4"/>
						<g>
							<g>
								<g>
									<g>
										<rect x="89.7" y="94.9" class="st3" width="1.8" height="33"/>
										<rect x="91.5" y="94.9" class="st2" width="2.2" height="33"/>
									</g>
									<path class="st3" d="M89.8,92.8c0-0.2,0-0.4,0-0.6c-0.5,0.5-0.8,1.1-0.9,2.2c-0.1,1.2,0.9,2.3,2.1,2.3h1.5
										c0.2,0,0.4,0,0.6-0.1C91.4,95.9,90.1,94.7,89.8,92.8z"/>
									<path class="st2" d="M94.5,94.3c-0.1-1.2-0.5-1.9-1.3-2.5c-0.4-0.3-0.7-0.6-1-0.8l-0.4-6.9h-0.5L91.1,91
										c-0.2,0.2-0.5,0.5-1,0.8c-0.1,0.1-0.2,0.2-0.4,0.3c0,0.2,0,0.4,0,0.6c0.3,1.9,1.6,3.1,3.2,3.7
										C93.9,96.2,94.6,95.3,94.5,94.3z"/>
								</g>
								<g>
									<g>
										<rect x="97.8" y="84.2" class="st3" width="1.8" height="33"/>
										<rect x="99.6" y="84.2" class="st2" width="2.2" height="33"/>
									</g>
									<path class="st3" d="M97.8,82.1c0-0.2,0-0.4,0-0.6c-0.5,0.5-0.8,1.1-0.9,2.2c-0.1,1.2,0.9,2.3,2.1,2.3h1.5
										c0.2,0,0.4,0,0.6-0.1C99.4,85.2,98.1,84,97.8,82.1z"/>
									<path class="st2" d="M102.6,83.6c-0.1-1.2-0.5-1.9-1.3-2.5c-0.4-0.3-0.7-0.6-1-0.8l-0.4-6.9h-0.5l-0.4,6.9
										c-0.2,0.2-0.5,0.5-1,0.8c-0.1,0.1-0.2,0.2-0.4,0.3c0,0.2,0,0.4,0,0.6c0.3,1.9,1.6,3.1,3.2,3.7
										C102,85.5,102.7,84.6,102.6,83.6z"/>
								</g>
								<g>
									<g>
										<rect x="107.3" y="94.5" class="st3" width="1.8" height="33"/>
										<rect x="109" y="94.5" class="st2" width="2.2" height="33"/>
									</g>
									<path class="st3" d="M107.3,92.4c0-0.2,0-0.4,0-0.6c-0.5,0.5-0.8,1.1-0.9,2.2c-0.1,1.2,0.9,2.3,2.1,2.3h1.5
										c0.2,0,0.4,0,0.6-0.1C108.9,95.5,107.6,94.3,107.3,92.4z"/>
									<path class="st2" d="M112,93.9c-0.1-1.2-0.5-1.9-1.3-2.5c-0.4-0.3-0.7-0.6-1-0.8l-0.4-6.9H109l-0.4,6.9
										c-0.2,0.2-0.5,0.5-1,0.8c-0.1,0.1-0.2,0.2-0.4,0.3c0,0.2,0,0.4,0,0.6c0.3,1.9,1.6,3.1,3.2,3.7
										C111.5,95.8,112.1,94.9,112,93.9z"/>
								</g>
								<g>
									<rect x="114.1" y="93" class="st3" width="20" height="12.7"/>
									<g>
										<path class="st4" d="M120.2,105.7v-6.3c0-1.1-1-2.1-2.2-2.1c-1.2,0-2.2,0.9-2.2,2.1v6.3H120.2z"/>
										<path class="st4" d="M126.3,105.7v-6.3c0-1.1-1-2.1-2.2-2.1s-2.2,0.9-2.2,2.1v6.3H126.3z"/>
										<path class="st4" d="M132.5,105.7v-6.3c0-1.1-1-2.1-2.2-2.1c-1.2,0-2.2,0.9-2.2,2.1v6.3H132.5z"/>
									</g>
									<g>
										<g>
											<polygon class="st5" points="125.1,84.1 123.2,84.1 123.9,69.5 124.5,69.5 											"/>
											<path class="st5" d="M124.6,76.3h-0.7c-0.7,0-1.2,0.5-1.2,1.2c0,0.7,0.5,1.2,1.2,1.2h0.7c0.7,0,1.2-0.5,1.2-1.2
												C125.9,76.8,125.3,76.3,124.6,76.3z"/>
											<polygon class="st3" points="134.1,89.8 134.4,93.4 114.1,93.4 114.4,89.8 											"/>
											<g>
												<path class="st3" d="M134.3,87c0.1,1,0,1.9-0.1,2.8c0,0.1,0,0.3-0.1,0.4c0,0.2-0.1,0.4-0.1,0.6h-19.7c0,0,0-0.1,0-0.1
													c-0.1-0.3-0.1-0.5-0.1-0.8c-0.2-0.9-0.2-1.9-0.1-2.9c0.2-3.1,1.8-5.3,3.9-7c0.4-0.3,1.1-0.5,1.5-0.8
													c1-0.7,2.1-1.2,3.1-1.7l3.5,0c1.2,0.5,2.4,1.1,3.4,1.8c0.4,0.3,1,0.5,1.4,0.8C132.7,81.7,134.1,83.9,134.3,87z"/>
											</g>
											<g>
												<path class="st2" d="M134.3,89.2c0.1-0.7,0.1-1.5,0-2.2c-0.2-3.1-1.6-5.2-3.5-6.9c-0.4-0.3-1-0.5-1.4-0.8
													c-1-0.7-2.2-1.3-3.4-1.8l-3.5,0c-1.1,0.5-2.1,1.1-3.1,1.7c-0.2,0.1-0.5,0.3-0.8,0.4C121.4,85.1,127.7,87.7,134.3,89.2z"
													/>
											</g>
											<path class="st5" d="M134.3,90.7c0,0.1-0.1,0.1-0.1,0.2l0.1,1c-0.1,0-0.1,0-0.2,0h-19.4c-0.1,0-0.3,0-0.4,0l0.1-0.7
												c-0.1-0.1-0.1-0.3-0.2-0.4c0.1,0,0.1,0,0.2,0c0,0,0.1,0,0.1,0c0.1,0,0.2,0,0.4,0H134C134.1,90.7,134.2,90.7,134.3,90.7z"
												/>
											<polygon class="st5" points="135.8,92.6 112.5,92.6 113.3,93.6 135,93.6 											"/>
											<polygon class="st4" points="113.3,93.6 114,94.4 134.2,94.4 135,93.6 											"/>
										</g>
										<path class="st3" d="M124.9,71c0,0.3-0.3,0.6-0.8,0.6s-0.8-0.3-0.8-0.6c0-0.3,0.3-0.6,0.8-0.6
											C124.6,70.4,124.9,70.7,124.9,71z"/>
										<path class="st3" d="M125,74.6c0,0.3-0.4,0.6-0.8,0.6c-0.4,0-0.8-0.3-0.8-0.6c0-0.3,0.4-0.6,0.8-0.6
											C124.6,74.1,125,74.3,125,74.6z"/>
										<path class="st3" d="M125.2,73c0,0.4-0.5,0.8-1,0.8c-0.6,0-1-0.3-1-0.8c0-0.4,0.5-0.7,1-0.7
											C124.7,72.2,125.2,72.6,125.2,73z"/>
										<path class="st5" d="M130.6,80.1c-4.3-0.8-8.6-0.8-12.8-0.1c0.1-0.1,0.3-0.2,0.5-0.3c0.4-0.3,0.9-0.5,1.5-0.6
											c3-0.3,6-0.3,9,0.1c0.5,0.1,1.1,0.3,1.5,0.6C130.3,79.9,130.5,80,130.6,80.1z"/>
									</g>
									<rect x="114.1" y="94.1" class="st4" width="20" height="0.8"/>
								</g>
								<rect x="88.1" y="109.1" class="st6" width="23.6" height="71.5"/>
								<rect x="111.7" y="109.1" class="st5" width="26.4" height="71.5"/>
								<g>
									<path class="st7" d="M118.3,123.5c-1.8,1.1-4.3,5.1-4.3,7.1v14.7h4.2c0.7-7.6,0.8-15.3,1.8-23.1
										C119.5,122.6,119,123.1,118.3,123.5z"/>
									<path class="st6" d="M130,123.5c-1.5-0.9-2.3-2-3.8-3c-0.6-0.4-1.3-0.6-2-0.6c-0.7,0-1.4,0.2-2,0.6
										c-0.8,0.5-1.4,1.1-2.1,1.6c-1,7.8-1.1,15.5-1.8,23.1h5.9h10.2v-14.7C134.3,128.6,131.9,124.6,130,123.5z"/>
									<path class="st2" d="M128,121.4c-1.1-0.6-2.5-1.3-3.9-1.4c-1.3,0.1-2.7,0.8-3.9,1.4c-3.1,1.7-6.3,5.4-6.3,9.2v14.7h10.2
										h10.2v-14.7C134.3,126.8,131.1,123.1,128,121.4z M132.5,143.2h-8.3h-8.3v-12.6c0-1.7,0.7-3.4,1.9-4.8
										c1.4-1.6,4-3.5,6.4-3.7c2.4,0.1,5.1,2.1,6.4,3.7c1.1,1.3,1.9,3,1.9,4.8V143.2z"/>
								</g>
								<g>
									<path class="st7" d="M102.9,121.9c-0.4-0.5-0.9-0.9-1.5-1.4c-0.5-0.4-1.1-0.6-1.7-0.6c-0.6,0-1.2,0.2-1.7,0.6
										c-1.3,1-2,2-3.2,3c-1.6,1.1-3.6,5.1-3.6,7.1v14.7h6.2C96.6,136.1,96.2,126.9,102.9,121.9z"/>
									<path class="st6" d="M104.6,123.5c-0.7-0.5-1.2-1-1.7-1.6c-6.7,5-6.3,14.2-5.6,23.3h2.4h8.6v-14.7
										C108.3,128.6,106.2,124.6,104.6,123.5z"/>
									<path class="st2" d="M102.9,121.4c-1-0.6-2.1-1.3-3.3-1.4c-1.1,0.1-2.3,0.8-3.3,1.4c-2.6,1.7-5.3,5.4-5.3,9.2v14.7h8.6h8.6
										v-14.7C108.3,126.8,105.6,123.1,102.9,121.4z M106.7,143.2h-7h-7v-12.6c0-1.7,0.6-3.4,1.6-4.8c1.1-1.6,3.4-3.5,5.4-3.7
										c2,0.1,4.3,2.1,5.4,3.7c0.9,1.3,1.6,3,1.6,4.8V143.2z"/>
								</g>
								<g>
									<path class="st7" d="M118.9,158.6c-1.8,1.1-4.3,5.1-4.3,7.1v14.7h4.2c0.7-7.6,0.8-15.3,1.8-23.1
										C120.1,157.7,119.6,158.2,118.9,158.6z"/>
									<path class="st6" d="M130.6,158.6c-1.5-0.9-2.3-2-3.8-3c-0.6-0.4-1.3-0.6-2-0.6c-0.7,0-1.4,0.2-2,0.6
										c-0.8,0.5-1.4,1.1-2.1,1.6c-1,7.8-1.1,15.5-1.8,23.1h5.9h10.2v-14.7C134.9,163.7,132.4,159.7,130.6,158.6z"/>
									<path class="st2" d="M128.6,156.5c-1.1-0.6-2.5-1.3-3.9-1.4c-1.3,0.1-2.7,0.8-3.9,1.4c-3.1,1.7-6.3,5.4-6.3,9.2v14.7h10.2
										h10.2v-14.7C134.9,161.9,131.7,158.2,128.6,156.5z M133,178.3h-8.3h-8.3v-12.6c0-1.7,0.7-3.4,1.9-4.8
										c1.4-1.6,4-3.5,6.4-3.7c2.4,0.1,5.1,2.1,6.4,3.7c1.1,1.3,1.9,3,1.9,4.8V178.3z"/>
								</g>
								<g>
									<path class="st7" d="M103.5,157c-0.4-0.5-0.9-0.9-1.5-1.4c-0.5-0.4-1.1-0.6-1.7-0.6c-0.6,0-1.2,0.2-1.7,0.6
										c-1.3,1-2,2-3.2,3c-1.6,1.1-3.6,5.1-3.6,7.1v14.7h6.2C97.2,171.2,96.8,162,103.5,157z"/>
									<path class="st6" d="M105.2,158.6c-0.7-0.5-1.2-1-1.7-1.6c-6.7,5-6.3,14.2-5.6,23.3h2.4h8.6v-14.7
										C108.8,163.7,106.8,159.7,105.2,158.6z"/>
									<path class="st2" d="M103.5,156.5c-1-0.6-2.1-1.3-3.3-1.4c-1.1,0.1-2.3,0.8-3.3,1.4c-2.6,1.7-5.3,5.4-5.3,9.2v14.7h8.6h8.6
										v-14.7C108.8,161.9,106.1,158.2,103.5,156.5z M107.3,178.3h-7h-7v-12.6c0-1.7,0.6-3.4,1.6-4.8c1.1-1.6,3.4-3.5,5.4-3.7
										c2,0.1,4.3,2.1,5.4,3.7c0.9,1.3,1.6,3,1.6,4.8V178.3z"/>
								</g>
								<rect x="87.7" y="110.4" class="st4" width="50.3" height="2.1"/>
								<rect x="87.7" y="105.7" class="st2" width="50.3" height="4.7"/>
								<g>
									<polygon class="st3" points="114.3,180.6 114.3,118.5 134.7,118.5 134.7,180.6 136.4,180.6 136.4,116.9 112.6,116.9 
										112.6,180.6 									"/>
								</g>
								<g>
									<polygon class="st3" points="91.2,180.6 91.2,118.5 108.4,118.5 108.4,180.6 109.8,180.6 109.8,116.9 89.8,116.9 
										89.8,180.6 									"/>
								</g>
							</g>
							<g>
								<g>
									<g>
										<rect x="254.2" y="94.9" class="st3" width="1.8" height="33"/>
										<rect x="256" y="94.9" class="st2" width="2.2" height="33"/>
									</g>
									<path class="st3" d="M254.2,92.8c0-0.2,0-0.4,0-0.6c-0.5,0.5-0.8,1.1-0.9,2.2c-0.1,1.2,0.9,2.3,2.1,2.3h1.5
										c0.2,0,0.4,0,0.6-0.1C255.8,95.9,254.5,94.7,254.2,92.8z"/>
									<path class="st2" d="M259,94.3c-0.1-1.2-0.5-1.9-1.3-2.5c-0.4-0.3-0.7-0.6-1-0.8l-0.4-6.9h-0.5l-0.4,6.9
										c-0.2,0.2-0.5,0.5-1,0.8c-0.1,0.1-0.2,0.2-0.4,0.3c0,0.2,0,0.4,0,0.6c0.3,1.9,1.6,3.1,3.2,3.7
										C258.4,96.2,259.1,95.3,259,94.3z"/>
								</g>
								<g>
									<g>
										<rect x="246.1" y="84.2" class="st3" width="1.8" height="33"/>
										<rect x="247.9" y="84.2" class="st2" width="2.2" height="33"/>
									</g>
									<path class="st3" d="M246.2,82.1c0-0.2,0-0.4,0-0.6c-0.5,0.5-0.8,1.1-0.9,2.2c-0.1,1.2,0.9,2.3,2.1,2.3h1.5
										c0.2,0,0.4,0,0.6-0.1C247.8,85.2,246.5,84,246.2,82.1z"/>
									<path class="st2" d="M250.9,83.6c-0.1-1.2-0.5-1.9-1.3-2.5c-0.4-0.3-0.7-0.6-1-0.8l-0.4-6.9h-0.5l-0.4,6.9
										c-0.2,0.2-0.5,0.5-1,0.8c-0.1,0.1-0.2,0.2-0.4,0.3c0,0.2,0,0.4,0,0.6c0.3,1.9,1.6,3.1,3.2,3.7
										C250.3,85.5,251,84.6,250.9,83.6z"/>
								</g>
								<g>
									<g>
										<rect x="236.7" y="94.5" class="st3" width="1.8" height="33"/>
										<rect x="238.4" y="94.5" class="st2" width="2.2" height="33"/>
									</g>
									<path class="st3" d="M236.7,92.4c0-0.2,0-0.4,0-0.6c-0.5,0.5-0.8,1.1-0.9,2.2c-0.1,1.2,0.9,2.3,2.1,2.3h1.5
										c0.2,0,0.4,0,0.6-0.1C238.3,95.5,237,94.3,236.7,92.4z"/>
									<path class="st2" d="M241.4,93.9c-0.1-1.2-0.5-1.9-1.3-2.5c-0.4-0.3-0.7-0.6-1-0.8l-0.4-6.9h-0.5l-0.4,6.9
										c-0.2,0.2-0.5,0.5-1,0.8c-0.1,0.1-0.2,0.2-0.4,0.3c0,0.2,0,0.4,0,0.6c0.3,1.9,1.6,3.1,3.2,3.7
										C240.9,95.8,241.5,94.9,241.4,93.9z"/>
								</g>
								<g>
									<rect x="213.7" y="93" class="st3" width="20" height="12.7"/>
									<g>
										<path class="st4" d="M227.7,105.7v-6.3c0-1.1,1-2.1,2.2-2.1c1.2,0,2.2,0.9,2.2,2.1v6.3H227.7z"/>
										<path class="st4" d="M221.5,105.7v-6.3c0-1.1,1-2.1,2.2-2.1c1.2,0,2.2,0.9,2.2,2.1v6.3H221.5z"/>
										<path class="st4" d="M215.4,105.7v-6.3c0-1.1,1-2.1,2.2-2.1s2.2,0.9,2.2,2.1v6.3H215.4z"/>
									</g>
									<g>
										<g>
											<polygon class="st5" points="222.7,84.1 224.6,84.1 224,69.5 223.4,69.5 											"/>
											<path class="st5" d="M223.2,76.3h0.7c0.7,0,1.2,0.5,1.2,1.2c0,0.7-0.5,1.2-1.2,1.2h-0.7c-0.7,0-1.2-0.5-1.2-1.2
												C222,76.8,222.5,76.3,223.2,76.3z"/>
											<polygon class="st3" points="213.7,89.8 213.5,93.4 233.7,93.4 233.5,89.8 											"/>
											<g>
												<g>
													<path class="st3" d="M233.8,87c0.1,1,0,1.9-0.1,2.8c0,0.1,0,0.3-0.1,0.4c0,0.2-0.1,0.4-0.1,0.6h-19.7c0,0,0-0.1,0-0.1
														c-0.1-0.3-0.1-0.5-0.2-0.8c-0.2-0.9-0.2-1.9-0.1-2.9c0.2-3.1,1.8-5.3,3.9-7c0.4-0.3,1.1-0.5,1.5-0.8
														c1-0.7,2.1-1.2,3.1-1.7l3.5,0c1.2,0.5,2.4,1.1,3.4,1.8c0.4,0.3,1,0.5,1.4,0.8C232.2,81.7,233.6,83.9,233.8,87z"/>
												</g>
												<g>
													<path class="st2" d="M233.8,89.2c0.1-0.7,0.1-1.5,0-2.2c-0.2-3.1-1.6-5.2-3.5-6.9c-0.4-0.3-1-0.5-1.4-0.8
														c-1-0.7-2.2-1.3-3.4-1.8l-3.5,0c-1.1,0.5-2.1,1.1-3.1,1.7c-0.2,0.1-0.5,0.3-0.8,0.4C220.9,85.1,227.2,87.7,233.8,89.2z
														"/>
												</g>
											</g>
											<path class="st5" d="M213.6,90.7c0,0.1,0.1,0.1,0.1,0.2l-0.1,1c0.1,0,0.1,0,0.2,0h19.4c0.1,0,0.3,0,0.4,0l-0.1-0.7
												c0.1-0.1,0.1-0.3,0.2-0.4c-0.1,0-0.1,0-0.2,0c0,0-0.1,0-0.1,0c-0.1,0-0.2,0-0.4,0h-19.3
												C213.8,90.7,213.7,90.7,213.6,90.7z"/>
											<polygon class="st5" points="212,92.6 235.4,92.6 234.5,93.6 212.9,93.6 											"/>
											<polygon class="st4" points="234.5,93.6 233.8,94.4 213.6,94.4 212.9,93.6 											"/>
										</g>
										<path class="st3" d="M222.9,71c0,0.3,0.3,0.6,0.8,0.6c0.4,0,0.8-0.3,0.8-0.6c0-0.3-0.3-0.6-0.8-0.6S222.9,70.7,222.9,71z"
											/>
										<path class="st3" d="M222.9,74.6c0,0.3,0.4,0.6,0.8,0.6c0.4,0,0.8-0.3,0.8-0.6c0-0.3-0.4-0.6-0.8-0.6
											C223.2,74.1,222.9,74.3,222.9,74.6z"/>
										<path class="st3" d="M222.7,73c0,0.4,0.5,0.8,1,0.8c0.6,0,1-0.3,1-0.8c0-0.4-0.5-0.7-1-0.7
											C223.1,72.2,222.7,72.6,222.7,73z"/>
										<path class="st5" d="M217.2,80.1c4.3-0.8,8.6-0.8,12.8-0.1c-0.1-0.1-0.3-0.2-0.5-0.3c-0.4-0.3-0.9-0.5-1.5-0.6
											c-3-0.3-6-0.3-9,0.1c-0.5,0.1-1.1,0.3-1.5,0.6C217.5,79.9,217.4,80,217.2,80.1z"/>
									</g>
									<rect x="213.7" y="94.1" class="st4" width="20" height="0.8"/>
								</g>
								<rect x="236.2" y="109.1" class="st3" width="23.6" height="71.5"/>
								<rect x="209.8" y="109.1" class="st5" width="26.4" height="71.5"/>
								<g>
									<path class="st7" d="M229.5,123.5c1.8,1.1,4.3,5.1,4.3,7.1v14.7h-4.2c-0.7-7.6-0.8-15.3-1.8-23.1
										C228.3,122.6,228.8,123.1,229.5,123.5z"/>
									<path class="st6" d="M217.8,123.5c1.5-0.9,2.3-2,3.8-3c0.6-0.4,1.3-0.6,2-0.6c0.7,0,1.4,0.2,2,0.6c0.8,0.5,1.4,1.1,2.1,1.6
										c1,7.8,1.1,15.5,1.8,23.1h-5.9h-10.2v-14.7C213.5,128.6,216,124.6,217.8,123.5z"/>
									<path class="st2" d="M213.5,130.5v14.7h10.2h10.2v-14.7c0-3.7-3.2-7.5-6.3-9.2c-1.1-0.6-2.5-1.3-3.9-1.4
										c-1.3,0.1-2.7,0.8-3.9,1.4C216.7,123.1,213.5,126.8,213.5,130.5z M215.4,130.5c0-1.7,0.7-3.4,1.9-4.8
										c1.4-1.6,4-3.5,6.4-3.7c2.4,0.1,5.1,2.1,6.4,3.7c1.1,1.3,1.9,3,1.9,4.8v12.6h-8.3h-8.3V130.5z"/>
								</g>
								<g>
									<path class="st7" d="M244.9,121.9c0.4-0.5,0.9-0.9,1.5-1.4c0.5-0.4,1.1-0.6,1.7-0.6c0.6,0,1.2,0.2,1.7,0.6c1.3,1,2,2,3.2,3
										c1.6,1.1,3.6,5.1,3.6,7.1v14.7h-6.2C251.2,136.1,251.6,126.9,244.9,121.9z"/>
									<path class="st6" d="M243.2,123.5c0.7-0.5,1.2-1,1.7-1.6c6.7,5,6.3,14.2,5.6,23.3h-2.4h-8.6v-14.7
										C239.6,128.6,241.7,124.6,243.2,123.5z"/>
									<path class="st2" d="M239.6,130.5v14.7h8.6h8.6v-14.7c0-3.7-2.7-7.5-5.3-9.2c-1-0.6-2.1-1.3-3.3-1.4
										c-1.1,0.1-2.3,0.8-3.3,1.4C242.3,123.1,239.6,126.8,239.6,130.5z M241.2,130.5c0-1.7,0.6-3.4,1.6-4.8
										c1.1-1.6,3.4-3.5,5.4-3.7c2,0.1,4.3,2.1,5.4,3.7c0.9,1.3,1.6,3,1.6,4.8v12.6h-7h-7V130.5z"/>
								</g>
								<g>
									<path class="st7" d="M229,158.6c1.8,1.1,4.3,5.1,4.3,7.1v14.7H229c-0.7-7.6-0.8-15.3-1.8-23.1
										C227.7,157.7,228.3,158.2,229,158.6z"/>
									<path class="st6" d="M217.3,158.6c1.5-0.9,2.3-2,3.8-3c0.6-0.4,1.3-0.6,2-0.6c0.7,0,1.4,0.2,2,0.6c0.8,0.5,1.4,1.1,2.1,1.6
										c1,7.8,1.1,15.5,1.8,23.1h-5.9H213v-14.7C213,163.7,215.4,159.7,217.3,158.6z"/>
									<path class="st2" d="M213,165.6v14.7h10.2h10.2v-14.7c0-3.7-3.2-7.5-6.3-9.2c-1.1-0.6-2.5-1.3-3.9-1.4
										c-1.3,0.1-2.7,0.8-3.9,1.4C216.1,158.2,213,161.9,213,165.6z M214.8,165.6c0-1.7,0.7-3.4,1.9-4.8c1.4-1.6,4-3.5,6.4-3.7
										c2.4,0.1,5.1,2.1,6.4,3.7c1.1,1.3,1.9,3,1.9,4.8v12.6h-8.3h-8.3V165.6z"/>
								</g>
								<g>
									<path class="st7" d="M244.4,157c0.4-0.5,0.9-0.9,1.5-1.4c0.5-0.4,1.1-0.6,1.7-0.6c0.6,0,1.2,0.2,1.7,0.6c1.3,1,2,2,3.2,3
										c1.6,1.1,3.6,5.1,3.6,7.1v14.7H250C250.6,171.2,251.1,162,244.4,157z"/>
									<path class="st6" d="M242.7,158.6c0.7-0.5,1.2-1,1.7-1.6c6.7,5,6.3,14.2,5.6,23.3h-2.4H239v-14.7
										C239,163.7,241.1,159.7,242.7,158.6z"/>
									<path class="st2" d="M239,165.6v14.7h8.6h8.6v-14.7c0-3.7-2.7-7.5-5.3-9.2c-1-0.6-2.1-1.3-3.3-1.4
										c-1.1,0.1-2.3,0.8-3.3,1.4C241.7,158.2,239,161.9,239,165.6z M240.6,165.6c0-1.7,0.6-3.4,1.6-4.8c1.1-1.6,3.4-3.5,5.4-3.7
										c2,0.1,4.3,2.1,5.4,3.7c0.9,1.3,1.6,3,1.6,4.8v12.6h-7h-7V165.6z"/>
								</g>
								<rect x="209.8" y="110.4" class="st4" width="50.3" height="2.1"/>
								<rect x="209.8" y="105.7" class="st2" width="50.3" height="4.7"/>
								<g>
									<polygon class="st3" points="233.5,180.6 233.5,118.5 213.1,118.5 213.1,180.6 211.5,180.6 211.5,116.9 235.2,116.9 
										235.2,180.6 									"/>
								</g>
								<g>
									<polygon class="st2" points="256.7,180.6 256.7,118.5 239.5,118.5 239.5,180.6 238.1,180.6 238.1,116.9 258.1,116.9 
										258.1,180.6 									"/>
								</g>
							</g>
							<g>
								<rect x="136.6" y="92.7" class="st3" width="74.9" height="87.9"/>
								<rect x="139" y="97.4" class="st2" width="70" height="83.2"/>
								<rect x="143.8" y="100.5" class="st8" width="60.4" height="80.1"/>
								<rect x="148.3" y="104.9" class="st2" width="51.5" height="75.7"/>
								<rect x="152.5" y="109.3" class="st3" width="43" height="71.3"/>
								<g>
									<g>
										<polygon class="st5" points="177.6,59.4 170.5,59.4 171.9,21.3 172,20.7 172.8,-0.1 175.3,-0.1 176.1,20.7 176.2,24.1 
																					"/>
										<path class="st5" d="M176,29.4h-3c-2.8,0-5,2.1-5,4.8c0,2.6,2.2,4.8,5,4.8h3c2.8,0,5-2.1,5-4.8
											C181,31.5,178.7,29.4,176,29.4z"/>
										<rect x="138.2" y="79.2" class="st3" width="72.1" height="11.5"/>
										<g>
											<path class="st3" d="M211.9,69.6c0,3.3-0.4,6.5-1.2,9.6c-0.1,0.4-0.2,0.8-0.3,1.3c-0.2,0.6-0.4,1.3-0.6,1.9h-71.4
												c-0.1-0.2-0.1-0.3-0.2-0.5c-0.3-0.8-0.5-1.7-0.8-2.5c-0.8-3.1-1.3-6.4-1.3-9.8c0-11,5.6-19.2,13.4-25.4
												c1.4-1.1,4.1-1.9,5.6-2.9c3.9-2.6,8-4.9,12.3-6.8l13.9-0.1c4.8,1.9,9.3,4.4,13.3,7.1c1.5,1,4.1,1.9,5.4,3
												C207.3,50.7,211.9,58.8,211.9,69.6z"/>
										</g>
										<g>
											<path class="st2" d="M200.1,44.6c-1.3-1.1-3.9-2-5.4-3c-4-2.7-8.5-5.2-13.3-7.1l-13.9,0.1c-4.3,1.9-8.4,4.2-12.3,6.8
												c-0.9,0.6-2.1,1.1-3.3,1.6c4.8,13.8,18.8,24.2,32.2,29c8.5,3.5,17.5,5.9,26.7,7c0.7-3,1.1-6.1,1.1-9.3
												C211.9,58.8,207.3,50.7,200.1,44.6z"/>
										</g>
										<path class="st5" d="M210.7,79.2c-0.1,0.4-0.2,0.8-0.3,1.3v5.7c-0.2,0-0.4,0-0.7,0h-69.9c-0.5,0-1.1,0-1.6-0.1v-4.1
											c-0.3-0.8-0.5-1.7-0.8-2.5c0.2-0.1,0.5-0.1,0.8-0.1c0.1,0,0.2,0,0.3,0c0.4,0,0.8-0.1,1.3-0.1h69.9
											C210,79.2,210.3,79.2,210.7,79.2z"/>
										<rect x="136.8" y="89.7" class="st5" width="74.1" height="2.1"/>
										<rect x="136.8" y="91.8" class="st4" width="74.1" height="1.9"/>
									</g>
									<path class="st5" d="M171.9,4.8c-0.7,0.5-1.2,1.2-1.2,1.9c0,1.4,1.5,2.5,3.3,2.5c0.5,0,1.1-0.1,1.5-0.3
										C173.8,8.2,172.3,6.7,171.9,4.8z"/>
									<path class="st3" d="M177.3,6.7c0-1.4-1.5-2.5-3.3-2.5c-0.8,0-1.5,0.2-2.1,0.6c0.4,1.9,1.8,3.3,3.6,4.2
										C176.6,8.5,177.3,7.7,177.3,6.7z"/>
									<path class="st5" d="M171.8,20.8c-0.6,0.5-1,1.1-1,1.8c0,1.4,1.5,2.5,3.3,2.5c0.7,0,1.3-0.1,1.8-0.4
										C174.3,23.6,172.6,22.5,171.8,20.8z"/>
									<path class="st3" d="M176.2,24.1c-1.8-0.5-3.7-1.3-4.3-2.8c-0.1-0.1-0.1-0.3-0.1-0.4c0.1,0,0.1-0.1,0.2-0.1
										c0.6-0.4,1.3-0.6,2.1-0.6c0.8,0,1.5,0.2,2.1,0.6L176.2,24.1z"/>
									<path class="st5" d="M171.1,13.2c-0.8,0.6-1.3,1.4-1.3,2.3c0,1.8,1.9,3.2,4.2,3.2c0.6,0,1.1-0.1,1.6-0.2
										C173.7,17.9,171.5,15.8,171.1,13.2z"/>
									<path class="st3" d="M178.3,15.5c0-1.8-1.9-3.2-4.2-3.2c-1.2,0-2.2,0.4-3,0.9c0.5,2.6,2.6,4.7,4.6,5.3
										C177.2,18,178.3,16.9,178.3,15.5z"/>
									<path class="st5" d="M199.3,44.6c-16.7-3.1-33.8-3.2-50.6-0.4c0.6-0.5,1.1-0.9,1.7-1.3c1.7-1.2,3.6-2,5.7-2.2
										c11.9-1.3,23.9-1.3,35.8,0.3c2.1,0.3,4.1,1.1,5.8,2.4C198.3,43.7,198.8,44.1,199.3,44.6z"/>
								</g>
								<g>
									<path class="st5" d="M170.1,114.4c-2.9,1.9-5.9,3.8-8.7,5.5c-3.4,2.1-6.3,9.5-6.3,13v47.7h33.1c-0.1-13.4-1.4-26.9-4-40.5
										C182.3,130.6,178,120.8,170.1,114.4z"/>
									<path class="st6" d="M193,132.9c0-3.5-2.9-11-6.3-13c-4.1-2.5-8.7-5.4-12.6-8.1c-1.3,0.8-2.6,1.7-3.9,2.6
										c7.9,6.4,12.1,16.2,14,25.7c2.6,13.6,3.9,27.1,4,40.5h4.8V132.9z"/>
								</g>
								<rect x="156.9" y="147.4" class="st3" width="34.4" height="2.3"/>
								<path class="st6" d="M178.7,130.3c-1.5-0.9-3.2-2-4.7-3c-1.5,1-3.2,2.1-4.7,3c-1.3,0.8-2.3,3.6-2.3,4.9v12h0.2v0.2h13.7
									v-0.2h0.2v-12C181,133.9,180,131.1,178.7,130.3z"/>
								<path class="st6" d="M178.7,158.5c-1.5-0.9-3.2-2-4.7-3c-1.5,1-3.2,2.1-4.7,3c-1.3,0.8-2.3,3.6-2.3,4.9v12h0.2v0.2h13.7
									v-0.2h0.2v-12C181,162.1,180,159.3,178.7,158.5z"/>
								<path class="st3" d="M167.5,148.2v-12.1h2.9v12.1h1.5v-12.1h4.3v12.1h1.5v-12.1h2.9v12.1h1.4v-13.5c0-1.5-1.2-4.6-2.7-5.5
									c-1.7-1.1-3.7-2.3-5.3-3.4c-1.7,1.1-3.6,2.4-5.3,3.4c-1.4,0.9-2.7,4-2.7,5.5v13.5H167.5z M177.7,129.9
									c0.3,0.2,0.6,0.4,0.9,0.6c0.9,0.5,2,3.1,2,4.3v0.2h-2.9V129.9z M171.9,129c0.9-0.6,1.7-1.1,2.2-1.4c0.5,0.3,1.2,0.8,2.1,1.4
									v6h-4.3V129z M167.5,134.8c0-1.2,1.1-3.8,2-4.3c0.3-0.2,0.6-0.4,0.9-0.5v5h-2.9V134.8z"/>
								<path class="st3" d="M167.5,176.6v-12.1h2.9v12.1h1.5v-12.1h4.3v12.1h1.5v-12.1h2.9v12.1h1.4v-13.5c0-1.5-1.2-4.6-2.7-5.5
									c-1.7-1.1-3.7-2.3-5.3-3.4c-1.7,1.1-3.6,2.4-5.3,3.4c-1.4,0.9-2.7,4-2.7,5.5v13.5H167.5z M177.7,158.3
									c0.3,0.2,0.6,0.4,0.9,0.6c0.9,0.5,2,3.1,2,4.3v0.2h-2.9V158.3z M171.9,157.3c0.9-0.6,1.7-1.1,2.2-1.4
									c0.5,0.3,1.2,0.8,2.1,1.4v6h-4.3V157.3z M167.5,163.1c0-1.2,1.1-3.8,2-4.3c0.3-0.2,0.6-0.4,0.9-0.5v5h-2.9V163.1z"/>
								<rect x="157.6" y="175.9" class="st6" width="33" height="3.2"/>
								<path class="st2" d="M157.6,180.6V132c0-3,2.7-9.4,4.9-10.8c5.3-3.3,9.1-5.7,11.5-7.3c2.3,1.5,6.1,4,11.5,7.3
									c2.2,1.4,4.9,7.8,4.9,10.8v48.6h3.6V132c0-3.8-3-11.6-6.7-13.8c-4.4-2.7-9.2-5.7-13.4-8.5c-4.2,2.9-9.1,5.9-13.4,8.5
									c-3.6,2.2-6.7,10.1-6.7,13.8v48.6H157.6z"/>
							</g>
						</g>
						<g>
							<g>
								<g>
									<g>
										<path class="st3" d="M76.3,96.8v7.3h-1v-2.9c0-0.7-0.6-1.2-1.3-1.2c-0.7,0-1.2,0.5-1.2,1.2v2.9h-1v-2.9
											c0-0.7-0.6-1.2-1.2-1.2c-0.7,0-1.3,0.5-1.3,1.2v2.9h-1v-2.9c0-0.7-0.6-1.2-1.3-1.2s-1.3,0.5-1.3,1.2v2.9h-1v-7.3H76.3z"/>
										<g>
											<path class="st4" d="M68.3,100.5v0.7c0-0.7-0.6-1.2-1.3-1.2s-1.3,0.5-1.3,1.2v-0.7c0-0.7,0.6-1.2,1.3-1.2
												S68.3,99.8,68.3,100.5z"/>
											<path class="st4" d="M71.8,100.5v0.7c0-0.7-0.6-1.2-1.2-1.2c-0.7,0-1.3,0.5-1.3,1.2v-0.7c0-0.7,0.6-1.2,1.3-1.2
												C71.2,99.3,71.8,99.8,71.8,100.5z"/>
											<path class="st4" d="M75.3,100.5v0.7c0-0.7-0.6-1.2-1.3-1.2c-0.7,0-1.2,0.5-1.2,1.2v-0.7c0-0.7,0.6-1.2,1.2-1.2
												C74.7,99.3,75.3,99.8,75.3,100.5z"/>
										</g>
										<g>
											<g>
												<polygon class="st5" points="71.1,91.9 70,91.9 70.4,84.4 70.7,84.4 												"/>
												<path class="st5" d="M70.8,87.8h-0.4c-0.4,0-0.7,0.3-0.7,0.6c0,0.3,0.3,0.6,0.7,0.6h0.4c0.4,0,0.7-0.3,0.7-0.6
													C71.5,88.1,71.2,87.8,70.8,87.8z"/>
												<polygon class="st3" points="76.2,95 76.4,97 64.8,97 65,95 												"/>
												<g>
													<path class="st3" d="M76.2,93.5c0.1,0.5,0.1,1.1,0,1.6c0,0.1,0,0.1,0,0.2c0,0.1,0,0.2-0.1,0.3H65c0,0,0-0.1,0-0.1
														c0-0.1-0.1-0.3-0.1-0.4c-0.1-0.5-0.1-1.1,0-1.6c0.2-1.7,1.1-2.9,2.3-3.7c0.2-0.2,0.6-0.3,0.8-0.4
														c0.6-0.3,1.1-0.6,1.7-0.9l1.9,0c0.7,0.3,1.3,0.6,1.9,0.9c0.2,0.1,0.6,0.3,0.8,0.4C75.3,90.6,76,91.8,76.2,93.5z"/>
												</g>
												<path class="st5" d="M76.3,95.5c0,0,0,0.1,0,0.1l0.1,0.6c0,0-0.1,0-0.1,0h-11c-0.1,0-0.2,0-0.2,0l0-0.4
													c0-0.1-0.1-0.2-0.1-0.2c0,0,0.1,0,0.1,0c0,0,0,0,0,0c0.1,0,0.1,0,0.2,0h10.9C76.2,95.5,76.2,95.5,76.3,95.5z"/>
												<polygon class="st4" points="63.9,97.6 77.2,97.6 76.7,97.1 64.4,97.1 												"/>
												<polygon class="st3" points="76.7,97.1 76.3,96.6 64.8,96.6 64.4,97.1 												"/>
											</g>
											<path class="st3" d="M71,85.2c0,0.2-0.2,0.3-0.4,0.3c-0.2,0-0.4-0.1-0.4-0.3c0-0.2,0.2-0.3,0.4-0.3
												C70.8,84.9,71,85,71,85.2z"/>
											<path class="st3" d="M71,87c0,0.2-0.2,0.3-0.4,0.3c-0.2,0-0.4-0.1-0.4-0.3c0-0.2,0.2-0.3,0.4-0.3
												C70.8,86.7,71,86.8,71,87z"/>
											<path class="st3" d="M71.1,86.1c0,0.2-0.2,0.4-0.5,0.4c-0.3,0-0.5-0.2-0.5-0.4c0-0.2,0.2-0.4,0.5-0.4
												C70.8,85.8,71.1,85.9,71.1,86.1z"/>
											<path class="st5" d="M74.1,89.8c-2.3-0.4-4.7-0.4-7-0.1c0.1-0.1,0.2-0.1,0.3-0.2c0.2-0.2,0.5-0.3,0.8-0.3
												c1.6-0.2,3.3-0.2,4.9,0c0.3,0,0.6,0.1,0.8,0.3C73.9,89.7,74,89.7,74.1,89.8z"/>
										</g>
										<rect x="64.8" y="97.4" class="st4" width="11.5" height="0.5"/>
									</g>
									<g>
										<polygon class="st3" points="77.4,164.4 77.4,162 76.9,137.8 76.8,135.4 76.2,108.1 76.2,105.6 76.2,104.4 71,104.4 
											64.9,104.4 64.9,105.6 64.8,108.1 64.3,135.4 64.2,137.8 63.7,162 63.6,164.4 63.2,184 71,184 77.8,184 										"/>
										<polygon class="st9" points="64.9,104.4 64.9,105.6 64.8,108.1 64.3,135.4 64.2,137.8 63.7,162 63.6,164.4 63.2,184 
											71,184 71,104.4 										"/>
										<polygon class="st4" points="76.9,137.8 64.2,137.8 64.3,135.4 76.8,135.4 										"/>
										<polygon class="st4" points="77.4,164.4 63.6,164.4 63.7,162 77.4,162 										"/>
										<polygon class="st4" points="76.2,108.1 64.8,108.1 64.9,105.6 76.2,105.6 										"/>
										<path class="st2" d="M76.3,104H64.8c-0.8,0-1.4,0.7-1.4,1.6h14.3C77.7,104.7,77.1,104,76.3,104z"/>
										<path class="st3" d="M63.4,105.6C63.4,105.6,63.4,105.6,63.4,105.6L63.4,105.6c0,0.9,0.6,1.6,1.4,1.6h11.5
											c0.8,0,1.4-0.7,1.4-1.6l0,0c0,0,0,0,0,0H63.4z"/>
										<path class="st2" d="M76.7,133.5H64.4c-0.8,0-1.5,0.7-1.5,1.6h15.4C78.2,134.2,77.5,133.5,76.7,133.5z"/>
										<path class="st3" d="M62.8,135C62.8,135,62.8,135,62.8,135L62.8,135c0,0.9,0.7,1.6,1.5,1.6h12.3c0.9,0,1.5-0.7,1.5-1.6
											l0,0c0,0,0,0,0,0H62.8z"/>
										<path class="st2" d="M77.1,160H63.9c-0.8,0-1.4,0.5-1.6,1.2h16.4C78.5,160.6,77.9,160,77.1,160z"/>
										<path class="st3" d="M62.4,161.3c0,0.1-0.1,0.2-0.1,0.4l0,0c0,0.9,0.7,1.6,1.6,1.6h13.2c0.9,0,1.6-0.7,1.6-1.6l0,0
											c0-0.1,0-0.3-0.1-0.4H62.4z"/>
									</g>
								</g>
								<g>
									<g>
										<path class="st3" d="M47.8,59.4v10.4h-1.4v-4.1c0-0.9-0.8-1.7-1.8-1.7c-1,0-1.8,0.8-1.8,1.7v4.1h-1.5v-4.1
											c0-0.9-0.8-1.7-1.8-1.7c-1,0-1.8,0.8-1.8,1.7v4.1h-1.5v-4.1c0-0.9-0.8-1.7-1.8-1.7c-1,0-1.8,0.8-1.8,1.7v4.1h-1.4V59.4
											H47.8z"/>
										<g>
											<path class="st4" d="M36.3,64.7v1c0-0.9-0.8-1.7-1.8-1.7c-1,0-1.8,0.8-1.8,1.7v-1c0-0.9,0.8-1.7,1.8-1.7
												C35.5,63,36.3,63.7,36.3,64.7z"/>
											<path class="st4" d="M41.4,64.7v1c0-0.9-0.8-1.7-1.8-1.7c-1,0-1.8,0.8-1.8,1.7v-1c0-0.9,0.8-1.7,1.8-1.7
												C40.6,63,41.4,63.7,41.4,64.7z"/>
											<path class="st4" d="M46.4,64.7v1c0-0.9-0.8-1.7-1.8-1.7c-1,0-1.8,0.8-1.8,1.7v-1c0-0.9,0.8-1.7,1.8-1.7
												C45.6,63,46.4,63.7,46.4,64.7z"/>
										</g>
										<g>
											<g>
												<polygon class="st5" points="40.4,52.4 38.9,52.4 39.4,41.7 39.8,41.7 												"/>
												<path class="st5" d="M40,46.6h-0.6c-0.5,0-1,0.4-1,0.9c0,0.5,0.4,0.9,1,0.9H40c0.5,0,1-0.4,1-0.9
													C40.9,47,40.5,46.6,40,46.6z"/>
												<polygon class="st3" points="47.6,56.9 47.9,59.7 31.4,59.7 31.7,56.9 												"/>
												<g>
													<path class="st3" d="M47.7,54.7c0.1,0.8,0.1,1.5,0,2.2c0,0.1,0,0.2,0,0.3c0,0.2-0.1,0.3-0.1,0.5H31.7c0,0,0-0.1,0-0.1
														c0-0.2-0.1-0.4-0.1-0.6c-0.1-0.7-0.1-1.5,0-2.3c0.3-2.4,1.6-4.1,3.2-5.3c0.3-0.2,0.8-0.4,1.2-0.6
														c0.8-0.5,1.6-0.9,2.5-1.3l2.7,0c0.9,0.4,1.8,0.8,2.7,1.3c0.3,0.2,0.8,0.4,1.1,0.6C46.4,50.6,47.5,52.3,47.7,54.7z"/>
												</g>
												<path class="st5" d="M47.8,57.6c0,0.1,0,0.1-0.1,0.2l0.1,0.8c0,0-0.1,0-0.2,0H31.9c-0.1,0-0.2,0-0.4,0l0.1-0.6
													c0-0.1-0.1-0.2-0.1-0.4c0.1,0,0.1,0,0.2,0c0,0,0,0,0.1,0c0.1,0,0.2,0,0.3,0h15.6C47.6,57.6,47.7,57.6,47.8,57.6z"/>
												<polygon class="st4" points="30.1,60.6 49.1,60.6 48.4,59.8 30.8,59.8 												"/>
												<polygon class="st3" points="48.4,59.8 47.8,59.1 31.3,59.1 30.8,59.8 												"/>
											</g>
											<path class="st3" d="M40.2,42.8c0,0.2-0.3,0.4-0.6,0.4c-0.3,0-0.6-0.2-0.6-0.4c0-0.2,0.3-0.4,0.6-0.4
												C39.9,42.4,40.2,42.6,40.2,42.8z"/>
											<path class="st3" d="M40.2,45.4c0,0.2-0.3,0.4-0.6,0.4S39,45.7,39,45.4c0-0.2,0.3-0.4,0.6-0.4C40,45,40.2,45.2,40.2,45.4
												z"/>
											<path class="st3" d="M40.4,44.2c0,0.3-0.3,0.5-0.8,0.5s-0.8-0.2-0.8-0.5c0-0.3,0.4-0.5,0.8-0.5
												C40,43.7,40.4,43.9,40.4,44.2z"/>
											<path class="st5" d="M44.6,49.4c-3.3-0.6-6.7-0.6-10.1-0.1c0.1-0.1,0.2-0.2,0.4-0.3c0.3-0.2,0.7-0.4,1.2-0.4
												c2.3-0.3,4.7-0.2,7,0.1c0.4,0.1,0.8,0.2,1.2,0.5C44.4,49.2,44.5,49.3,44.6,49.4z"/>
										</g>
										<rect x="31.4" y="60.3" class="st4" width="16.4" height="0.7"/>
									</g>
									<g>
										<polygon class="st3" points="49.4,156 49.3,152.5 48.6,118.1 48.6,114.5 47.8,75.5 47.7,72 47.6,70.2 40.3,70.2 
											31.5,70.2 31.5,72 31.4,75.5 30.6,114.5 30.5,118.1 29.8,152.5 29.7,156 29.2,184 40.3,184 50,184 										"/>
										<polygon class="st9" points="31.5,70.2 31.5,72 31.4,75.5 30.6,114.5 30.5,118.1 29.8,152.5 29.7,156 29.2,184 40.3,184 
											40.3,70.2 										"/>
										<polygon class="st4" points="48.6,118.1 30.5,118.1 30.6,114.5 48.6,114.5 										"/>
										<polygon class="st4" points="49.4,156 29.7,156 29.8,152.5 49.3,152.5 										"/>
										<polygon class="st4" points="47.8,75.5 31.4,75.5 31.5,72 47.7,72 										"/>
										<path class="st2" d="M47.8,69.8H31.4c-1.1,0-2,1-2,2.2h20.5C49.8,70.8,48.9,69.8,47.8,69.8z"/>
										<path class="st3" d="M29.3,72C29.3,72,29.3,72,29.3,72L29.3,72c0,1.3,0.9,2.3,2,2.3h16.4c1.1,0,2-1,2-2.3l0,0c0,0,0,0,0,0
											H29.3z"/>
										<path class="st2" d="M48.4,111.8H30.8c-1.2,0-2.2,1-2.2,2.2h22C50.6,112.8,49.6,111.8,48.4,111.8z"/>
										<path class="st3" d="M28.6,114C28.6,114,28.6,114,28.6,114L28.6,114c0,1.3,1,2.3,2.2,2.3h17.6c1.2,0,2.2-1,2.2-2.3l0,0
											c0,0,0,0,0,0H28.6z"/>
										<path class="st2" d="M49,149.8H30.2c-1.1,0-2,0.7-2.3,1.7h23.4C51,150.5,50.1,149.8,49,149.8z"/>
										<path class="st3" d="M27.9,151.5c0,0.2-0.1,0.3-0.1,0.5l0,0c0,1.3,1.1,2.3,2.4,2.3H49c1.3,0,2.4-1,2.4-2.3l0,0
											c0-0.2,0-0.4-0.1-0.5H27.9z"/>
									</g>
								</g>
							</g>
							<g>
								<g>
									<g>
										<path class="st3" d="M271.6,96.8v7.3h1v-2.9c0-0.7,0.6-1.2,1.2-1.2c0.7,0,1.2,0.5,1.2,1.2v2.9h1v-2.9
											c0-0.7,0.6-1.2,1.2-1.2c0.7,0,1.3,0.5,1.3,1.2v2.9h1v-2.9c0-0.7,0.6-1.2,1.2-1.2c0.7,0,1.3,0.5,1.3,1.2v2.9h1v-7.3H271.6z
											"/>
										<g>
											<path class="st4" d="M279.6,100.5v0.7c0-0.7,0.6-1.2,1.2-1.2c0.7,0,1.3,0.5,1.3,1.2v-0.7c0-0.7-0.6-1.2-1.3-1.2
												C280.2,99.3,279.6,99.8,279.6,100.5z"/>
											<path class="st4" d="M276.1,100.5v0.7c0-0.7,0.6-1.2,1.2-1.2c0.7,0,1.3,0.5,1.3,1.2v-0.7c0-0.7-0.6-1.2-1.3-1.2
												C276.6,99.3,276.1,99.8,276.1,100.5z"/>
											<path class="st4" d="M272.5,100.5v0.7c0-0.7,0.6-1.2,1.2-1.2c0.7,0,1.2,0.5,1.2,1.2v-0.7c0-0.7-0.6-1.2-1.2-1.2
												C273.1,99.3,272.5,99.8,272.5,100.5z"/>
										</g>
										<g>
											<g>
												<polygon class="st5" points="276.8,91.9 277.8,91.9 277.5,84.4 277.1,84.4 												"/>
												<path class="st5" d="M277,87.8h0.4c0.4,0,0.7,0.3,0.7,0.6c0,0.3-0.3,0.6-0.7,0.6H277c-0.4,0-0.7-0.3-0.7-0.6
													C276.4,88.1,276.7,87.8,277,87.8z"/>
												<polygon class="st3" points="271.7,95 271.5,97 283,97 282.8,95 												"/>
												<g>
													<path class="st3" d="M271.6,93.5c-0.1,0.5-0.1,1.1,0,1.6c0,0.1,0,0.1,0,0.2c0,0.1,0,0.2,0.1,0.3h11.1c0,0,0-0.1,0-0.1
														c0-0.1,0.1-0.3,0.1-0.4c0.1-0.5,0.1-1.1,0-1.6c-0.2-1.7-1.1-2.9-2.3-3.7c-0.2-0.2-0.6-0.3-0.8-0.4
														c-0.6-0.3-1.1-0.6-1.7-0.9l-1.9,0c-0.7,0.3-1.3,0.6-1.9,0.9c-0.2,0.1-0.6,0.3-0.8,0.4
														C272.6,90.6,271.8,91.8,271.6,93.5z"/>
												</g>
												<path class="st5" d="M271.6,95.5c0,0,0,0.1,0,0.1l-0.1,0.6c0,0,0.1,0,0.1,0h11c0.1,0,0.2,0,0.2,0l0-0.4
													c0-0.1,0.1-0.2,0.1-0.2c0,0-0.1,0-0.1,0c0,0,0,0,0,0c-0.1,0-0.1,0-0.2,0h-10.9C271.7,95.5,271.6,95.5,271.6,95.5z"/>
												<polygon class="st4" points="284,97.6 270.7,97.6 271.1,97.1 283.5,97.1 												"/>
												<polygon class="st3" points="271.1,97.1 271.5,96.6 283.1,96.6 283.5,97.1 												"/>
											</g>
											<path class="st3" d="M276.9,85.2c0,0.2,0.2,0.3,0.4,0.3c0.2,0,0.4-0.1,0.4-0.3c0-0.2-0.2-0.3-0.4-0.3
												C277.1,84.9,276.9,85,276.9,85.2z"/>
											<path class="st3" d="M276.9,87c0,0.2,0.2,0.3,0.4,0.3c0.2,0,0.4-0.1,0.4-0.3c0-0.2-0.2-0.3-0.4-0.3
												C277.1,86.7,276.9,86.8,276.9,87z"/>
											<path class="st3" d="M276.8,86.1c0,0.2,0.2,0.4,0.5,0.4c0.3,0,0.5-0.2,0.5-0.4c0-0.2-0.2-0.4-0.5-0.4
												C277,85.8,276.8,85.9,276.8,86.1z"/>
											<path class="st5" d="M273.8,89.8c2.3-0.4,4.7-0.4,7-0.1c-0.1-0.1-0.2-0.1-0.3-0.2c-0.2-0.2-0.5-0.3-0.8-0.3
												c-1.6-0.2-3.3-0.2-4.9,0c-0.3,0-0.6,0.1-0.8,0.3C273.9,89.7,273.9,89.7,273.8,89.8z"/>
										</g>
										<rect x="271.6" y="97.4" class="st4" width="11.5" height="0.5"/>
									</g>
									<g>
										<polygon class="st3" points="270.4,164.4 270.5,162 271,137.8 271,135.4 271.6,108.1 271.7,105.6 271.7,104.4 
											276.8,104.4 283,104.4 283,105.6 283,108.1 283.6,135.4 283.7,137.8 284.2,162 284.2,164.4 284.6,184 276.8,184 270,184 
																					"/>
										<polygon class="st9" points="283,104.4 283,105.6 283,108.1 283.6,135.4 283.7,137.8 284.2,162 284.2,164.4 284.6,184 
											276.8,184 276.8,104.4 										"/>
										<polygon class="st4" points="271,137.8 283.7,137.8 283.6,135.4 271,135.4 										"/>
										<polygon class="st4" points="270.4,164.4 284.2,164.4 284.2,162 270.5,162 										"/>
										<polygon class="st4" points="271.6,108.1 283,108.1 283,105.6 271.7,105.6 										"/>
										<path class="st2" d="M271.6,104h11.5c0.8,0,1.4,0.7,1.4,1.6h-14.3C270.2,104.7,270.8,104,271.6,104z"/>
										<path class="st3" d="M284.5,105.6C284.5,105.6,284.5,105.6,284.5,105.6L284.5,105.6c0,0.9-0.6,1.6-1.4,1.6h-11.5
											c-0.8,0-1.4-0.7-1.4-1.6l0,0c0,0,0,0,0,0H284.5z"/>
										<path class="st2" d="M271.2,133.5h12.3c0.8,0,1.5,0.7,1.5,1.6h-15.4C269.6,134.2,270.3,133.5,271.2,133.5z"/>
										<path class="st3" d="M285,135C285,135,285,135,285,135L285,135c0,0.9-0.7,1.6-1.5,1.6h-12.3c-0.8,0-1.5-0.7-1.5-1.6l0,0
											c0,0,0,0,0,0H285z"/>
										<path class="st2" d="M270.7,160h13.2c0.8,0,1.4,0.5,1.6,1.2h-16.4C269.3,160.6,270,160,270.7,160z"/>
										<path class="st3" d="M285.5,161.3c0,0.1,0.1,0.2,0.1,0.4l0,0c0,0.9-0.7,1.6-1.6,1.6h-13.2c-0.9,0-1.6-0.7-1.6-1.6l0,0
											c0-0.1,0-0.3,0.1-0.4H285.5z"/>
									</g>
								</g>
								<g>
									<g>
										<path class="st3" d="M300.1,59.4v10.4h1.4v-4.1c0-0.9,0.8-1.7,1.8-1.7c1,0,1.8,0.8,1.8,1.7v4.1h1.5v-4.1
											c0-0.9,0.8-1.7,1.8-1.7c1,0,1.8,0.8,1.8,1.7v4.1h1.5v-4.1c0-0.9,0.8-1.7,1.8-1.7c1,0,1.8,0.8,1.8,1.7v4.1h1.4V59.4H300.1z
											"/>
										<g>
											<path class="st4" d="M311.5,64.7v1c0-0.9,0.8-1.7,1.8-1.7c1,0,1.8,0.8,1.8,1.7v-1c0-0.9-0.8-1.7-1.8-1.7
												C312.3,63,311.5,63.7,311.5,64.7z"/>
											<path class="st4" d="M306.5,64.7v1c0-0.9,0.8-1.7,1.8-1.7c1,0,1.8,0.8,1.8,1.7v-1c0-0.9-0.8-1.7-1.8-1.7
												C307.3,63,306.5,63.7,306.5,64.7z"/>
											<path class="st4" d="M301.4,64.7v1c0-0.9,0.8-1.7,1.8-1.7c1,0,1.8,0.8,1.8,1.7v-1c0-0.9-0.8-1.7-1.8-1.7
												C302.2,63,301.4,63.7,301.4,64.7z"/>
										</g>
										<g>
											<g>
												<polygon class="st5" points="307.5,52.4 309,52.4 308.5,41.7 308,41.7 												"/>
												<path class="st5" d="M307.9,46.6h0.6c0.5,0,1,0.4,1,0.9c0,0.5-0.4,0.9-1,0.9h-0.6c-0.5,0-1-0.4-1-0.9
													C306.9,47,307.3,46.6,307.9,46.6z"/>
												<polygon class="st3" points="300.2,56.9 299.9,59.7 316.4,59.7 316.1,56.9 												"/>
												<g>
													<path class="st3" d="M300.1,54.7c-0.1,0.8-0.1,1.5,0,2.2c0,0.1,0,0.2,0,0.3c0,0.2,0.1,0.3,0.1,0.5h15.9
														c0,0,0-0.1,0-0.1c0-0.2,0.1-0.4,0.1-0.6c0.1-0.7,0.1-1.5,0-2.3c-0.3-2.4-1.6-4.1-3.2-5.3c-0.3-0.2-0.8-0.4-1.2-0.6
														c-0.8-0.5-1.6-0.9-2.5-1.3l-2.7,0c-0.9,0.4-1.8,0.8-2.6,1.3c-0.3,0.2-0.8,0.4-1.1,0.6
														C301.5,50.6,300.4,52.3,300.1,54.7z"/>
												</g>
												<path class="st5" d="M300.1,57.6c0,0.1,0,0.1,0.1,0.2l-0.1,0.8c0,0,0.1,0,0.2,0H316c0.1,0,0.2,0,0.4,0l-0.1-0.6
													c0-0.1,0.1-0.2,0.1-0.4c-0.1,0-0.1,0-0.2,0c0,0,0,0-0.1,0c-0.1,0-0.2,0-0.3,0h-15.6C300.2,57.6,300.1,57.6,300.1,57.6z"
													/>
												<polygon class="st4" points="317.8,60.6 298.8,60.6 299.4,59.8 317.1,59.8 												"/>
												<polygon class="st3" points="299.4,59.8 300,59.1 316.5,59.1 317.1,59.8 												"/>
											</g>
											<path class="st3" d="M307.6,42.8c0,0.2,0.3,0.4,0.6,0.4c0.3,0,0.6-0.2,0.6-0.4c0-0.2-0.3-0.4-0.6-0.4
												C307.9,42.4,307.6,42.6,307.6,42.8z"/>
											<path class="st3" d="M307.6,45.4c0,0.2,0.3,0.4,0.6,0.4c0.3,0,0.6-0.2,0.6-0.4c0-0.2-0.3-0.4-0.6-0.4
												C307.9,45,307.6,45.2,307.6,45.4z"/>
											<path class="st3" d="M307.5,44.2c0,0.3,0.3,0.5,0.8,0.5c0.4,0,0.8-0.2,0.8-0.5c0-0.3-0.4-0.5-0.8-0.5
												S307.5,43.9,307.5,44.2z"/>
											<path class="st5" d="M303.2,49.4c3.3-0.6,6.7-0.6,10.1-0.1c-0.1-0.1-0.2-0.2-0.4-0.3c-0.3-0.2-0.7-0.4-1.2-0.4
												c-2.3-0.3-4.7-0.2-7,0.1c-0.4,0.1-0.8,0.2-1.2,0.5C303.4,49.2,303.3,49.3,303.2,49.4z"/>
										</g>
										<rect x="300.1" y="60.3" class="st4" width="16.4" height="0.7"/>
									</g>
									<g>
										<polygon class="st3" points="298.4,156 298.5,152.5 299.2,118.1 299.3,114.5 300.1,75.5 300.2,72 300.2,70.2 307.5,70.2 
											316.3,70.2 316.3,72 316.4,75.5 317.2,114.5 317.3,118.1 318,152.5 318.1,156 318.7,184 307.5,184 297.8,184 										
											"/>
										<polygon class="st9" points="316.3,70.2 316.3,72 316.4,75.5 317.2,114.5 317.3,118.1 318,152.5 318.1,156 318.7,184 
											307.5,184 307.5,70.2 										"/>
										<polygon class="st4" points="299.2,118.1 317.3,118.1 317.2,114.5 299.3,114.5 										"/>
										<polygon class="st4" points="298.4,156 318.1,156 318,152.5 298.5,152.5 										"/>
										<polygon class="st4" points="300.1,75.5 316.4,75.5 316.3,72 300.2,72 										"/>
										<path class="st2" d="M300.1,69.8h16.4c1.1,0,2,1,2,2.2H298C298,70.8,298.9,69.8,300.1,69.8z"/>
										<path class="st3" d="M318.5,72C318.5,72,318.5,72,318.5,72L318.5,72c0,1.3-0.9,2.3-2,2.3h-16.4c-1.1,0-2-1-2-2.3l0,0
											c0,0,0,0,0,0H318.5z"/>
										<path class="st2" d="M299.5,111.8h17.6c1.2,0,2.2,1,2.2,2.2h-22C297.3,112.8,298.3,111.8,299.5,111.8z"/>
										<path class="st3" d="M319.3,114C319.3,114,319.3,114,319.3,114L319.3,114c0,1.3-1,2.3-2.2,2.3h-17.6c-1.2,0-2.2-1-2.2-2.3
											l0,0c0,0,0,0,0,0H319.3z"/>
										<path class="st2" d="M298.9,149.8h18.8c1.1,0,2,0.7,2.3,1.7h-23.4C296.8,150.5,297.8,149.8,298.9,149.8z"/>
										<path class="st3" d="M319.9,151.5c0,0.2,0.1,0.3,0.1,0.5l0,0c0,1.3-1.1,2.3-2.4,2.3h-18.8c-1.3,0-2.4-1-2.4-2.3l0,0
											c0-0.2,0-0.4,0.1-0.5H319.9z"/>
									</g>
								</g>
							</g>
						</g>
						<g>
							<g>
								<rect x="23.9" y="184.8" class="st5" width="300" height="12.2"/>
								<rect x="23.9" y="179" class="st6" width="300" height="5.8"/>
								<rect x="23.9" y="178.5" class="st2" width="300" height="4"/>
							</g>
							<g>
								<path class="st2" d="M38.3,197v-6c0-2.9-4.1-5.7-5.8-4.8c-2.2,0.8-4,2.9-4,4.8v6H38.3z"/>
								<path class="st2" d="M51.7,197v-6c0-2.9-4.1-5.7-5.8-4.8c-2.2,0.8-4,2.9-4,4.8v6H51.7z"/>
								<path class="st2" d="M65.1,197v-6c0-2.9-4.1-5.7-5.8-4.8c-2.2,0.8-4,2.9-4,4.8v6H65.1z"/>
								<path class="st2" d="M78.5,197v-6c0-2.9-4.1-5.7-5.8-4.8c-2.2,0.8-4,2.9-4,4.8v6H78.5z"/>
								<path class="st2" d="M91.8,197v-6c0-2.9-4.1-5.7-5.8-4.8c-2.2,0.8-4,2.9-4,4.8v6H91.8z"/>
								<path class="st2" d="M105.2,197v-6c0-2.9-4.1-5.7-5.8-4.8c-2.2,0.8-4,2.9-4,4.8v6H105.2z"/>
								<path class="st2" d="M118.6,197v-6c0-2.9-4.1-5.7-5.8-4.8c-2.2,0.8-4,2.9-4,4.8v6H118.6z"/>
								<path class="st2" d="M131.9,197v-6c0-2.9-4.1-5.7-5.8-4.8c-2.2,0.8-4,2.9-4,4.8v6H131.9z"/>
								<path class="st2" d="M145.3,197v-6c0-2.9-4.1-5.7-5.8-4.8c-2.2,0.8-4,2.9-4,4.8v6H145.3z"/>
								<path class="st2" d="M158.7,197v-6c0-2.9-4.1-5.7-5.8-4.8c-2.2,0.8-4,2.9-4,4.8v6H158.7z"/>
								<path class="st2" d="M172.1,197v-6c0-2.9-4.1-5.7-5.8-4.8c-2.2,0.8-4,2.9-4,4.8v6H172.1z"/>
								<path class="st2" d="M185.4,197v-6c0-2.9-4.1-5.7-5.8-4.8c-2.2,0.8-4,2.9-4,4.8v6H185.4z"/>
								<path class="st2" d="M198.8,197v-6c0-2.9-4.1-5.7-5.8-4.8c-2.3,0.8-4,2.9-4,4.8v6H198.8z"/>
								<path class="st2" d="M212.2,197v-6c0-2.9-4.1-5.7-5.8-4.8c-2.2,0.8-4,2.9-4,4.8v6H212.2z"/>
								<path class="st2" d="M225.5,197v-6c0-2.9-4.1-5.7-5.8-4.8c-2.3,0.8-4,2.9-4,4.8v6H225.5z"/>
								<path class="st2" d="M238.9,197v-6c0-2.9-4.1-5.7-5.8-4.8c-2.2,0.8-4,2.9-4,4.8v6H238.9z"/>
								<path class="st2" d="M252.3,197v-6c0-2.9-4.1-5.7-5.8-4.8c-2.2,0.8-4,2.9-4,4.8v6H252.3z"/>
								<path class="st2" d="M265.7,197v-6c0-2.9-4.1-5.7-5.8-4.8c-2.2,0.8-4,2.9-4,4.8v6H265.7z"/>
								<path class="st2" d="M279,197v-6c0-2.9-4.1-5.7-5.8-4.8c-2.2,0.8-4,2.9-4,4.8v6H279z"/>
								<path class="st2" d="M292.4,197v-6c0-2.9-4.1-5.7-5.8-4.8c-2.3,0.8-4,2.9-4,4.8v6H292.4z"/>
								<path class="st2" d="M305.8,197v-6c0-2.9-4.1-5.7-5.8-4.8c-2.3,0.8-4,2.9-4,4.8v6H305.8z"/>
								<path class="st2" d="M319.1,197v-6c0-2.9-4.1-5.7-5.8-4.8c-2.2,0.8-4,2.9-4,4.8v6H319.1z"/>
								<rect x="23.9" y="196.6" class="st6" width="300" height="4"/>
							</g>
						</g>
					</g>
				</g>
			</g>
		</g>
	</g>
</g>
</svg>
