<svg xmlns="http://www.w3.org/2000/svg" xmlns:xlink="http://www.w3.org/1999/xlink" id="Layer_1" x="0" y="0" version="1.1" viewBox="0 0 256 256" xml:space="preserve" style="enable-background:new 0 0 256 256"><style type="text/css">.st0{fill:#d2d2ff}.st1{fill:#4444c6}.st2{fill:url(#SVGID_1_)}.st3{fill:url(#SVGID_2_)}.st4{fill:url(#SVGID_3_)}.st5{fill:url(#SVGID_4_)}.st6{fill:url(#SVGID_5_)}.st7{fill:url(#SVGID_6_)}.st8{fill:url(#SVGID_7_)}.st9{fill:url(#SVGID_8_)}.st10{fill:url(#SVGID_9_)}.st11{fill:url(#SVGID_10_)}.st12{opacity:.1;fill:#c2eaf5;enable-background:new}.st13{fill:#7878ff}.st14,.st15{enable-background:new}.st14{opacity:.3;fill:#fff}.st15{opacity:.2}.st16{fill:#4646b2}.st17{fill:#4e4ef2}.st18,.st19{opacity:.5;fill:#fff;enable-background:new}.st19{opacity:.2}</style><g><polygon points="84.1 216.9 22.5 155.4 22.5 68.3 84.1 6.7 171.2 6.7 232.8 68.3 232.8 155.4 171.2 216.9" class="st0"/><g><g><circle cx="202.1" cy="158.1" r="16" class="st1"/><linearGradient id="SVGID_1_" x1="209.257" x2="194.853" y1="168.618" y2="143.669" gradientTransform="matrix(0.944 0.3301 -0.3301 0.944 62.8719 -55.9484)" gradientUnits="userSpaceOnUse"><stop offset="0" style="stop-color:#9fc2ff"/><stop offset="1" style="stop-color:#d7e7ff"/></linearGradient><path d="M215.6,162.9c-0.8,2.2-2,4.1-3.5,5.5l0,0c-3.8,3.7-9.5,5.2-14.8,3.3l0,0c-5.3-1.9-8.9-6.6-9.5-11.8l0,0 c-0.3-2.1-0.1-4.4,0.7-6.5c2.6-7.5,10.8-11.5,18.3-8.8l0,0C214.3,147.2,218.3,155.4,215.6,162.9z" class="st2"/><path d="M211.3,167.9l-0.1,0.2L211,168c-0.9-0.3-1.2-0.4-1.3-0.5c-0.1,0-0.1,0-0.1,0c-0.1,0-0.4-0.1-1.5-0.5l-0.1,0 l0.1-0.2c0,0,0.3-0.8,0.2-1.8c0-0.6-0.1-1.1-0.4-1.7c-0.3-0.7-0.7-1.3-1.3-1.8c-1.1-1-1.9-1.9-2.4-2.7c-0.6-0.9-1.1-1.9-1.4-3.1 c-1,0.7-2,1.2-3.1,1.5c-1,0.3-2.1,0.5-3.6,0.6c-0.8,0.1-1.5,0.2-2.1,0.6c-0.5,0.3-0.9,0.6-1.3,1.1c-0.7,0.8-0.9,1.5-0.9,1.5 l-0.1,0.2l-0.2-0.1c-1.1-0.4-1.4-0.5-1.5-0.5s-0.1,0-0.1,0c-0.1,0-0.4-0.1-1.3-0.5l-0.2-0.1l0.1-0.2c0.5-1.5,1.5-2.9,2.9-4 c1.3-1,2.9-1.6,4.4-1.6c0.7,0,1.4-0.1,2-0.3c0.5-0.1,1-0.3,1.5-0.5c0.8-0.4,1.3-0.7,1.3-0.8c1.5-1.3,3-2.6,4.5-3.8 c0.4,1.9,0.8,3.9,1.1,5.8c0,0,0.1,0.6,0.5,1.4c0.3,0.5,0.5,0.9,0.8,1.4c0.4,0.5,0.9,1,1.4,1.4c1.1,0.9,2,2.4,2.4,4 S211.9,166.4,211.3,167.9z" class="st1"/></g><g><circle cx="179.2" cy="181" r="16" class="st1"/><linearGradient id="SVGID_2_" x1="186.324" x2="171.92" y1="191.454" y2="166.506" gradientTransform="matrix(0.9471 0.3211 -0.3211 0.9471 66.9558 -46.0645)" gradientUnits="userSpaceOnUse"><stop offset="0" style="stop-color:#9fc2ff"/><stop offset="1" style="stop-color:#d7e7ff"/></linearGradient><path d="M192.8,185.6c-0.7,2.2-1.9,4.1-3.5,5.6l0,0c-3.7,3.7-9.4,5.2-14.8,3.4l0,0c-5.4-1.8-8.9-6.5-9.7-11.7l0,0 c-0.3-2.1-0.1-4.4,0.6-6.5c2.6-7.5,10.7-11.6,18.3-9l0,0C191.3,169.9,195.4,178,192.8,185.6z" class="st3"/><path d="M188.5,190.7l-0.1,0.2l-0.2-0.1c-0.9-0.3-1.2-0.4-1.3-0.4s-0.1,0-0.1,0c-0.1,0-0.4-0.1-1.5-0.5l-0.2-0.1 l0.1-0.2c0,0,0.3-0.8,0.2-1.8c0-0.6-0.1-1.1-0.4-1.7c-0.3-0.7-0.7-1.3-1.3-1.7c-1.2-1-1.9-1.8-2.5-2.7s-1.1-1.9-1.4-3.1 c-1,0.7-2,1.2-3,1.6c-1,0.3-2,0.5-3.6,0.6c-0.8,0.1-1.5,0.3-2.1,0.6c-0.5,0.3-0.9,0.7-1.3,1.1c-0.6,0.8-0.9,1.5-0.9,1.5l-0.1,0.2 l-0.2-0.1c-1.1-0.4-1.4-0.5-1.5-0.5s-0.1,0-0.1,0c-0.1,0-0.4-0.1-1.3-0.4l-0.2-0.1l0.1-0.2c0.5-1.5,1.5-2.9,2.9-4 c1.3-1.1,2.9-1.6,4.4-1.7c0.7,0,1.3-0.1,2-0.3c0.5-0.1,1-0.3,1.5-0.5c0.8-0.4,1.3-0.7,1.3-0.8c1.5-1.3,3-2.6,4.5-3.9 c0.4,1.9,0.8,3.9,1.2,5.8c0,0,0.1,0.6,0.5,1.4c0.3,0.5,0.5,0.9,0.9,1.3c0.4,0.5,0.9,1,1.4,1.4c1.2,0.9,2.1,2.3,2.5,4 C189.2,187.4,189.1,189.2,188.5,190.7z" class="st1"/></g><g><circle cx="151.4" cy="197" r="16" class="st1"/><linearGradient id="SVGID_3_" x1="158.583" x2="144.179" y1="207.432" y2="182.483" gradientTransform="matrix(0.3948 -0.9188 0.9188 0.3948 -87.5316 259.0672)" gradientUnits="userSpaceOnUse"><stop offset="0" style="stop-color:#9fc2ff"/><stop offset="1" style="stop-color:#d7e7ff"/></linearGradient><path d="M157.1,183.7c2.1,0.9,3.9,2.3,5.3,3.9l0,0c3.4,4,4.5,9.8,2.3,15l0,0c-2.2,5.2-7.2,8.4-12.4,8.7l0,0 c-2.1,0.1-4.3-0.2-6.5-1.2c-7.3-3.1-10.7-11.6-7.5-18.9l0,0C141.3,184,149.7,180.6,157.1,183.7z" class="st4"/><path d="M161.8,188.4l0.2,0.1l-0.1,0.2c-0.4,0.9-0.5,1.2-0.5,1.3s0,0.1,0,0.1c0,0.1-0.2,0.4-0.6,1.4l-0.1,0.2 l-0.2-0.1c0,0-0.7-0.4-1.7-0.4c-0.6,0-1.1,0.1-1.7,0.2c-0.7,0.2-1.3,0.6-1.8,1.1c-1.1,1.1-2,1.7-2.9,2.3c-1,0.5-2,0.9-3.2,1.2 c0.7,1.1,1.1,2.1,1.3,3.2c0.2,1,0.3,2.1,0.3,3.6c0,0.8,0.1,1.5,0.4,2.1c0.2,0.5,0.6,1,1,1.4c0.7,0.7,1.5,1,1.5,1l0.2,0.1 l-0.1,0.2c-0.5,1.1-0.6,1.3-0.6,1.4c0,0.1,0,0.1,0,0.1c0,0.1-0.2,0.4-0.5,1.3l-0.1,0.2l-0.2-0.1c-1.5-0.6-2.8-1.7-3.8-3.2 c-0.9-1.4-1.4-3-1.3-4.5c0.1-0.7,0-1.4-0.1-2c-0.1-0.5-0.2-1-0.4-1.5c-0.3-0.8-0.6-1.3-0.7-1.3c-1.2-1.6-2.3-3.2-3.5-4.8 c2-0.2,3.9-0.5,5.9-0.7c0,0,0.6-0.1,1.4-0.4c0.5-0.2,1-0.4,1.4-0.8c0.6-0.4,1.1-0.8,1.5-1.3c1-1.1,2.5-1.9,4.2-2.2 C158.6,187.5,160.3,187.7,161.8,188.4z" class="st1"/></g><g><circle cx="119.2" cy="197" r="16" class="st1"/><linearGradient id="SVGID_4_" x1="126.425" x2="112.021" y1="207.454" y2="182.506" gradientTransform="matrix(0.8128 0.5825 -0.5825 0.8128 135.8789 -30.9302)" gradientUnits="userSpaceOnUse"><stop offset="0" style="stop-color:#9fc2ff"/><stop offset="1" style="stop-color:#d7e7ff"/></linearGradient><path d="M130.9,205.4c-1.3,1.9-3,3.3-4.9,4.3l0,0c-4.7,2.5-10.6,2.3-15.2-1l0,0c-4.6-3.3-6.6-8.8-5.8-14l0,0 c0.3-2.1,1.2-4.2,2.5-6.1c4.6-6.5,13.6-8,20.1-3.3l0,0C134.1,189.9,135.5,198.9,130.9,205.4z" class="st5"/><path d="M125.3,209l-0.1,0.1l-0.1-0.1c-0.8-0.6-1-0.7-1.1-0.8c-0.1,0-0.1,0-0.1-0.1c-0.1-0.1-0.3-0.2-1.3-0.9 l-0.1-0.1l0.1-0.1c0,0,0.5-0.6,0.7-1.6c0.1-0.6,0.2-1.1,0.1-1.7c-0.1-0.7-0.3-1.4-0.7-2c-0.8-1.3-1.3-2.3-1.6-3.3 c-0.3-1.1-0.5-2.1-0.5-3.4c-1.2,0.4-2.3,0.6-3.4,0.6c-1,0-2.1-0.1-3.6-0.4c-0.8-0.2-1.5-0.2-2.2,0c-0.6,0.1-1.1,0.4-1.6,0.7 c-0.8,0.6-1.3,1.2-1.3,1.2l-0.1,0.1l-0.1-0.1c-1-0.7-1.2-0.8-1.3-0.9c-0.1,0-0.1,0-0.1-0.1c-0.1-0.1-0.3-0.2-1.1-0.8l-0.1-0.1 l0.1-0.1c0.9-1.3,2.3-2.4,3.9-3s3.2-0.7,4.7-0.3c0.6,0.2,1.3,0.3,2,0.3c0.5,0,1,0,1.6-0.1c0.9-0.1,1.4-0.3,1.4-0.4 c1.8-0.8,3.6-1.6,5.4-2.4c-0.2,2-0.4,3.9-0.6,5.9c0,0-0.1,0.6,0.1,1.5c0.1,0.5,0.2,1,0.4,1.5c0.3,0.6,0.6,1.2,0.9,1.8 c0.8,1.2,1.3,2.8,1.2,4.5C126.9,206,126.3,207.7,125.3,209z" class="st1"/></g><g><circle cx="87.7" cy="191.4" r="16" class="st1"/><linearGradient id="SVGID_5_" x1="94.897" x2="80.493" y1="201.836" y2="176.887" gradientTransform="matrix(-0.8983 -0.4395 0.4395 -0.8983 83.216 400.0178)" gradientUnits="userSpaceOnUse"><stop offset="0" style="stop-color:#9fc2ff"/><stop offset="1" style="stop-color:#d7e7ff"/></linearGradient><path d="M74.7,185c1-2.1,2.4-3.8,4.2-5.1l0,0c4.2-3.2,10-4,15.1-1.5l0,0c5.1,2.5,8,7.6,8.1,12.9l0,0 c0,2.1-0.5,4.3-1.5,6.4c-3.5,7.2-12.1,10.1-19.3,6.6l0,0C74.2,200.8,71.2,192.2,74.7,185z" class="st6"/><path d="M79.6,180.5l0.1-0.2l0.2,0.1c0.9,0.4,1.1,0.6,1.2,0.6s0.1,0,0.1,0c0.1,0,0.4,0.2,1.4,0.7l0.2,0.1l-0.1,0.2 c0,0-0.4,0.7-0.4,1.7c0,0.6,0,1.1,0.2,1.7c0.2,0.7,0.5,1.3,1.1,1.9c1,1.2,1.6,2.1,2.1,3c0.5,1,0.8,2,1,3.2c1.1-0.6,2.1-1,3.2-1.2 c1-0.2,2.1-0.2,3.6-0.2c0.8,0,1.5-0.1,2.1-0.3c0.5-0.2,1-0.5,1.4-0.9c0.7-0.7,1.1-1.4,1.1-1.4l0.1-0.2l0.2,0.1 c1.1,0.5,1.3,0.6,1.4,0.7c0.1,0,0.1,0,0.1,0c0.1,0,0.4,0.2,1.2,0.6l0.2,0.1l-0.1,0.2c-0.7,1.5-1.9,2.7-3.3,3.6 c-1.5,0.9-3.1,1.3-4.6,1.1c-0.7-0.1-1.4-0.1-2,0c-0.5,0.1-1,0.2-1.6,0.3c-0.8,0.3-1.3,0.6-1.4,0.6c-1.6,1.1-3.3,2.2-4.9,3.3 c-0.1-2-0.3-3.9-0.4-5.9c0,0-0.1-0.6-0.4-1.4c-0.2-0.5-0.4-1-0.7-1.4c-0.4-0.6-0.8-1.1-1.2-1.6c-1-1.1-1.7-2.6-1.9-4.3 C78.6,183.7,78.9,182,79.6,180.5z" class="st1"/></g><g><circle cx="64.4" cy="169.4" r="16" class="st1"/><linearGradient id="SVGID_6_" x1="71.611" x2="57.207" y1="179.905" y2="154.956" gradientTransform="matrix(-9.409564e-02 -0.9956 0.9956 -9.409564e-02 -96.2256 249.3409)" gradientUnits="userSpaceOnUse"><stop offset="0" style="stop-color:#9fc2ff"/><stop offset="1" style="stop-color:#d7e7ff"/></linearGradient><path d="M63.1,155.1c2.3-0.2,4.5,0.1,6.5,0.9l0,0c4.9,1.9,8.6,6.5,9.2,12.1l0,0c0.5,5.6-2.3,10.8-6.8,13.6l0,0 c-1.8,1.1-3.9,1.9-6.2,2.1c-7.9,0.7-14.9-5.1-15.7-13l0,0C49.3,162.9,55.1,155.9,63.1,155.1z" class="st7"/><path d="M69.5,156.9h0.2v0.2c0.1,1,0.1,1.3,0.1,1.4c0,0.1,0,0.1,0,0.1c0,0.1,0,0.4,0.1,1.6v0.2h-0.2 c0,0-0.8,0-1.7,0.5c-0.5,0.3-1,0.6-1.4,1c-0.5,0.5-0.9,1.2-1.1,1.9c-0.5,1.5-0.9,2.5-1.4,3.3c-0.6,0.9-1.3,1.8-2.2,2.6 c1.1,0.6,1.9,1.3,2.7,2.1c0.7,0.8,1.3,1.7,2,3c0.4,0.7,0.8,1.2,1.4,1.7c0.5,0.3,1,0.6,1.5,0.7c1,0.3,1.8,0.2,1.8,0.2h0.2v0.2 c0.1,1.2,0.1,1.5,0.1,1.6s0,0.1,0,0.1c0,0.1,0,0.4,0.1,1.4v0.2h-0.2c-1.6,0.2-3.3-0.2-4.8-1s-2.7-2-3.3-3.3 c-0.3-0.6-0.6-1.2-1.1-1.7c-0.3-0.4-0.7-0.8-1.1-1.1c-0.7-0.6-1.2-0.9-1.2-0.8c-1.8-0.8-3.6-1.7-5.4-2.5c1.6-1.2,3.2-2.3,4.8-3.5 c0,0,0.5-0.4,1-1.1c0.3-0.4,0.6-0.8,0.9-1.3c0.3-0.6,0.5-1.2,0.7-1.9c0.4-1.4,1.3-2.8,2.6-3.9C65.9,157.7,67.9,157,69.5,156.9z" class="st1"/></g><g><circle cx="170.9" cy="150.3" r="16" class="st1"/><linearGradient id="SVGID_7_" x1="178.065" x2="163.667" y1="160.725" y2="135.787" gradientTransform="matrix(0.3289 0.9444 -0.9444 0.3289 254.698 -59.8693)" gradientUnits="userSpaceOnUse"><stop offset="0" style="stop-color:#9fc2ff"/><stop offset="1" style="stop-color:#d7e7ff"/></linearGradient><path d="M175.6,163.9c-2.2,0.8-4.4,1-6.5,0.7l0,0c-5.2-0.7-9.9-4.2-11.8-9.6l0,0c-1.9-5.3-0.4-11,3.3-14.8l0,0 c1.5-1.5,3.4-2.8,5.6-3.5c7.5-2.6,15.7,1.3,18.3,8.9l0,0C187.1,153,183.1,161.2,175.6,163.9z" class="st8"/><path d="M169,163.6l-0.2,0.1l-0.1-0.2c-0.3-0.9-0.4-1.2-0.5-1.3c0-0.1,0-0.1,0-0.1c0-0.1-0.1-0.4-0.5-1.5l-0.1-0.2 l0.2-0.1c0,0,0.8-0.2,1.5-0.9c0.4-0.4,0.8-0.8,1.1-1.3c0.4-0.6,0.6-1.3,0.6-2.1c0.1-1.5,0.3-2.6,0.6-3.6c0.3-1.1,0.8-2,1.5-3 c-1.2-0.3-2.2-0.8-3.1-1.4c-0.8-0.6-1.7-1.3-2.7-2.4c-0.5-0.6-1.1-1-1.8-1.3c-0.5-0.2-1.1-0.3-1.7-0.4c-1,0-1.8,0.2-1.8,0.2 l-0.2,0.1l-0.1-0.2c-0.4-1.1-0.5-1.4-0.5-1.5s0-0.1,0-0.1c0-0.1-0.1-0.4-0.5-1.3l-0.1-0.2l0.2-0.1c1.5-0.6,3.2-0.6,4.9-0.2 c1.6,0.4,3.1,1.3,4,2.4c0.4,0.5,0.9,1,1.4,1.4c0.4,0.3,0.9,0.6,1.3,0.8c0.8,0.4,1.4,0.5,1.4,0.5c1.9,0.4,3.9,0.8,5.8,1.1 c-1.3,1.5-2.6,3-3.9,4.5c0,0-0.4,0.5-0.8,1.3c-0.2,0.5-0.4,1-0.5,1.5c-0.1,0.7-0.2,1.3-0.3,2c0,1.5-0.6,3.1-1.6,4.4 S170.5,163.1,169,163.6z" class="st1"/></g><g><circle cx="142.9" cy="166" r="16" class="st1"/><linearGradient id="SVGID_8_" x1="150.194" x2="135.799" y1="176.502" y2="151.569" gradientTransform="matrix(0.989 0.1478 -0.1478 0.989 25.8115 -17.3293)" gradientUnits="userSpaceOnUse"><stop offset="0" style="stop-color:#9fc2ff"/><stop offset="1" style="stop-color:#d7e7ff"/></linearGradient><path d="M157.2,168.2c-0.3,2.3-1.2,4.4-2.4,6.1l0,0c-3,4.3-8.4,6.8-13.9,6l0,0c-5.6-0.8-9.9-4.8-11.6-9.8l0,0 c-0.7-2-0.9-4.3-0.5-6.6c1.2-7.9,8.5-13.3,16.4-12.1l0,0C153,153,158.4,160.3,157.2,168.2z" class="st9"/><path d="M153.9,173.9v0.2h-0.2c-1-0.1-1.3-0.2-1.4-0.2c-0.1,0-0.1,0-0.1,0c-0.1,0-0.4-0.1-1.5-0.2h-0.2v-0.2 c0,0,0.2-0.8-0.1-1.8c-0.1-0.6-0.3-1.1-0.7-1.6c-0.4-0.6-0.9-1.1-1.6-1.5c-1.3-0.8-2.2-1.5-2.9-2.2c-0.8-0.8-1.4-1.7-2-2.8 c-0.9,0.9-1.7,1.6-2.7,2.1c-0.9,0.5-1.9,0.9-3.4,1.2c-0.8,0.2-1.4,0.5-1.9,1c-0.4,0.4-0.8,0.8-1.1,1.3c-0.5,0.9-0.6,1.7-0.6,1.7 v0.2h-0.2c-1.2-0.2-1.4-0.2-1.5-0.2s-0.1,0-0.1,0c-0.1,0-0.4-0.1-1.4-0.2h-0.2v-0.2c0.2-1.6,0.9-3.2,2.1-4.4 c1.1-1.3,2.5-2.1,4-2.4c0.7-0.1,1.3-0.3,1.9-0.6c0.5-0.2,0.9-0.5,1.4-0.8c0.7-0.5,1.1-0.9,1.1-1c1.2-1.5,2.5-3.1,3.7-4.6 c0.7,1.8,1.5,3.7,2.2,5.5c0,0,0.2,0.6,0.8,1.3c0.3,0.4,0.7,0.8,1.1,1.2c0.5,0.4,1.1,0.8,1.6,1.1c1.3,0.7,2.4,1.9,3.1,3.5 C153.9,170.6,154.2,172.4,153.9,173.9z" class="st1"/></g><g><circle cx="111.5" cy="166.3" r="16" class="st1"/><linearGradient id="SVGID_9_" x1="118.732" x2="104.34" y1="176.711" y2="151.783" gradientTransform="matrix(0.6787 -0.7344 0.7344 0.6787 -84.8047 136.658)" gradientUnits="userSpaceOnUse"><stop offset="0" style="stop-color:#9fc2ff"/><stop offset="1" style="stop-color:#d7e7ff"/></linearGradient><path d="M121.3,155.7c1.7,1.6,2.9,3.4,3.7,5.4l0,0c1.9,4.9,1,10.8-2.9,14.9l0,0c-3.8,4.2-9.5,5.5-14.6,4l0,0 c-2.1-0.6-4-1.7-5.7-3.2c-5.8-5.4-6.2-14.5-0.8-20.3l0,0C106.3,150.6,115.4,150.3,121.3,155.7z" class="st10"/><path d="M124.2,161.7l0.1,0.1l-0.1,0.1c-0.7,0.7-0.9,0.9-0.9,1s0,0.1-0.1,0.1c-0.1,0.1-0.3,0.3-1.1,1.1l-0.1,0.1 l-0.1-0.1c0,0-0.6-0.6-1.5-0.9c-0.5-0.2-1.1-0.3-1.7-0.3c-0.7,0-1.4,0.1-2.1,0.5c-1.4,0.6-2.5,1-3.5,1.2 c-1.1,0.2-2.2,0.2-3.4,0.1c0.3,1.2,0.3,2.3,0.2,3.4c-0.1,1-0.4,2.1-0.9,3.5c-0.2,0.7-0.4,1.4-0.3,2.2c0,0.6,0.2,1.1,0.5,1.6 c0.5,0.9,1,1.4,1,1.4l0.1,0.1l-0.1,0.1c-0.8,0.9-1,1.1-1.1,1.1c0,0.1,0,0.1-0.1,0.1c-0.1,0.1-0.3,0.3-0.9,1l-0.1,0.1l-0.1-0.1 c-1.2-1.1-2.1-2.6-2.5-4.2c-0.4-1.6-0.3-3.3,0.3-4.7c0.3-0.6,0.5-1.3,0.6-1.9c0.1-0.5,0.1-1,0.1-1.6c0-0.9-0.2-1.5-0.2-1.5 c-0.6-1.9-1.2-3.8-1.7-5.7c1.9,0.4,3.9,0.9,5.8,1.3c0,0,0.6,0.1,1.5,0.1c0.5,0,1.1-0.1,1.6-0.2c0.6-0.2,1.3-0.4,1.9-0.7 c1.3-0.7,3-0.9,4.7-0.6C121.4,159.8,123,160.5,124.2,161.7z" class="st1"/></g><g><circle cx="86.4" cy="146.3" r="16" class="st1"/><linearGradient id="SVGID_10_" x1="93.614" x2="79.211" y1="156.804" y2="131.857" gradientTransform="matrix(0.9716 0.2365 -0.2365 0.9716 36.5874 -14.3304)" gradientUnits="userSpaceOnUse"><stop offset="0" style="stop-color:#9fc2ff"/><stop offset="1" style="stop-color:#d7e7ff"/></linearGradient><path d="M100.4,149.8c-0.5,2.2-1.6,4.2-3,5.9l0,0c-3.4,4-8.9,6.1-14.4,4.7l0,0c-5.5-1.3-9.5-5.7-10.6-10.8l0,0 c-0.5-2.1-0.5-4.3,0.1-6.6c1.9-7.7,9.7-12.5,17.4-10.6l0,0C97.5,134.2,102.3,142,100.4,149.8z" class="st11"/><path d="M96.6,155.2v0.2h-0.2c-1-0.2-1.2-0.3-1.3-0.3c-0.1,0-0.1,0-0.1,0c-0.1,0-0.4-0.1-1.5-0.4h-0.2v-0.2 c0,0,0.2-0.8,0.1-1.8c-0.1-0.6-0.2-1.1-0.5-1.6c-0.3-0.6-0.8-1.2-1.4-1.6c-1.2-0.9-2-1.7-2.7-2.4c-0.7-0.9-1.2-1.8-1.7-2.9 c-0.9,0.8-1.9,1.4-2.9,1.8c-0.9,0.4-2,0.7-3.5,0.9c-0.8,0.1-1.4,0.4-2,0.8c-0.5,0.3-0.9,0.7-1.2,1.2c-0.6,0.8-0.8,1.6-0.8,1.6 v0.2h-0.2c-1.1-0.3-1.4-0.3-1.5-0.4c-0.1,0-0.1,0-0.1,0c-0.1,0-0.4-0.1-1.3-0.3h-0.2v-0.2c0.3-1.6,1.2-3.1,2.5-4.2 c1.2-1.2,2.7-1.9,4.2-2c0.7-0.1,1.3-0.2,1.9-0.4c0.5-0.2,1-0.4,1.4-0.7c0.8-0.4,1.2-0.8,1.2-0.9c1.4-1.4,2.7-2.8,4.1-4.3 c0.6,1.9,1.1,3.8,1.7,5.7c0,0,0.2,0.6,0.7,1.3c0.3,0.4,0.6,0.9,1,1.3c0.5,0.5,1,0.9,1.5,1.3c1.2,0.8,2.3,2.2,2.8,3.8 C96.9,151.9,97,153.6,96.6,155.2z" class="st1"/></g></g><polygon points="84.1 216.9 22.5 155.4 22.5 68.3 84.1 6.7 171.2 6.7 232.8 68.3 232.8 155.4 171.2 216.9" class="st12"/><path d="M172.7,3.1H82.6L18.9,66.8v90.1l55,55l8.7,8.7h90.1l13-13l50.7-50.7V66.8L172.7,3.1z M229.2,153.9l-39.7,39.7 l-7.8,7.8l-12.1,12.1h-84l-7.7-7.7l-7.8-7.8L26,153.9V69.7l59.5-59.5h84.1l59.5,59.5L229.2,153.9L229.2,153.9z" class="st13"/><polygon points="19.7 68.9 83.4 5.2 173.4 5.2 236.3 68.1 236.3 66.8 172.7 3.1 82.6 3.1 18.9 66.8 18.9 156.8 19.7 157.6" class="st14"/><polygon points="172.8 7.4 138.8 89.4 130.9 108.5 129.9 110.8 129.6 111.8 129.3 112.5 127.6 111.8 126 111.1 126.3 110.4 126.7 109.5 127.6 107.2 135.5 88.1 169.5 6" class="st13"/><polygon points="233.5 69.9 151.4 103.9 132.3 111.8 132.3 111.8 129.9 112.8 129 113.2 128.3 113.5 128.3 113.4 127.6 111.8 127.6 111.8 126.9 110.2 127.6 109.9 128.6 109.5 130.9 108.5 150 100.6 232.1 66.6" class="st13"/><polygon points="233.5 153.7 232.1 157 150 123 130.9 115.1 128.6 114.2 127.6 113.7 126.9 113.5 126.9 113.4 127.6 111.8 127.6 111.8 128.3 110.2 129 110.4 129.9 110.8 132.3 111.8 132.3 111.8 151.4 119.7" class="st13"/><polygon points="172.8 216.3 169.5 217.6 135.5 135.5 127.6 116.4 126.7 114.1 126.3 113.2 126 112.5 127.6 111.8 129.3 111.1 129.6 111.8 129.9 112.8 130.9 115.1 138.8 134.2" class="st13"/><polygon points="129.3 112.5 129 113.2 128.6 114.2 127.6 116.4 119.7 135.5 85.7 217.6 82.4 216.3 116.4 134.2 124.3 115.1 125.3 112.8 125.7 111.8 126 111.1 127.6 111.8" class="st13"/><polygon points="128.3 113.4 127.6 113.7 126.7 114.1 124.3 115.1 105.2 123 23.2 157 21.8 153.7 103.9 119.7 123 111.8 125.3 110.8 126.3 110.4 126.9 110.2 127.6 111.8 127.6 111.8" class="st13"/><polygon points="128.3 110.2 127.6 111.8 127.6 111.8 126.9 113.4 126.3 113.2 125.3 112.8 123 111.8 103.9 103.9 21.8 69.9 23.2 66.6 105.3 100.6 124.3 108.5 126.7 109.5 127.6 109.9" class="st13"/><polygon points="129.3 111.1 127.6 111.8 126 112.5 125.7 111.8 125.3 110.8 124.3 108.5 116.4 89.4 82.4 7.4 85.7 6 119.7 88.1 127.6 107.2 128.6 109.5 129 110.4" class="st13"/><path d="M132.3,111.8l19,7.9c-0.3,1.1-0.8,2.3-1.4,3.3l-19.1-7.9l7.9,19.1c-1,0.5-2.1,1-3.3,1.4l-7.9-19.1l-7.9,19.1 c-1.1-0.4-2.3-0.8-3.3-1.4l7.9-19.1l-19.1,7.9c-0.5-1-1-2.1-1.4-3.3l19.1-7.9l-19.1-7.9c0.4-1.1,0.8-2.3,1.4-3.3l19.1,7.9 l-7.9-19.1c1-0.6,2.1-1,3.3-1.4l7.9,19.1l7.9-19.1c1.1,0.3,2.3,0.8,3.3,1.4l-7.9,19.1l19.1-7.9c0.5,1.1,1,2.2,1.4,3.3L132.3,111.8z" class="st15"/><polygon points="170.4 215.5 229.9 156 229.9 71.8 229.2 71.1 229.2 153.9 169.7 213.4 85.6 213.4 26.8 154.6 26.8 156 86.3 215.5" class="st14"/><path d="M189.5,193.6l-39.7-62.4l-18.6-29.3l-18.6,29.3L70.1,198l-3.9,6.2L74,212l3.9-6.2l43.8-68.8l9.6-15l9.5,15 l41,64.5l3.9,6.2l7.8-7.8L189.5,193.6z" class="st15"/><path d="M221.5,249.5l-8.4-13.3l-66.8-105.1l-18.6-29.3L109,131.1L42.2,236.2l-8.4,13.3l-2.3,3.6h192.3L221.5,249.5z M118.1,136.8l9.6-15l9.5,15l63.2,99.4l3.9,6.1H51l3.9-6.1L118.1,136.8z" class="st16"/><path d="M146.2,131.1c-2.6,2.5-5.6,4.5-9.1,5.7l-9.5-15l-9.6,15c-3.4-1.3-6.5-3.2-9-5.7l18.6-29.3L146.2,131.1z" class="st15"/><path d="M150.9,111.8c0,12.8-10.4,23.2-23.2,23.2s-23.3-10.4-23.3-23.2s10.4-23.2,23.3-23.2 C140.5,88.6,150.9,99,150.9,111.8z" class="st16"/><path d="M145.5,111.8c0,9.9-8,17.9-17.9,17.9c-4.3,0-8.2-1.5-11.3-4c-4-3.3-6.6-8.3-6.6-13.8c0-9.9,8-17.9,17.9-17.9 c5.5,0,10.5,2.5,13.8,6.5C144,103.5,145.5,107.5,145.5,111.8z" class="st17"/><path d="M123.2,107c-4,3.4-8.2,4.8-9.5,3.3s0.9-5.4,4.9-8.8s8.2-4.8,9.5-3.3C129.3,99.7,127.1,103.6,123.2,107z" class="st18"/><polygon points="221.5 249.5 33.8 249.5 42.2 236.2 54.9 236.2 51 242.4 204.2 242.4 200.3 236.2 213 236.2" class="st15"/><rect width="192.3" height="13.3" x="31.5" y="239.8" class="st16"/><path d="M141.4,100.4c-2.6,12.6-12.5,22.6-25.1,25.2c-4-3.3-6.6-8.3-6.6-13.8c0-9.9,8-17.9,17.9-17.9 C133.2,93.9,138.1,96.5,141.4,100.4z" class="st19"/><polygon points="56.7 179.5 56.2 82.6 99.2 39.6 195.2 39.6 171.3 15.7 89.4 15.7 31.4 73.6 31.4 155.5" class="st14"/></g></svg>