<?xml version="1.0" encoding="utf-8"?>
<!-- Generator: Adobe Illustrator 23.0.5, SVG Export Plug-In . SVG Version: 6.00 Build 0)  -->
<svg version="1.1" id="Layer_1" xmlns:v="https://vecta.io/nano"
	 xmlns="http://www.w3.org/2000/svg" xmlns:xlink="http://www.w3.org/1999/xlink" x="0px" y="0px" viewBox="0 0 250 84"
	 style="enable-background:new 0 0 250 84;" xml:space="preserve">
<style type="text/css">
	.st0{opacity:0.9;}
	.st1{fill:#4444C6;}
	.st2{fill:url(#SVGID_1_);}
	.st3{fill:url(#SVGID_2_);}
	.st4{fill:#FFFFFF;}
	.st5{opacity:0.1;fill:#242628;enable-background:new    ;}
	.st6{fill:#282E5B;}
	.st7{fill:#059BDC;}
</style>
<g class="st0">
	<g>
		<path id="C" class="st1" d="M84.7,60.4c0,4.1-2.2,7.4-4.9,7.4c-2.7,0-4.9-3.3-4.9-7.4s2.2-7.4,4.9-7.4
			C82.5,53,84.7,56.3,84.7,60.4z"/>
	</g>
	<g>
		<path class="st1" d="M106,60.4c0,4.1-2.2,7.4-4.9,7.4c-2.7,0-4.9-3.3-4.9-7.4s2.2-7.4,4.9-7.4C103.8,53,106,56.3,106,60.4z"/>
	</g>
	<path class="st1" d="M137.9,66.9v0.7h-0.7c-3.9,0-5,0-5.4,0c-0.3,0-0.3,0-0.5,0c-0.4,0-1.5,0-6.3,0.1h-0.7v-0.7
		c0,0,0.1-3.1-1.4-6.9c-0.8-2.2-2-4.2-3.5-5.8c-1.8-2.1-4.2-3.7-7-5c-5.6-2.4-9.4-4.5-12.7-6.9c-3.5-2.6-6.5-5.7-9.3-9.7
		c-2.8,4-5.8,7.2-9.3,9.8c-3.3,2.4-7.1,4.5-12.7,6.9c-2.8,1.2-5.1,2.8-7,5c-1.5,1.7-2.7,3.7-3.5,5.8c-1.5,3.7-1.4,6.9-1.4,6.9v0.7
		h-0.7c-4.7,0-5.8-0.1-6.3-0.1c-0.2,0-0.2,0-0.5,0c-0.4,0-1.5,0-5.4,0h-0.7v-0.7c-0.1-6.4,1.9-13,5.5-18.6
		c3.7-5.6,8.8-9.9,14.3-11.8c2.5-0.9,4.8-2,7.1-3.5c1.8-1.2,3.4-2.5,4.9-3.9c2.5-2.4,3.8-4.4,3.8-4.5c3.9-6.7,7.8-13.5,11.8-20.2
		c3.9,6.7,7.8,13.4,11.8,20.2c0.1,0.1,1.3,2.1,3.8,4.5c1.5,1.5,3.1,2.8,4.9,3.9c2.2,1.5,4.6,2.6,7.1,3.5c5.5,2,10.7,6.1,14.3,11.8
		C136,53.9,138,60.6,137.9,66.9z"/>
	<linearGradient id="SVGID_1_" gradientUnits="userSpaceOnUse" x1="193.4398" y1="72.8184" x2="165.9352" y2="25.179">
		<stop  offset="0" style="stop-color:#76A4FF"/>
		<stop  offset="1" style="stop-color:#D7E7FF"/>
	</linearGradient>
	<circle class="st2" cx="179.7" cy="49" r="27.5"/>
	<linearGradient id="SVGID_2_" gradientUnits="userSpaceOnUse" x1="192.0645" y1="70.4364" x2="167.3104" y2="27.561">
		<stop  offset="0" style="stop-color:#9FC2FF"/>
		<stop  offset="1" style="stop-color:#D7E7FF"/>
	</linearGradient>
	<path class="st3" d="M204.4,49c0,3.9-0.9,7.7-2.6,11c0,0,0,0,0,0c-4.1,8.1-12.5,13.7-22.2,13.7h0c-9.7,0-18.1-5.6-22.2-13.7
		c0,0,0,0,0,0c-1.6-3.3-2.6-7-2.6-11c0-13.7,11.1-24.7,24.7-24.8h0C193.4,24.3,204.4,35.3,204.4,49z"/>
	<path class="st1" d="M200.3,59.7l0,0.3l-0.3,0c-1.7,0-2.2,0-2.4,0c-0.1,0-0.1,0-0.2,0c-0.2,0-0.7,0-2.7,0l-0.3,0l0-0.3
		c0,0,0-1.4-0.6-3c-0.4-0.9-0.9-1.8-1.5-2.5c-0.8-0.9-1.8-1.6-3-2.2c-2.4-1-4.1-1.9-5.5-3c-1.5-1.1-2.8-2.5-4.1-4.2
		c-1.2,1.7-2.5,3.1-4.1,4.2c-1.4,1.1-3.1,2-5.5,3c-1.2,0.5-2.2,1.2-3,2.2c-0.6,0.7-1.2,1.6-1.5,2.5c-0.6,1.6-0.6,3-0.6,3l0,0.3
		l-0.3,0c-2,0-2.5,0-2.7,0c-0.1,0-0.1,0-0.2,0c-0.2,0-0.7,0-2.4,0l-0.3,0l0-0.3c0-2.8,0.8-5.6,2.4-8.1c1.6-2.5,3.8-4.3,6.2-5.1
		c1.1-0.4,2.1-0.9,3.1-1.5c0.8-0.5,1.5-1.1,2.1-1.7c1.1-1,1.6-1.9,1.7-2c1.7-2.9,3.4-5.9,5.1-8.8c1.7,2.9,3.4,5.8,5.1,8.8
		c0,0,0.6,0.9,1.7,2c0.7,0.6,1.4,1.2,2.1,1.7c1,0.6,2,1.1,3.1,1.5c2.4,0.9,4.6,2.7,6.2,5.1C199.5,54,200.4,56.9,200.3,59.7z"/>
	<path class="st4" d="M172.8,49c0,4.9-1.2,9.5-3.2,13.6l0,0c-5,10.1-15.3,17-27.4,17l0,0c-12,0-22.3-6.9-27.4-17l0,0
		c-2-4.1-3.2-8.7-3.2-13.6c0-16.8,13.7-30.6,30.6-30.6l0,0C159.2,18.4,172.8,32.2,172.8,49z"/>
	<path class="st5" d="M142.3,18.4c-16.8,0-30.6,13.7-30.6,30.6s13.7,30.6,30.6,30.6s30.6-13.7,30.6-30.6S159.1,18.4,142.3,18.4z
		 M166.9,61.2c-4.5,9-13.9,15.3-24.7,15.3l0,0c-10.8,0-20.1-6.2-24.7-15.3l0,0c-1.8-3.7-2.9-7.8-2.9-12.2
		c0-15.2,12.3-27.5,27.5-27.5l0,0c15.2,0,27.5,12.3,27.5,27.5C169.8,53.4,168.7,57.6,166.9,61.2L166.9,61.2z"/>
	<path class="st6" d="M146.5,40.9c0-6-2.9-11.2-5.2-13c0,0-0.1-0.1-0.1,0.1c-0.2,11.7-6.1,14.9-9.4,19.1c-7.5,9.8-0.5,20.6,6.6,22.6
		c4,1.1-1-2-1.6-8.5C136.2,53.4,146.5,47.4,146.5,40.9"/>
	<path class="st7" d="M150.5,44.9c0,0-0.1,0-0.1,0l0,0c-0.1,1.4-1.8,4.6-3.7,7.5c-6.9,9.8-2.9,14.5-0.7,17c1.3,1.5,0,0,3.2-1.5
		c0.3-0.1,6.2-3.3,6.9-10.5C156.4,50.5,152,46.1,150.5,44.9"/>
</g>
</svg>
