<svg xmlns="http://www.w3.org/2000/svg" xmlns:v="https://vecta.io/nano" xmlns:xlink="http://www.w3.org/1999/xlink" id="Layer_1" x="0" y="0" version="1.1" viewBox="0 0 193 230" xml:space="preserve" style="enable-background:new 0 0 193 230"><style type="text/css">.st0{clip-path:url(#SVGID_2_)}.st1{opacity:.3}.st2{fill:#e1f2f1}.st3{fill:#d4e0df}.st4{fill:#aab4b3}.st5{fill:#cad5d4}.st6{fill:#b7c1c0}.st7{fill:#a1aaa9}.st8{fill:#c5d2d3}.st9{fill:#c5d0cf}</style><g><g><g><g><defs><rect id="SVGID_1_" width="192.2" height="230"/></defs><clipPath id="SVGID_2_"><use xlink:href="#SVGID_1_" style="overflow:visible"/></clipPath><g class="st0"><g class="st1"><g id="_x33_8"><rect width="7.7" height="3.2" x="167.2" y="203.8" class="st2"/><g><g><g><g><rect width="1.7" height="30.8" x="92.4" y="132" class="st3"/><rect width="2.1" height="30.8" x="94.1" y="132" class="st2"/></g><path d="M92.5,130c0-0.2,0-0.4,0-0.6c-0.5,0.5-0.7,1-0.8,2.1c-0.1,1.1,0.8,2.1,2,2.1H95c0.2,0,0.4,0,0.6-0.1 C94,132.9,92.8,131.8,92.5,130z" class="st3"/><path d="M96.9,131.4c-0.1-1.1-0.5-1.8-1.2-2.3c-0.4-0.3-0.7-0.6-0.9-0.7l-0.4-6.4h-0.5l-0.2,6.4 c-0.2,0.2-0.5,0.5-0.9,0.7c-0.1,0.1-0.2,0.2-0.4,0.3c0,0.2,0,0.4,0,0.6c0.3,1.8,1.5,2.9,3,3.5 C96.3,133.2,97,132.3,96.9,131.4z" class="st2"/></g><g><g><rect width="1.7" height="30.8" x="100" y="122" class="st3"/><rect width="2.1" height="30.8" x="101.7" y="122" class="st2"/></g><path d="M100,120c0-0.2,0-0.4,0-0.6c-0.5,0.5-0.7,1-0.8,2.1c-0.1,1.1,0.8,2.1,2,2.1h1.4c0.2,0,0.4,0,0.6-0.1 C101.5,122.9,100.3,121.8,100,120z" class="st3"/><path d="M104.5,121.4c-0.1-1.1-0.5-1.8-1.2-2.3c-0.4-0.3-0.7-0.6-0.9-0.7l-0.4-6.4h-0.5l-0.4,6.4 c-0.2,0.2-0.5,0.5-0.9,0.7c-0.1,0.1-0.2,0.2-0.4,0.3c0,0.2,0,0.4,0,0.6c0.3,1.8,1.5,2.9,3,3.5 C103.9,123.2,104.5,122.3,104.5,121.4z" class="st2"/></g><g><g><rect width="1.7" height="30.8" x="108.8" y="131.6" class="st3"/><rect width="2.1" height="30.8" x="110.4" y="131.6" class="st2"/></g><path d="M108.8,129.6c0-0.2,0-0.4,0-0.6c-0.5,0.5-0.7,1-0.8,2.1c-0.1,1.1,0.8,2.1,2,2.1h1.4 c0.2,0,0.4,0,0.6-0.1C110.3,132.5,109.1,131.4,108.8,129.6z" class="st3"/><path d="M113.2,131c-0.1-1.1-0.5-1.8-1.2-2.3c-0.4-0.3-0.7-0.6-0.9-0.7l-0.4-6.4h-0.3l-0.4,6.4 c-0.2,0.2-0.5,0.5-0.9,0.7c-0.1,0.1-0.2,0.2-0.4,0.3c0,0.2,0,0.4,0,0.6c0.3,1.8,1.5,2.9,3,3.5 C112.8,132.8,113.3,132,113.2,131z" class="st2"/></g><g><rect width="18.7" height="11.9" x="115.2" y="130.2" class="st3"/><g><path d="M120.9,142v-5.9c0-1-0.9-2-2.1-2s-2.1,0.8-2.1,2v5.9H120.9z" class="st4"/><path d="M126.6,142v-5.9c0-1-0.9-2-2.1-2c-1.1,0-2.1,0.8-2.1,2v5.9H126.6z" class="st4"/><path d="M132.4,142v-5.9c0-1-0.9-2-2.1-2s-2.1,0.8-2.1,2v5.9H132.4z" class="st4"/></g><g><g><polygon points="125.5 121.9 123.7 121.9 124.3 108.3 124.9 108.3" class="st5"/><path d="M125,114.6h-0.7c-0.7,0-1.1,0.5-1.1,1.1c0,0.7,0.5,1.1,1.1,1.1h0.7c0.7,0,1.1-0.5,1.1-1.1 C126.2,115.1,125.6,114.6,125,114.6z" class="st5"/><polygon points="133.9 127.2 134.1 130.6 115.2 130.6 115.5 127.2" class="st3"/><g><path d="M134,124.6c0.1,0.9,0,1.8-0.1,2.6c0,0.1,0,0.3-0.1,0.4c0,0.2-0.1,0.4-0.1,0.6h-18.4V128 c-0.1-0.3-0.1-0.5-0.1-0.7c-0.2-0.8-0.2-1.8-0.1-2.7c0.2-2.9,1.7-4.9,3.6-6.5c0.4-0.3,1-0.5,1.4-0.7 c0.9-0.7,2-1.1,2.9-1.6h3.3c1.1,0.5,2.2,1,3.2,1.7c0.4,0.3,0.9,0.5,1.3,0.7C132.5,119.6,133.9,121.7,134,124.6z" class="st3"/></g><g><path d="M134,126.6c0.1-0.7,0.1-1.4,0-2.1c-0.2-2.9-1.5-4.9-3.3-6.4c-0.4-0.3-0.9-0.5-1.3-0.7 c-0.9-0.7-2.1-1.2-3.2-1.7H123c-1,0.5-2,1-2.9,1.6c-0.2,0.1-0.5,0.3-0.7,0.4C122,122.8,127.9,125.2,134,126.6z" class="st2"/></g><path d="M134,128c0,0.1-0.1,0.1-0.1,0.2l0.1,0.9c-0.1,0-0.1,0-0.2,0h-18.1c-0.1,0-0.3,0-0.4,0l0.1-0.7 c-0.1-0.1-0.1-0.3-0.2-0.4c0.1,0,0.1,0,0.2,0h0.1c0.1,0,0.2,0,0.4,0h17.8C133.9,128,133.9,128,134,128z" class="st5"/><polygon points="135.4 129.8 113.7 129.8 114.4 130.7 134.7 130.7" class="st5"/><polygon points="114.4 130.7 115.1 131.5 133.9 131.5 134.7 130.7" class="st4"/></g><path d="M125.3,109.7c0,0.3-0.3,0.6-0.7,0.6c-0.5,0-0.7-0.3-0.7-0.6s0.3-0.6,0.7-0.6 C125,109.1,125.3,109.4,125.3,109.7z" class="st3"/><path d="M125.4,113c0,0.3-0.4,0.6-0.7,0.6c-0.4,0-0.7-0.3-0.7-0.6c0-0.3,0.4-0.6,0.7-0.6 C125,112.5,125.4,112.7,125.4,113z" class="st3"/><path d="M125.5,111.5c0,0.4-0.5,0.7-0.9,0.7c-0.6,0-0.9-0.3-0.9-0.7c0-0.4,0.5-0.7,0.9-0.7 C125.1,110.8,125.5,111.1,125.5,111.5z" class="st3"/><path d="M130.6,118.1c-4-0.7-8-0.7-11.9-0.1c0.1-0.1,0.3-0.2,0.5-0.3c0.4-0.3,0.8-0.5,1.4-0.6 c2.8-0.3,5.6-0.3,8.4,0.1c0.5,0.1,1,0.3,1.4,0.6C130.3,118,130.5,118.1,130.6,118.1z" class="st5"/></g><rect width="18.7" height=".7" x="115.2" y="131.2" class="st4"/></g><rect width="22" height="66.7" x="90.9" y="145.2" class="st6"/><rect width="24.6" height="66.7" x="112.9" y="145.2" class="st5"/><g><path d="M119.1,158.7c-1.7,1-4,4.8-4,6.6V179h3.9c0.7-7.1,0.7-14.3,1.7-21.6 C120.2,157.8,119.8,158.3,119.1,158.7z" class="st7"/><path d="M130,158.7c-1.4-0.8-2.1-1.9-3.5-2.8c-0.6-0.4-1.2-0.6-1.9-0.6c-0.7,0-1.3,0.2-1.9,0.6 c-0.7,0.5-1.3,1-2,1.5c-0.9,7.3-1,14.5-1.7,21.6h5.5h9.5v-13.7C134,163.4,131.8,159.7,130,158.7z" class="st6"/><path d="M128.2,156.7c-1-0.6-2.3-1.2-3.6-1.3c-1.2,0.1-2.5,0.7-3.6,1.3c-2.9,1.6-5.9,5-5.9,8.6V179h9.5h9.5 v-13.7C134,161.7,131.1,158.3,128.2,156.7z M132.4,177h-7.7h-7.7v-11.8c0-1.6,0.7-3.2,1.8-4.5c1.3-1.5,3.7-3.3,6-3.5 c2.2,0.1,4.8,2,6,3.5c1,1.2,1.8,2.8,1.8,4.5L132.4,177L132.4,177z" class="st2"/></g><g><path d="M104.7,157.2c-0.4-0.5-0.8-0.8-1.4-1.3c-0.5-0.4-1-0.6-1.6-0.6s-1.1,0.2-1.6,0.6 c-1.2,0.9-1.9,1.9-3,2.8c-1.5,1-3.4,4.8-3.4,6.6V179h5.8C98.9,170.4,98.5,161.8,104.7,157.2z" class="st7"/><path d="M106.3,158.7c-0.7-0.5-1.1-0.9-1.6-1.5c-6.3,4.7-5.9,13.3-5.2,21.7h2.2h8v-13.7 C109.8,163.4,107.8,159.7,106.3,158.7z" class="st6"/><path d="M104.7,156.7c-0.9-0.6-2-1.2-3.1-1.3c-1,0.1-2.1,0.7-3.1,1.3c-2.4,1.6-4.9,5-4.9,8.6V179h8h8v-13.7 C109.8,161.7,107.3,158.3,104.7,156.7z M108.3,177h-6.5h-6.5v-11.8c0-1.6,0.6-3.2,1.5-4.5c1-1.5,3.2-3.3,5-3.5 c1.9,0.1,4,2,5,3.5c0.8,1.2,1.5,2.8,1.5,4.5V177z" class="st2"/></g><g><path d="M119.7,191.4c-1.7,1-4,4.8-4,6.6v13.7h3.9c0.7-7.1,0.7-14.3,1.7-21.6 C120.8,190.6,120.3,191,119.7,191.4z" class="st7"/><path d="M130.6,191.4c-1.4-0.8-2.1-1.9-3.5-2.8c-0.6-0.4-1.2-0.6-1.9-0.6c-0.7,0-1.3,0.2-1.9,0.6 c-0.7,0.5-1.3,1-2,1.5c-0.9,7.3-1,14.5-1.7,21.6h5.5h9.5v-13.7C134.6,196.2,132.3,192.4,130.6,191.4z" class="st6"/><path d="M128.7,189.5c-1-0.6-2.3-1.2-3.6-1.3c-1.2,0.1-2.5,0.7-3.6,1.3c-2.9,1.6-5.9,5-5.9,8.6v13.7h9.5h9.5 V198C134.6,194.5,131.6,191,128.7,189.5z M132.8,209.8h-7.7h-7.7V198c0-1.6,0.7-3.2,1.8-4.5c1.3-1.5,3.7-3.3,6-3.5 c2.2,0.1,4.8,2,6,3.5c1,1.2,1.8,2.8,1.8,4.5L132.8,209.8L132.8,209.8z" class="st2"/></g><g><path d="M105.3,189.9c-0.4-0.5-0.8-0.8-1.4-1.3c-0.5-0.4-1-0.6-1.6-0.6s-1.1,0.2-1.6,0.6 c-1.2,0.9-1.9,1.9-3,2.8c-1.5,1-3.4,4.8-3.4,6.6v13.7h5.8C99.4,203.2,99,194.6,105.3,189.9z" class="st7"/><path d="M106.9,191.4c-0.7-0.5-1.1-0.9-1.6-1.5c-6.3,4.7-5.9,13.3-5.2,21.7h2.2h8v-13.7 C110.2,196.2,108.4,192.4,106.9,191.4z" class="st6"/><path d="M105.3,189.5c-0.9-0.6-2-1.2-3.1-1.3c-1,0.1-2.1,0.7-3.1,1.3c-2.4,1.6-4.9,5-4.9,8.6v13.7h8h8V198 C110.2,194.5,107.7,191,105.3,189.5z M108.8,209.8h-6.5h-6.5V198c0-1.6,0.6-3.2,1.5-4.5c1-1.5,3.2-3.3,5-3.5 c1.9,0.1,4,2,5,3.5c0.8,1.2,1.5,2.8,1.5,4.5V209.8z" class="st2"/></g><rect width="46.9" height="2" x="90.5" y="146.4" class="st4"/><rect width="46.9" height="4.4" x="90.5" y="142" class="st2"/><g><polygon points="115.4 211.9 115.4 154 134.4 154 134.4 211.9 136 211.9 136 152.5 113.8 152.5 113.8 211.9" class="st3"/></g><g><polygon points="93.8 211.9 93.8 154 109.9 154 109.9 211.9 111.2 211.9 111.2 152.5 92.5 152.5 92.5 211.9" class="st3"/></g></g><g><g><g><rect width="1.7" height="30.8" x="245.9" y="132" class="st3"/><rect width="2.1" height="30.8" x="247.6" y="132" class="st2"/></g><path d="M245.9,130c0-0.2,0-0.4,0-0.6c-0.5,0.5-0.7,1-0.8,2.1c-0.1,1.1,0.8,2.1,2,2.1h1.4 c0.2,0,0.4,0,0.6-0.1C247.4,132.9,246.2,131.8,245.9,130z" class="st3"/><path d="M250.4,131.4c-0.1-1.1-0.5-1.8-1.2-2.3c-0.4-0.3-0.7-0.6-0.9-0.7l-0.4-6.4h-0.5l-0.4,6.4 c-0.2,0.2-0.5,0.5-0.9,0.7c-0.1,0.1-0.2,0.2-0.4,0.3c0,0.2,0,0.4,0,0.6c0.3,1.8,1.5,2.9,3,3.5 C249.9,133.2,250.5,132.3,250.4,131.4z" class="st2"/></g><g><g><rect width="1.7" height="30.8" x="238.4" y="122" class="st3"/><rect width="2.1" height="30.8" x="240.1" y="122" class="st2"/></g><path d="M238.5,120c0-0.2,0-0.4,0-0.6c-0.5,0.5-0.7,1-0.8,2.1c-0.1,1.1,0.8,2.1,2,2.1h1.4 c0.2,0,0.4,0,0.6-0.1C240,122.9,238.8,121.8,238.5,120z" class="st3"/><path d="M242.9,121.4c-0.1-1.1-0.5-1.8-1.2-2.3c-0.4-0.3-0.7-0.6-0.9-0.7l-0.4-6.4h-0.5l-0.4,6.4 c-0.2,0.2-0.5,0.5-0.9,0.7c-0.1,0.1-0.2,0.2-0.4,0.3c0,0.2,0,0.4,0,0.6c0.3,1.8,1.5,2.9,3,3.5 C242.3,123.2,243,122.3,242.9,121.4z" class="st2"/></g><g><g><rect width="1.7" height="30.8" x="229.6" y="131.6" class="st3"/><rect width="2.1" height="30.8" x="231.2" y="131.6" class="st2"/></g><path d="M229.6,129.6c0-0.2,0-0.4,0-0.6c-0.5,0.5-0.7,1-0.8,2.1c-0.1,1.1,0.8,2.1,2,2.1h1.4 c0.2,0,0.4,0,0.6-0.1C231.1,132.5,229.9,131.4,229.6,129.6z" class="st3"/><path d="M234,131c-0.1-1.1-0.5-1.8-1.2-2.3c-0.4-0.3-0.7-0.6-0.9-0.7l-0.4-6.4H231l-0.4,6.4 c-0.2,0.2-0.5,0.5-0.9,0.7c-0.1,0.1-0.2,0.2-0.4,0.3c0,0.2,0,0.4,0,0.6c0.3,1.8,1.5,2.9,3,3.5 C233.5,132.8,234.1,132,234,131z" class="st2"/></g><g><rect width="18.7" height="11.9" x="208.1" y="130.2" class="st3"/><g><path d="M221.2,142v-5.9c0-1,0.9-2,2.1-2s2.1,0.8,2.1,2v5.9H221.2z" class="st4"/><path d="M215.4,142v-5.9c0-1,0.9-2,2.1-2s2.1,0.8,2.1,2v5.9H215.4z" class="st4"/><path d="M209.7,142v-5.9c0-1,0.9-2,2.1-2s2.1,0.8,2.1,2v5.9H209.7z" class="st4"/></g><g><g><polygon points="216.5 121.9 218.3 121.9 217.8 108.3 217.2 108.3" class="st5"/><path d="M217,114.6h0.7c0.7,0,1.1,0.5,1.1,1.1c0,0.7-0.5,1.1-1.1,1.1H217c-0.7,0-1.1-0.5-1.1-1.1 C215.9,115.1,216.4,114.6,217,114.6z" class="st5"/><polygon points="208.1 127.2 208 130.6 226.8 130.6 226.6 127.2" class="st3"/><g><g><path d="M226.9,124.6c0.1,0.9,0,1.8-0.1,2.6c0,0.1,0,0.3-0.1,0.4c0,0.2-0.1,0.4-0.1,0.6h-18.4V128 c-0.1-0.3-0.1-0.5-0.2-0.7c-0.2-0.8-0.2-1.8-0.1-2.7c0.2-2.9,1.7-4.9,3.6-6.5c0.4-0.3,1-0.5,1.4-0.7 c0.9-0.7,2-1.1,2.9-1.6h3.3c1.1,0.5,2.2,1,3.2,1.7c0.4,0.3,0.9,0.5,1.3,0.7C225.4,119.6,226.7,121.7,226.9,124.6z" class="st3"/></g><g><path d="M226.9,126.6c0.1-0.7,0.1-1.4,0-2.1c-0.2-2.9-1.5-4.9-3.3-6.4c-0.4-0.3-0.9-0.5-1.3-0.7 c-0.9-0.7-2.1-1.2-3.2-1.7h-3.3c-1,0.5-2,1-2.9,1.6c-0.2,0.1-0.5,0.3-0.7,0.4C214.9,122.8,220.7,125.2,226.9,126.6z" class="st2"/></g></g><path d="M208.1,128c0,0.1,0.1,0.1,0.1,0.2l-0.1,0.9c0.1,0,0.1,0,0.2,0h18.1c0.1,0,0.3,0,0.4,0l-0.1-0.7 c0.1-0.1,0.1-0.3,0.2-0.4c-0.1,0-0.1,0-0.2,0h-0.1c-0.1,0-0.2,0-0.4,0L208.1,128C208.2,128,208.1,128,208.1,128z" class="st5"/><polygon points="206.6 129.8 228.4 129.8 227.6 130.7 207.4 130.7" class="st5"/><polygon points="227.6 130.7 226.9 131.5 208.1 131.5 207.4 130.7" class="st4"/></g><path d="M216.7,109.7c0,0.3,0.3,0.6,0.7,0.6c0.4,0,0.7-0.3,0.7-0.6s-0.3-0.6-0.7-0.6 C217,109.1,216.7,109.4,216.7,109.7z" class="st3"/><path d="M216.7,113c0,0.3,0.4,0.6,0.7,0.6s0.7-0.3,0.7-0.6c0-0.3-0.4-0.6-0.7-0.6 C217,112.5,216.7,112.7,216.7,113z" class="st3"/><path d="M216.5,111.5c0,0.4,0.5,0.7,0.9,0.7c0.6,0,0.9-0.3,0.9-0.7c0-0.4-0.5-0.7-0.9-0.7 C216.9,110.8,216.5,111.1,216.5,111.5z" class="st3"/><path d="M211.4,118.1c4-0.7,8-0.7,11.9-0.1c-0.1-0.1-0.3-0.2-0.5-0.3c-0.4-0.3-0.8-0.5-1.4-0.6 c-2.8-0.3-5.6-0.3-8.4,0.1c-0.5,0.1-1,0.3-1.4,0.6C211.7,118,211.6,118.1,211.4,118.1z" class="st5"/></g><rect width="18.7" height=".7" x="208.1" y="131.2" class="st4"/></g><rect width="22" height="66.7" x="229.1" y="145.2" class="st3"/><rect width="24.6" height="66.7" x="204.5" y="145.2" class="st5"/><g><path d="M222.9,158.7c1.7,1,4,4.8,4,6.6V179H223c-0.7-7.1-0.7-14.3-1.7-21.6 C221.8,157.8,222.2,158.3,222.9,158.7z" class="st7"/><path d="M212,158.7c1.4-0.8,2.1-1.9,3.5-2.8c0.6-0.4,1.2-0.6,1.9-0.6c0.7,0,1.3,0.2,1.9,0.6 c0.7,0.5,1.3,1,2,1.5c0.9,7.3,1,14.5,1.7,21.6h-5.5h-9.5v-13.7C208,163.4,210.3,159.7,212,158.7z" class="st6"/><path d="M208,165.2v13.7h9.5h9.5v-13.7c0-3.5-3-7-5.9-8.6c-1-0.6-2.3-1.2-3.6-1.3c-1.2,0.1-2.5,0.7-3.6,1.3 C210.9,158.3,208,161.7,208,165.2z M209.7,165.2c0-1.6,0.7-3.2,1.8-4.5c1.3-1.5,3.7-3.3,6-3.5c2.2,0.1,4.8,2,6,3.5 c1,1.2,1.8,2.8,1.8,4.5v11.8h-7.7h-7.7L209.7,165.2L209.7,165.2z" class="st2"/></g><g><path d="M237.3,157.2c0.4-0.5,0.8-0.8,1.4-1.3c0.5-0.4,1-0.6,1.6-0.6c0.6,0,1.1,0.2,1.6,0.6 c1.2,0.9,1.9,1.9,3,2.8c1.5,1,3.4,4.8,3.4,6.6V179h-5.8C243.1,170.4,243.5,161.8,237.3,157.2z" class="st7"/><path d="M235.7,158.7c0.7-0.5,1.1-0.9,1.6-1.5c6.3,4.7,5.9,13.3,5.2,21.7h-2.2h-8v-13.7 C232.3,163.4,234.3,159.7,235.7,158.7z" class="st6"/><path d="M232.3,165.2v13.7h8h8v-13.7c0-3.5-2.5-7-4.9-8.6c-0.9-0.6-2-1.2-3.1-1.3c-1,0.1-2.1,0.7-3.1,1.3 C234.8,158.3,232.3,161.7,232.3,165.2z M233.8,165.2c0-1.6,0.6-3.2,1.5-4.5c1-1.5,3.2-3.3,5-3.5c1.9,0.1,4,2,5,3.5 c0.8,1.2,1.5,2.8,1.5,4.5v11.8h-6.5h-6.5V165.2z" class="st2"/></g><g><path d="M222.4,191.4c1.7,1,4,4.8,4,6.6v13.7h-4c-0.7-7.1-0.7-14.3-1.7-21.6 C221.2,190.6,221.8,191,222.4,191.4z" class="st7"/><path d="M211.5,191.4c1.4-0.8,2.1-1.9,3.5-2.8c0.6-0.4,1.2-0.6,1.9-0.6c0.7,0,1.3,0.2,1.9,0.6 c0.7,0.5,1.3,1,2,1.5c0.9,7.3,1,14.5,1.7,21.6h-5.5h-9.4v-13.7C207.5,196.2,209.7,192.4,211.5,191.4z" class="st6"/><path d="M207.5,197.9v13.7h9.5h9.5v-13.7c0-3.5-3-7-5.9-8.6c-1-0.6-2.3-1.2-3.6-1.3c-1.2,0.1-2.5,0.7-3.6,1.3 C210.4,191,207.5,194.5,207.5,197.9z M209.2,197.9c0-1.6,0.7-3.2,1.8-4.5c1.3-1.5,3.7-3.3,6-3.5c2.2,0.1,4.8,2,6,3.5 c1,1.2,1.8,2.8,1.8,4.5v11.8h-7.7h-7.7L209.2,197.9L209.2,197.9z" class="st2"/></g><g><path d="M236.8,189.9c0.4-0.5,0.8-0.8,1.4-1.3c0.5-0.4,1-0.6,1.6-0.6s1.1,0.2,1.6,0.6c1.2,0.9,1.9,1.9,3,2.8 c1.5,1,3.4,4.8,3.4,6.6v13.7H242C242.6,203.2,243.1,194.6,236.8,189.9z" class="st7"/><path d="M235.2,191.4c0.7-0.5,1.1-0.9,1.6-1.5c6.3,4.7,5.9,13.3,5.2,21.7h-2.2h-8v-13.7 C231.8,196.2,233.7,192.4,235.2,191.4z" class="st6"/><path d="M231.8,197.9v13.7h8h8v-13.7c0-3.5-2.5-7-4.9-8.6c-0.9-0.6-2-1.2-3.1-1.3c-1,0.1-2.1,0.7-3.1,1.3 C234.3,191,231.8,194.5,231.8,197.9z M233.3,197.9c0-1.6,0.6-3.2,1.5-4.5c1-1.5,3.2-3.3,5-3.5c1.9,0.1,4,2,5,3.5 c0.8,1.2,1.5,2.8,1.5,4.5v11.8h-6.5h-6.5V197.9z" class="st2"/></g><rect width="46.9" height="2" x="204.5" y="146.4" class="st4"/><rect width="46.9" height="4.4" x="204.5" y="142" class="st2"/><g><polygon points="226.6 211.9 226.6 154 207.6 154 207.6 211.9 206.1 211.9 206.1 152.5 228.2 152.5 228.2 211.9" class="st3"/></g><g><polygon points="248.3 211.9 248.3 154 232.2 154 232.2 211.9 230.9 211.9 230.9 152.5 249.6 152.5 249.6 211.9" class="st2"/></g></g><g><rect width="69.9" height="82" x="136.2" y="129.9" class="st3"/><rect width="65.3" height="77.7" x="138.4" y="134.3" class="st2"/><rect width="56.4" height="74.8" x="142.9" y="137.2" class="st8"/><rect width="48.1" height="70.7" x="147.1" y="141.3" class="st2"/><rect width="40.1" height="66.5" x="151" y="145.4" class="st3"/><g><g><polygon points="174.5 98.8 167.8 98.8 169.1 63.3 169.2 62.7 170 43.3 172.3 43.3 173.1 62.7 173.1 65.9" class="st5"/><path d="M173,70.8h-2.8c-2.6,0-4.7,2-4.7,4.5c0,2.4,2.1,4.5,4.7,4.5h2.8c2.6,0,4.7-2,4.7-4.5 C177.6,72.8,175.5,70.8,173,70.8z" class="st5"/><rect width="67.3" height="10.7" x="137.7" y="117.3" class="st3"/><g><path d="M206.5,108.3c0,3.1-0.4,6.1-1.1,9c-0.1,0.4-0.2,0.7-0.3,1.2c-0.2,0.6-0.4,1.2-0.6,1.8h-66.6 c-0.1-0.2-0.1-0.3-0.2-0.5c-0.3-0.7-0.5-1.6-0.7-2.3c-0.7-2.9-1.2-6-1.2-9.1c0-10.3,5.2-17.9,12.5-23.7 c1.3-1,3.8-1.8,5.2-2.7c3.6-2.4,7.5-4.6,11.5-6.3l13-0.1c4.5,1.8,8.7,4.1,12.4,6.6c1.4,0.9,3.8,1.8,5,2.8 C202.2,90.7,206.5,98.3,206.5,108.3z" class="st3"/></g><g><path d="M195.5,85c-1.2-1-3.6-1.9-5-2.8c-3.7-2.5-7.9-4.9-12.4-6.6l-13,0.1c-4,1.8-7.8,3.9-11.5,6.3 c-0.8,0.6-2,1-3.1,1.5c4.5,12.9,17.5,22.6,30.1,27.1c7.9,3.3,16.3,5.5,24.9,6.5c0.7-2.8,1-5.7,1-8.7 C206.5,98.3,202.2,90.7,195.5,85z" class="st2"/></g><path d="M205.3,117.3c-0.1,0.4-0.2,0.7-0.3,1.2v5.3c-0.2,0-0.4,0-0.7,0h-65.2c-0.5,0-1,0-1.5-0.1v-3.8 c-0.3-0.7-0.5-1.6-0.7-2.3c0.2-0.1,0.5-0.1,0.7-0.1c0.1,0,0.2,0,0.3,0c0.4,0,0.7-0.1,1.2-0.1h65.2 C204.7,117.3,205,117.3,205.3,117.3z" class="st5"/><rect width="69.2" height="2" x="136.4" y="127.1" class="st5"/><rect width="69.2" height="1.8" x="136.4" y="129.1" class="st4"/></g><path d="M169.1,47.9c-0.7,0.5-1.1,1.1-1.1,1.8c0,1.3,1.4,2.3,3.1,2.3c0.5,0,1-0.1,1.4-0.3 C170.9,51,169.5,49.6,169.1,47.9z" class="st5"/><path d="M174.2,49.6c0-1.3-1.4-2.3-3.1-2.3c-0.7,0-1.4,0.2-2,0.6c0.4,1.8,1.7,3.1,3.4,3.9 C173.5,51.3,174.2,50.6,174.2,49.6z" class="st3"/><path d="M169,62.8c-0.6,0.5-0.9,1-0.9,1.7c0,1.3,1.4,2.3,3.1,2.3c0.7,0,1.2-0.1,1.7-0.4 C171.4,65.4,169.8,64.4,169,62.8z" class="st5"/><path d="M173.1,65.9c-1.7-0.5-3.5-1.2-4-2.6c-0.1-0.1-0.1-0.3-0.1-0.4c0.1,0,0.1-0.1,0.2-0.1 c0.6-0.4,1.2-0.6,2-0.6s1.4,0.2,2,0.6V65.9z" class="st3"/><path d="M168.4,55.7c-0.7,0.6-1.2,1.3-1.2,2.1c0,1.7,1.8,3,3.9,3c0.6,0,1-0.1,1.5-0.2 C170.8,60.1,168.8,58.1,168.4,55.7z" class="st5"/><path d="M175.1,57.9c0-1.7-1.8-3-3.9-3c-1.1,0-2.1,0.4-2.8,0.8c0.5,2.4,2.4,4.4,4.3,4.9 C174.1,60.2,175.1,59.2,175.1,57.9z" class="st3"/><path d="M194.7,85c-15.6-2.9-31.5-3-47.2-0.4c0.6-0.5,1-0.8,1.6-1.2c1.6-1.1,3.4-1.9,5.3-2.1 c11.1-1.2,22.3-1.2,33.4,0.3c2,0.3,3.8,1,5.4,2.2C193.8,84.2,194.2,84.5,194.7,85z" class="st5"/></g><g><path d="M167.5,150.2c-2.7,1.8-5.5,3.5-8.1,5.1c-3.2,2-5.9,8.9-5.9,12.1v44.5h30.9 c-0.1-12.5-1.3-25.1-3.7-37.8C178.8,165.3,174.8,156.1,167.5,150.2z" class="st5"/><path d="M188.8,167.4c0-3.3-2.7-10.3-5.9-12.1c-3.8-2.3-8.1-5-11.8-7.6c-1.2,0.7-2.4,1.6-3.6,2.4 c7.4,6,11.3,15.1,13.1,24c2.4,12.7,3.6,25.3,3.7,37.8h4.5V167.4z" class="st6"/></g><rect width="32.1" height="2.1" x="155.1" y="181" class="st3"/><path d="M175.5,165c-1.4-0.8-3-1.9-4.4-2.8c-1.4,0.9-3,2-4.4,2.8c-1.2,0.7-2.1,3.4-2.1,4.6v11.2h0.2v0.2h12.8 v-0.2h0.2v-11.2C177.6,168.4,176.7,165.7,175.5,165z" class="st6"/><path d="M175.5,191.3c-1.4-0.8-3-1.9-4.4-2.8c-1.4,0.9-3,2-4.4,2.8c-1.2,0.7-2.1,3.4-2.1,4.6v11.2h0.2v0.2 h12.8v-0.2h0.2v-11.2C177.6,194.7,176.7,192.1,175.5,191.3z" class="st6"/><path d="M165,181.7v-11.3h2.7v11.3h1.4v-11.3h4v11.3h1.4v-11.3h2.7v11.3h1.3v-12.6c0-1.4-1.1-4.3-2.5-5.1 c-1.6-1-3.5-2.1-4.9-3.2c-1.6,1-3.4,2.2-4.9,3.2c-1.3,0.8-2.5,3.7-2.5,5.1v12.6H165z M174.5,164.6c0.3,0.2,0.6,0.4,0.8,0.6 c0.8,0.5,1.9,2.9,1.9,4v0.2h-2.7V164.6z M169.1,163.8c0.8-0.6,1.6-1,2.1-1.3c0.5,0.3,1.1,0.7,2,1.3v5.6h-4V163.8z M165,169.2c0-1.1,1-3.5,1.9-4c0.3-0.2,0.6-0.4,0.8-0.5v4.7H165V169.2z" class="st3"/><path d="M165,208.2v-11.3h2.7v11.3h1.4v-11.3h4v11.3h1.4v-11.3h2.7v11.3h1.3v-12.6c0-1.4-1.1-4.3-2.5-5.1 c-1.6-1-3.5-2.1-4.9-3.2c-1.6,1-3.4,2.2-4.9,3.2c-1.3,0.8-2.5,3.7-2.5,5.1v12.6H165z M174.5,191.1c0.3,0.2,0.6,0.4,0.8,0.6 c0.8,0.5,1.9,2.9,1.9,4v0.2h-2.7V191.1z M169.1,190.2c0.8-0.6,1.6-1,2.1-1.3c0.5,0.3,1.1,0.7,2,1.3v5.6h-4V190.2z M165,195.6c0-1.1,1-3.5,1.9-4c0.3-0.2,0.6-0.4,0.8-0.5v4.7H165V195.6z" class="st3"/><rect width="30.8" height="3" x="155.8" y="207.6" class="st6"/><path d="M155.8,211.9v-45.4c0-2.8,2.5-8.8,4.6-10.1c4.9-3.1,8.5-5.3,10.7-6.8c2.1,1.4,5.7,3.7,10.7,6.8 c2.1,1.3,4.6,7.3,4.6,10.1v45.4h3.4v-45.4c0-3.5-2.8-10.8-6.3-12.9c-4.1-2.5-8.6-5.3-12.5-7.9c-3.9,2.7-8.5,5.5-12.5,7.9 c-3.4,2.1-6.3,9.4-6.3,12.9v45.4H155.8z" class="st2"/></g></g><g><g><g><g><path d="M79.9,133.7v6.8H79v-2.7c0-0.7-0.6-1.1-1.2-1.1c-0.7,0-1.1,0.5-1.1,1.1v2.7h-0.9v-2.7 c0-0.7-0.6-1.1-1.1-1.1c-0.7,0-1.2,0.5-1.2,1.1v2.7h-0.9v-2.7c0-0.7-0.6-1.1-1.2-1.1s-1.2,0.5-1.2,1.1v2.7h-0.9v-6.8 H79.9z" class="st3"/><g><path d="M72.4,137.2v0.7c0-0.7-0.6-1.1-1.2-1.1s-1.2,0.5-1.2,1.1v-0.7c0-0.7,0.6-1.1,1.2-1.1 S72.4,136.5,72.4,137.2z" class="st4"/><path d="M75.7,137.2v0.7c0-0.7-0.6-1.1-1.1-1.1c-0.7,0-1.2,0.5-1.2,1.1v-0.7c0-0.7,0.6-1.1,1.2-1.1 C75.1,136.1,75.7,136.5,75.7,137.2z" class="st4"/><path d="M79,137.2v0.7c0-0.7-0.6-1.1-1.2-1.1c-0.7,0-1.1,0.5-1.1,1.1v-0.7c0-0.7,0.6-1.1,1.1-1.1 C78.4,136.1,79,136.5,79,137.2z" class="st4"/></g><g><g><polygon points="75.1 129.2 74 129.2 74.4 122.2 74.7 122.2" class="st5"/><path d="M74.8,125.3h-0.4c-0.4,0-0.7,0.3-0.7,0.6s0.3,0.6,0.7,0.6h0.4c0.4,0,0.7-0.3,0.7-0.6 C75.4,125.6,75.1,125.3,74.8,125.3z" class="st5"/><polygon points="79.8 132.1 80 133.9 69.2 133.9 69.4 132.1" class="st3"/><g><path d="M79.8,130.7c0.1,0.5,0.1,1,0,1.5c0,0.1,0,0.1,0,0.2c0,0.1,0,0.2-0.1,0.3H69.4v-0.1 c0-0.1-0.1-0.3-0.1-0.4c-0.1-0.5-0.1-1,0-1.5c0.2-1.6,1-2.7,2.1-3.5c0.2-0.2,0.6-0.3,0.7-0.4c0.6-0.3,1-0.6,1.6-0.8 h1.8c0.7,0.3,1.2,0.6,1.8,0.8c0.2,0.1,0.6,0.3,0.7,0.4C79,127.9,79.6,129.1,79.8,130.7z" class="st3"/></g><path d="M79.9,132.5L79.9,132.5l0.1,0.7h-0.1H69.6c-0.1,0-0.2,0-0.2,0v-0.4c0-0.1-0.1-0.2-0.1-0.2h0.1l0,0 c0.1,0,0.1,0,0.2,0L79.9,132.5C79.8,132.5,79.8,132.5,79.9,132.5z" class="st5"/><polygon points="68.3 134.5 80.7 134.5 80.3 134 68.8 134" class="st4"/><polygon points="80.3 134 79.9 133.5 69.2 133.5 68.8 134" class="st3"/></g><path d="M75,122.9c0,0.2-0.2,0.3-0.4,0.3s-0.4-0.1-0.4-0.3s0.2-0.3,0.4-0.3C74.8,122.6,75,122.7,75,122.9z" class="st3"/><path d="M75,124.6c0,0.2-0.2,0.3-0.4,0.3s-0.4-0.1-0.4-0.3c0-0.2,0.2-0.3,0.4-0.3 C74.8,124.3,75,124.4,75,124.6z" class="st3"/><path d="M75.1,123.7c0,0.2-0.2,0.4-0.5,0.4c-0.3,0-0.5-0.2-0.5-0.4c0-0.2,0.2-0.4,0.5-0.4 C74.8,123.5,75.1,123.6,75.1,123.7z" class="st3"/><path d="M77.9,127.2c-2.1-0.4-4.4-0.4-6.5-0.1c0.1-0.1,0.2-0.1,0.3-0.2c0.2-0.2,0.5-0.3,0.7-0.3 c1.5-0.2,3.1-0.2,4.6,0c0.3,0,0.6,0.1,0.7,0.3C77.7,127.1,77.8,127.1,77.9,127.2z" class="st5"/></g><rect width="10.7" height=".5" x="69.2" y="134.3" class="st4"/></g><g><polygon points="80.9 196.8 80.9 194.6 80.5 172 80.4 169.8 79.8 144.3 79.8 141.9 79.8 140.8 75 140.8 69.3 140.8 69.3 141.9 69.2 144.3 68.7 169.8 68.6 172 68.1 194.6 68.1 196.8 67.7 215.1 75 215.1 81.3 215.1" class="st3"/><polygon points="69.3 140.8 69.3 141.9 69.2 144.3 68.7 169.8 68.6 172 68.1 194.6 68.1 196.8 67.7 215.1 75 215.1 75 140.8" class="st9"/><polygon points="80.5 172 68.6 172 68.7 169.8 80.4 169.8" class="st4"/><polygon points="80.9 196.8 68.1 196.8 68.1 194.6 80.9 194.6" class="st4"/><polygon points="79.8 144.3 69.2 144.3 69.3 141.9 79.8 141.9" class="st4"/><path d="M79.9,140.5H69.2c-0.7,0-1.3,0.7-1.3,1.5h13.3C81.2,141.1,80.7,140.5,79.9,140.5z" class="st2"/><path d="M67.9,141.9L67.9,141.9L67.9,141.9c0,0.8,0.6,1.5,1.3,1.5h10.7c0.7,0,1.3-0.7,1.3-1.5l0,0l0,0H67.9z" class="st3"/><path d="M80.3,168H68.8c-0.7,0-1.4,0.7-1.4,1.5h14.4C81.7,168.6,81,168,80.3,168z" class="st2"/><path d="M67.3,169.4L67.3,169.4L67.3,169.4c0,0.8,0.7,1.5,1.4,1.5h11.5c0.8,0,1.4-0.7,1.4-1.5l0,0l0,0H67.3z" class="st3"/><path d="M80.7,192.7H68.3c-0.7,0-1.3,0.5-1.5,1.1h15.3C82,193.3,81.4,192.7,80.7,192.7z" class="st2"/><path d="M66.9,193.9c0,0.1-0.1,0.2-0.1,0.4l0,0c0,0.8,0.7,1.5,1.5,1.5h12.3c0.8,0,1.5-0.7,1.5-1.5l0,0 c0-0.1,0-0.3-0.1-0.4H66.9z" class="st3"/></g></g><g><g><path d="M53.3,98.8v9.7H52v-3.8c0-0.8-0.7-1.6-1.7-1.6s-1.7,0.7-1.7,1.6v3.8h-1.4v-3.8 c0-0.8-0.7-1.6-1.7-1.6s-1.7,0.7-1.7,1.6v3.8h-1.4v-3.8c0-0.8-0.7-1.6-1.7-1.6c-0.9,0-1.7,0.7-1.7,1.6v3.8h-1.3v-9.7 H53.3z" class="st3"/><g><path d="M42.6,103.8v0.9c0-0.8-0.7-1.6-1.7-1.6s-1.7,0.7-1.7,1.6v-0.9c0-0.8,0.7-1.6,1.7-1.6 S42.6,102.8,42.6,103.8z" class="st4"/><path d="M47.3,103.8v0.9c0-0.8-0.7-1.6-1.7-1.6s-1.7,0.7-1.7,1.6v-0.9c0-0.8,0.7-1.6,1.7-1.6 C46.6,102.2,47.3,102.8,47.3,103.8z" class="st4"/><path d="M52,103.8v0.9c0-0.8-0.7-1.6-1.7-1.6s-1.7,0.7-1.7,1.6v-0.9c0-0.8,0.7-1.6,1.7-1.6 C51.3,102.2,52,102.8,52,103.8z" class="st4"/></g><g><g><polygon points="46.4 92.3 45 92.3 45.5 82.3 45.8 82.3" class="st5"/><path d="M46,86.9h-0.6c-0.5,0-0.9,0.4-0.9,0.8s0.4,0.8,0.9,0.8H46c0.5,0,0.9-0.4,0.9-0.8 C46.9,87.3,46.5,86.9,46,86.9z" class="st5"/><polygon points="53.1 96.5 53.4 99.1 38 99.1 38.3 96.5" class="st3"/><g><path d="M53.2,94.4c0.1,0.7,0.1,1.4,0,2.1c0,0.1,0,0.2,0,0.3c0,0.2-0.1,0.3-0.1,0.5H38.3v-0.1 c0-0.2-0.1-0.4-0.1-0.6c-0.1-0.7-0.1-1.4,0-2.1c0.3-2.2,1.5-3.8,3-4.9c0.3-0.2,0.7-0.4,1.1-0.6 c0.7-0.5,1.5-0.8,2.3-1.2h2.5c0.8,0.4,1.7,0.7,2.5,1.2c0.3,0.2,0.7,0.4,1,0.6C52,90.6,53,92.2,53.2,94.4z" class="st3"/></g><path d="M53.3,97.1c0,0.1,0,0.1-0.1,0.2l0.1,0.7c0,0-0.1,0-0.2,0H38.5c-0.1,0-0.2,0-0.4,0l0.1-0.6 c0-0.1-0.1-0.2-0.1-0.4c0.1,0,0.1,0,0.2,0c0,0,0,0,0.1,0c0.1,0,0.2,0,0.3,0H53.3C53.1,97.1,53.2,97.1,53.3,97.1z" class="st5"/><polygon points="36.8 99.9 54.5 99.9 53.9 99.2 37.4 99.2" class="st4"/><polygon points="53.9 99.2 53.3 98.5 37.9 98.5 37.4 99.2" class="st3"/></g><path d="M46.2,83.3c0,0.2-0.3,0.4-0.6,0.4s-0.6-0.2-0.6-0.4s0.3-0.4,0.6-0.4C45.9,83,46.2,83.1,46.2,83.3z" class="st3"/><path d="M46.2,85.8c0,0.2-0.3,0.4-0.6,0.4s-0.6-0.1-0.6-0.4c0-0.2,0.3-0.4,0.6-0.4 C46,85.4,46.2,85.6,46.2,85.8z" class="st3"/><path d="M46.4,84.6c0,0.3-0.3,0.5-0.7,0.5s-0.7-0.2-0.7-0.5s0.4-0.5,0.7-0.5C46,84.2,46.4,84.4,46.4,84.6z" class="st3"/><path d="M50.3,89.5c-3.1-0.6-6.3-0.6-9.4-0.1c0.1-0.1,0.2-0.2,0.4-0.3c0.3-0.2,0.7-0.4,1.1-0.4 c2.1-0.3,4.4-0.2,6.5,0.1c0.4,0.1,0.7,0.2,1.1,0.5C50.1,89.3,50.2,89.4,50.3,89.5z" class="st5"/></g><rect width="15.3" height=".7" x="38" y="99.7" class="st4"/></g><g><polygon points="54.8 189 54.7 185.7 54.1 153.6 54.1 150.3 53.3 113.9 53.2 110.6 53.1 108.9 46.3 108.9 38.1 108.9 38.1 110.6 38 113.9 37.3 150.3 37.2 153.6 36.5 185.7 36.4 189 35.9 215.1 46.3 215.1 55.4 215.1" class="st3"/><polygon points="38.1 108.9 38.1 110.6 38 113.9 37.3 150.3 37.2 153.6 36.5 185.7 36.4 189 35.9 215.1 46.3 215.1 46.3 108.9" class="st9"/><polygon points="54.1 153.6 37.2 153.6 37.3 150.3 54.1 150.3" class="st4"/><polygon points="54.8 189 36.4 189 36.5 185.7 54.7 185.7" class="st4"/><polygon points="53.3 113.9 38 113.9 38.1 110.6 53.2 110.6" class="st4"/><path d="M53.3,108.5H38c-1,0-1.9,0.9-1.9,2.1h19.1C55.2,109.5,54.3,108.5,53.3,108.5z" class="st2"/><path d="M36,110.6L36,110.6L36,110.6c0,1.2,0.8,2.1,1.9,2.1h15.3c1,0,1.9-0.9,1.9-2.1l0,0l0,0H36z" class="st3"/><path d="M53.9,147.7H37.4c-1.1,0-2.1,0.9-2.1,2.1h20.5C55.9,148.7,55,147.7,53.9,147.7z" class="st2"/><path d="M35.4,149.8L35.4,149.8L35.4,149.8c0,1.2,0.9,2.1,2.1,2.1h16.4c1.1,0,2.1-0.9,2.1-2.1l0,0l0,0H35.4z" class="st3"/><path d="M54.4,183.2H36.9c-1,0-1.9,0.7-2.1,1.6h21.8C56.3,183.9,55.5,183.2,54.4,183.2z" class="st2"/><path d="M34.7,184.8c0,0.2-0.1,0.3-0.1,0.5l0,0c0,1.2,1,2.1,2.2,2.1h17.5c1.2,0,2.2-0.9,2.2-2.1l0,0 c0-0.2,0-0.4-0.1-0.5H34.7z" class="st3"/></g></g></g><g><g><g><path d="M262.2,133.7v6.8h0.9v-2.7c0-0.7,0.6-1.1,1.1-1.1c0.7,0,1.1,0.5,1.1,1.1v2.7h0.9v-2.7 c0-0.7,0.6-1.1,1.1-1.1c0.7,0,1.2,0.5,1.2,1.1v2.7h0.9v-2.7c0-0.7,0.6-1.1,1.1-1.1c0.7,0,1.2,0.5,1.2,1.1v2.7h0.9v-6.8 H262.2z" class="st3"/><g><path d="M269.7,137.2v0.7c0-0.7,0.6-1.1,1.1-1.1c0.7,0,1.2,0.5,1.2,1.1v-0.7c0-0.7-0.6-1.1-1.2-1.1 C270.2,136.1,269.7,136.5,269.7,137.2z" class="st4"/><path d="M266.4,137.2v0.7c0-0.7,0.6-1.1,1.1-1.1c0.7,0,1.2,0.5,1.2,1.1v-0.7c0-0.7-0.6-1.1-1.2-1.1 C266.9,136.1,266.4,136.5,266.4,137.2z" class="st4"/><path d="M263,137.2v0.7c0-0.7,0.6-1.1,1.1-1.1c0.7,0,1.1,0.5,1.1,1.1v-0.7c0-0.7-0.6-1.1-1.1-1.1 C263.6,136.1,263,136.5,263,137.2z" class="st4"/></g><g><g><polygon points="267 129.2 268 129.2 267.7 122.2 267.3 122.2" class="st5"/><path d="M267.2,125.3h0.4c0.4,0,0.7,0.3,0.7,0.6s-0.3,0.6-0.7,0.6h-0.4c-0.4,0-0.7-0.3-0.7-0.6 C266.7,125.6,266.9,125.3,267.2,125.3z" class="st5"/><polygon points="262.3 132.1 262.1 133.9 272.8 133.9 272.6 132.1" class="st3"/><g><path d="M262.2,130.7c-0.1,0.5-0.1,1,0,1.5c0,0.1,0,0.1,0,0.2c0,0.1,0,0.2,0.1,0.3h10.4v-0.1 c0-0.1,0.1-0.3,0.1-0.4c0.1-0.5,0.1-1,0-1.5c-0.2-1.6-1-2.7-2.1-3.5c-0.2-0.2-0.6-0.3-0.7-0.4c-0.6-0.3-1-0.6-1.6-0.8 h-1.8c-0.7,0.3-1.2,0.6-1.8,0.8c-0.2,0.1-0.6,0.3-0.7,0.4C263.1,127.9,262.4,129.1,262.2,130.7z" class="st3"/></g><path d="M262.2,132.5L262.2,132.5l-0.1,0.7h0.1h10.3c0.1,0,0.2,0,0.2,0v-0.4c0-0.1,0.1-0.2,0.1-0.2h-0.1 l0,0c-0.1,0-0.1,0-0.2,0L262.2,132.5C262.3,132.5,262.2,132.5,262.2,132.5z" class="st5"/><polygon points="273.8 134.5 261.3 134.5 261.7 134 273.3 134" class="st4"/><polygon points="261.7 134 262.1 133.5 272.9 133.5 273.3 134" class="st3"/></g><path d="M267.1,122.9c0,0.2,0.2,0.3,0.4,0.3c0.2,0,0.4-0.1,0.4-0.3s-0.2-0.3-0.4-0.3 C267.3,122.6,267.1,122.7,267.1,122.9z" class="st3"/><path d="M267.1,124.6c0,0.2,0.2,0.3,0.4,0.3c0.2,0,0.4-0.1,0.4-0.3c0-0.2-0.2-0.3-0.4-0.3 S267.1,124.4,267.1,124.6z" class="st3"/><path d="M267,123.7c0,0.2,0.2,0.4,0.5,0.4c0.3,0,0.5-0.2,0.5-0.4c0-0.2-0.2-0.4-0.5-0.4 C267.2,123.5,267,123.6,267,123.7z" class="st3"/><path d="M264.2,127.2c2.1-0.4,4.4-0.4,6.5-0.1c-0.1-0.1-0.2-0.1-0.3-0.2c-0.2-0.2-0.5-0.3-0.7-0.3 c-1.5-0.2-3.1-0.2-4.6,0c-0.3,0-0.6,0.1-0.7,0.3C264.3,127.1,264.3,127.1,264.2,127.2z" class="st5"/></g><rect width="10.7" height=".5" x="262.2" y="134.3" class="st4"/></g><g><polygon points="261.1 196.8 261.2 194.6 261.6 172 261.6 169.8 262.2 144.3 262.3 141.9 262.3 140.8 267 140.8 272.8 140.8 272.8 141.9 272.8 144.3 273.4 169.8 273.5 172 273.9 194.6 273.9 196.8 274.3 215.1 267 215.1 260.7 215.1" class="st3"/><polygon points="272.8 140.8 272.8 141.9 272.8 144.3 273.4 169.8 273.5 172 273.9 194.6 273.9 196.8 274.3 215.1 267 215.1 267 140.8" class="st9"/><polygon points="261.6 172 273.5 172 273.4 169.8 261.6 169.8" class="st4"/><polygon points="261.1 196.8 273.9 196.8 273.9 194.6 261.2 194.6" class="st4"/><polygon points="262.2 144.3 272.8 144.3 272.8 141.9 262.3 141.9" class="st4"/><path d="M262.2,140.5h10.7c0.7,0,1.3,0.7,1.3,1.5h-13.3C260.9,141.1,261.4,140.5,262.2,140.5z" class="st2"/><path d="M274.2,141.9L274.2,141.9L274.2,141.9c0,0.8-0.6,1.5-1.3,1.5h-10.7c-0.7,0-1.3-0.7-1.3-1.5l0,0l0,0 H274.2z" class="st3"/><path d="M261.8,168h11.5c0.7,0,1.4,0.7,1.4,1.5h-14.4C260.3,168.6,261,168,261.8,168z" class="st2"/><path d="M274.7,169.4L274.7,169.4L274.7,169.4c0,0.8-0.7,1.5-1.4,1.5h-11.5c-0.7,0-1.4-0.7-1.4-1.5l0,0l0,0 H274.7z" class="st3"/><path d="M261.3,192.7h12.3c0.7,0,1.3,0.5,1.5,1.1h-15.3C260,193.3,260.7,192.7,261.3,192.7z" class="st2"/><path d="M275.2,193.9c0,0.1,0.1,0.2,0.1,0.4l0,0c0,0.8-0.7,1.5-1.5,1.5h-12.3c-0.8,0-1.5-0.7-1.5-1.5l0,0 c0-0.1,0-0.3,0.1-0.4H275.2z" class="st3"/></g></g><g><g><path d="M288.8,98.8v9.7h1.3v-3.8c0-0.8,0.7-1.6,1.7-1.6c0.9,0,1.7,0.7,1.7,1.6v3.8h1.4v-3.8 c0-0.8,0.7-1.6,1.7-1.6c0.9,0,1.7,0.7,1.7,1.6v3.8h1.4v-3.8c0-0.8,0.7-1.6,1.7-1.6c0.9,0,1.7,0.7,1.7,1.6v3.8h1.3v-9.7 H288.8z" class="st3"/><g><path d="M299.4,103.8v0.9c0-0.8,0.7-1.6,1.7-1.6c0.9,0,1.7,0.7,1.7,1.6v-0.9c0-0.8-0.7-1.6-1.7-1.6 C300.2,102.2,299.4,102.8,299.4,103.8z" class="st4"/><path d="M294.8,103.8v0.9c0-0.8,0.7-1.6,1.7-1.6c0.9,0,1.7,0.7,1.7,1.6v-0.9c0-0.8-0.7-1.6-1.7-1.6 C295.5,102.2,294.8,102.8,294.8,103.8z" class="st4"/><path d="M290,103.8v0.9c0-0.8,0.7-1.6,1.7-1.6c0.9,0,1.7,0.7,1.7,1.6v-0.9c0-0.8-0.7-1.6-1.7-1.6 S290,102.8,290,103.8z" class="st4"/></g><g><g><polygon points="295.7 92.3 297.1 92.3 296.6 82.3 296.2 82.3" class="st5"/><path d="M296.1,86.9h0.6c0.5,0,0.9,0.4,0.9,0.8s-0.4,0.8-0.9,0.8h-0.6c-0.5,0-0.9-0.4-0.9-0.8 S295.5,86.9,296.1,86.9z" class="st5"/><polygon points="288.9 96.5 288.6 99.1 304 99.1 303.7 96.5" class="st3"/><g><path d="M288.8,94.4c-0.1,0.7-0.1,1.4,0,2.1c0,0.1,0,0.2,0,0.3c0,0.2,0.1,0.3,0.1,0.5h14.8v-0.1 c0-0.2,0.1-0.4,0.1-0.6c0.1-0.7,0.1-1.4,0-2.1c-0.3-2.2-1.5-3.8-3-4.9c-0.3-0.2-0.7-0.4-1.1-0.6 c-0.7-0.5-1.5-0.8-2.3-1.2h-2.5c-0.8,0.4-1.7,0.7-2.4,1.2c-0.3,0.2-0.7,0.4-1,0.6C290.1,90.6,289.1,92.2,288.8,94.4z" class="st3"/></g><path d="M288.8,97.1c0,0.1,0,0.1,0.1,0.2l-0.1,0.7c0,0,0.1,0,0.2,0h14.7c0.1,0,0.2,0,0.4,0l-0.1-0.6 c0-0.1,0.1-0.2,0.1-0.4c-0.1,0-0.1,0-0.2,0c0,0,0,0-0.1,0c-0.1,0-0.2,0-0.3,0H288.8C288.9,97.1,288.8,97.1,288.8,97.1z" class="st5"/><polygon points="305.3 99.9 287.6 99.9 288.1 99.2 304.7 99.2" class="st4"/><polygon points="288.1 99.2 288.7 98.5 304.1 98.5 304.7 99.2" class="st3"/></g><path d="M295.8,83.3c0,0.2,0.3,0.4,0.6,0.4s0.6-0.2,0.6-0.4s-0.3-0.4-0.6-0.4 C296.1,83,295.8,83.1,295.8,83.3z" class="st3"/><path d="M295.8,85.8c0,0.2,0.3,0.4,0.6,0.4s0.6-0.2,0.6-0.4c0-0.2-0.3-0.4-0.6-0.4 C296.1,85.4,295.8,85.6,295.8,85.8z" class="st3"/><path d="M295.7,84.6c0,0.3,0.3,0.5,0.7,0.5c0.4,0,0.7-0.2,0.7-0.5s-0.4-0.5-0.7-0.5S295.7,84.4,295.7,84.6z" class="st3"/><path d="M291.7,89.5c3.1-0.6,6.3-0.6,9.4-0.1c-0.1-0.1-0.2-0.2-0.4-0.3c-0.3-0.2-0.7-0.4-1.1-0.4 c-2.1-0.3-4.4-0.2-6.5,0.1c-0.4,0.1-0.7,0.2-1.1,0.5C291.9,89.3,291.8,89.4,291.7,89.5z" class="st5"/></g><rect width="15.3" height=".7" x="288.8" y="99.7" class="st4"/></g><g><polygon points="287.2 189 287.3 185.7 287.9 153.6 288 150.3 288.8 113.9 288.9 110.6 288.9 108.9 295.7 108.9 303.9 108.9 303.9 110.6 304 113.9 304.7 150.3 304.8 153.6 305.5 185.7 305.6 189 306.1 215.1 295.7 215.1 286.6 215.1" class="st3"/><polygon points="303.9 108.9 303.9 110.6 304 113.9 304.7 150.3 304.8 153.6 305.5 185.7 305.6 189 306.1 215.1 295.7 215.1 295.7 108.9" class="st9"/><polygon points="287.9 153.6 304.8 153.6 304.7 150.3 288 150.3" class="st4"/><polygon points="287.2 189 305.6 189 305.5 185.7 287.3 185.7" class="st4"/><polygon points="288.8 113.9 304 113.9 303.9 110.6 288.9 110.6" class="st4"/><path d="M288.8,108.5h15.3c1,0,1.9,0.9,1.9,2.1h-19.1C286.8,109.5,287.7,108.5,288.8,108.5z" class="st2"/><path d="M306,110.6L306,110.6L306,110.6c0,1.2-0.8,2.1-1.9,2.1h-15.3c-1,0-1.9-0.9-1.9-2.1l0,0l0,0H306z" class="st3"/><path d="M288.2,147.7h16.4c1.1,0,2.1,0.9,2.1,2.1h-20.5C286.2,148.7,287.1,147.7,288.2,147.7z" class="st2"/><path d="M306.7,149.8L306.7,149.8L306.7,149.8c0,1.2-0.9,2.1-2.1,2.1h-16.4c-1.1,0-2.1-0.9-2.1-2.1l0,0l0,0 H306.7z" class="st3"/><path d="M287.7,183.2h17.5c1,0,1.9,0.7,2.1,1.6h-21.8C285.7,183.9,286.6,183.2,287.7,183.2z" class="st2"/><path d="M307.3,184.8c0,0.2,0.1,0.3,0.1,0.5l0,0c0,1.2-1,2.1-2.2,2.1h-17.5c-1.2,0-2.2-0.9-2.2-2.1l0,0 c0-0.2,0-0.4,0.1-0.5H307.3z" class="st3"/></g></g></g></g><g><g><rect width="280" height="11.4" x="31" y="215.9" class="st5"/><rect width="280" height="5.4" x="31" y="210.5" class="st6"/><rect width="280" height="3.7" x="31" y="210" class="st2"/></g><g><path d="M44.4,227.3v-5.6c0-2.7-3.8-5.3-5.4-4.5c-2.1,0.7-3.7,2.7-3.7,4.5v5.6H44.4z" class="st2"/><path d="M56.9,227.3v-5.6c0-2.7-3.8-5.3-5.4-4.5c-2.1,0.7-3.7,2.7-3.7,4.5v5.6H56.9z" class="st2"/><path d="M69.5,227.3v-5.6c0-2.7-3.8-5.3-5.4-4.5c-2.1,0.7-3.7,2.7-3.7,4.5v5.6H69.5z" class="st2"/><path d="M82,227.3v-5.6c0-2.7-3.8-5.3-5.4-4.5c-2.1,0.7-3.7,2.7-3.7,4.5v5.6H82z" class="st2"/><path d="M94.4,227.3v-5.6c0-2.7-3.8-5.3-5.4-4.5c-2.1,0.7-3.7,2.7-3.7,4.5v5.6H94.4z" class="st2"/><path d="M106.9,227.3v-5.6c0-2.7-3.8-5.3-5.4-4.5c-2.1,0.7-3.7,2.7-3.7,4.5v5.6H106.9z" class="st2"/><path d="M119.4,227.3v-5.6c0-2.7-3.8-5.3-5.4-4.5c-2.1,0.7-3.7,2.7-3.7,4.5v5.6H119.4z" class="st2"/><path d="M131.8,227.3v-5.6c0-2.7-3.8-5.3-5.4-4.5c-2.1,0.7-3.7,2.7-3.7,4.5v5.6H131.8z" class="st2"/><path d="M144.3,227.3v-5.6c0-2.7-3.8-5.3-5.4-4.5c-2.1,0.7-3.7,2.7-3.7,4.5v5.6H144.3z" class="st2"/><path d="M156.8,227.3v-5.6c0-2.7-3.8-5.3-5.4-4.5c-2.1,0.7-3.7,2.7-3.7,4.5v5.6H156.8z" class="st2"/><path d="M169.3,227.3v-5.6c0-2.7-3.8-5.3-5.4-4.5c-2.1,0.7-3.7,2.7-3.7,4.5v5.6H169.3z" class="st2"/><path d="M181.7,227.3v-5.6c0-2.7-3.8-5.3-5.4-4.5c-2.1,0.7-3.7,2.7-3.7,4.5v5.6H181.7z" class="st2"/><path d="M194.2,227.3v-5.6c0-2.7-3.8-5.3-5.4-4.5c-2.1,0.7-3.7,2.7-3.7,4.5v5.6H194.2z" class="st2"/><path d="M206.7,227.3v-5.6c0-2.7-3.8-5.3-5.4-4.5c-2.1,0.7-3.7,2.7-3.7,4.5v5.6H206.7z" class="st2"/><path d="M219.2,227.3v-5.6c0-2.7-3.8-5.3-5.4-4.5c-2.1,0.7-3.7,2.7-3.7,4.5v5.6H219.2z" class="st2"/><path d="M231.7,227.3v-5.6c0-2.7-3.8-5.3-5.4-4.5c-2.1,0.7-3.7,2.7-3.7,4.5v5.6H231.7z" class="st2"/><path d="M244.2,227.3v-5.6c0-2.7-3.8-5.3-5.4-4.5c-2.1,0.7-3.7,2.7-3.7,4.5v5.6H244.2z" class="st2"/><path d="M256.7,227.3v-5.6c0-2.7-3.8-5.3-5.4-4.5c-2.1,0.7-3.7,2.7-3.7,4.5v5.6H256.7z" class="st2"/><path d="M269.1,227.3v-5.6c0-2.7-3.8-5.3-5.4-4.5c-2.1,0.7-3.7,2.7-3.7,4.5v5.6H269.1z" class="st2"/><path d="M281.6,227.3v-5.6c0-2.7-3.8-5.3-5.4-4.5c-2.1,0.7-3.7,2.7-3.7,4.5v5.6H281.6z" class="st2"/><path d="M294.1,227.3v-5.6c0-2.7-3.8-5.3-5.4-4.5c-2.1,0.7-3.7,2.7-3.7,4.5v5.6H294.1z" class="st2"/><path d="M306.5,227.3v-5.6c0-2.7-3.8-5.3-5.4-4.5c-2.1,0.7-3.7,2.7-3.7,4.5v5.6H306.5z" class="st2"/><rect width="280" height="3.7" x="31" y="226.9" class="st6"/></g></g></g></g></g></g></g></g></g></svg>