<svg xmlns="http://www.w3.org/2000/svg" xmlns:v="https://vecta.io/nano" xmlns:xlink="http://www.w3.org/1999/xlink" id="Layer_1" x="0" y="0" version="1.1" viewBox="0 0 64 64" xml:space="preserve" style="enable-background:new 0 0 64 64"><style type="text/css">.st0{fill:#21284f}.st1{fill:#d2d2d8}.st2{fill:url(#SVGID_1_)}.st3{fill:url(#SVGID_2_)}.st4{fill:#282e5b}.st5{fill:#1ac4ff}</style><circle cx="32" cy="32" r="32" class="st0"/><path d="M57.9,44.7C57.9,44.7,57.9,44.7,57.9,44.7c0,0.1,0,0.1-0.1,0.1c0,0,0,0,0,0c-4.7,9.5-14.5,16-25.8,16h0	c-11.3,0-21.1-6.5-25.8-16c0,0,0,0,0,0c0,0,0-0.1,0-0.1c0,0,0,0,0,0H8l0-0.2c0-3.2,1-6.6,2.8-9.4c1.9-2.9,4.4-5,7.2-6	c1.3-0.4,2.5-1,3.6-1.8c0.9-0.6,1.7-1.2,2.5-2c1.3-1.2,1.9-2.2,1.9-2.3c2-3.4,4-6.8,5.9-10.2c2,3.4,4,6.8,5.9,10.2	c0,0.1,0.7,1.1,1.9,2.3c0.8,0.7,1.6,1.4,2.5,2c1.1,0.7,2.3,1.3,3.6,1.8c2.8,1,5.4,3.1,7.2,6c1.9,2.9,2.9,6.2,2.8,9.4l0,0.3H57.9z" class="st1"/><linearGradient id="SVGID_1_" x1="6.123" x2="57.877" y1="44.672" y2="44.672" gradientUnits="userSpaceOnUse"><stop offset="0" style="stop-color:#adadad"/><stop offset=".5" style="stop-color:#c9c9c9"/><stop offset="1" style="stop-color:#adadad"/></linearGradient><path d="M57.9,44.7C57.9,44.7,57.9,44.7,57.9,44.7l-51.7,0c0,0,0,0,0,0H57.9z" class="st2"/><linearGradient id="SVGID_2_" x1="32" x2="32" y1="60.8" y2="3.2" gradientUnits="userSpaceOnUse"><stop offset="0" style="stop-color:#adadad"/><stop offset=".5" style="stop-color:#c9c9c9"/><stop offset="1" style="stop-color:#adadad"/></linearGradient><rect width="0" height="57.6" x="32" y="3.2" class="st3"/><path d="M60.8,32c0,0.9,0,1.7-0.1,2.6c0,0.1,0,0.2,0,0.3c0,0.1,0,0.2,0,0.3c0,0.1,0,0.2,0,0.3c0,0.1,0,0.2,0,0.3	c0,0.1,0,0.2,0,0.3c-0.1,0.7-0.2,1.3-0.3,1.9c0,0.1-0.1,0.2-0.1,0.4c-0.2,0.7-0.3,1.3-0.5,2c0,0.1-0.1,0.3-0.1,0.4	c0,0.1,0,0.1-0.1,0.2c-0.1,0.4-0.3,0.9-0.5,1.3c0,0.1-0.1,0.2-0.1,0.4c0,0.1-0.1,0.1-0.1,0.2c0,0.1-0.1,0.2-0.2,0.4	c-0.1,0.1-0.1,0.3-0.2,0.4c-0.1,0.3-0.3,0.6-0.4,0.9c0,0.1-0.1,0.1-0.1,0.2H56l0-0.3c0-3.2-1-6.6-2.8-9.4c-1.9-2.9-4.4-5-7.2-6	c-1.3-0.4-2.5-1-3.6-1.8c-0.9-0.6-1.7-1.2-2.5-2c-1.3-1.2-1.9-2.2-1.9-2.3c-2-3.4-4-6.8-5.9-10.2c-2,3.4-4,6.8-5.9,10.2	c0,0.1-0.7,1.1-1.9,2.3c-0.8,0.7-1.6,1.4-2.5,2c-1.1,0.7-2.3,1.3-3.6,1.8c-2.8,1-5.4,3.1-7.2,6C9,37.9,8,41.2,8,44.4l0,0.2H6.1	c0-0.1-0.1-0.1-0.1-0.2c-0.1-0.3-0.3-0.6-0.4-0.9c-0.1-0.1-0.1-0.3-0.2-0.4c-0.1-0.1-0.1-0.2-0.2-0.4c0-0.1-0.1-0.1-0.1-0.2	c0-0.1-0.1-0.2-0.1-0.4c-0.2-0.4-0.3-0.9-0.5-1.3c0-0.1,0-0.1-0.1-0.2c0-0.1-0.1-0.3-0.1-0.4c-0.2-0.7-0.4-1.3-0.5-2	c0-0.1-0.1-0.2-0.1-0.4c-0.1-0.6-0.3-1.3-0.3-1.9c0-0.1,0-0.2,0-0.3c0-0.1,0-0.2,0-0.3c0-0.1,0-0.2,0-0.3c0-0.1,0-0.2,0-0.3	c0-0.1,0-0.2,0-0.3c-0.1-0.8-0.1-1.7-0.1-2.6C3.2,16.1,16.1,3.2,32,3.2h0C47.9,3.2,60.8,16.1,60.8,32z" class="st4"/><path d="M56,44.4l0,0.3h-6.9l0-0.3c0,0,0,0,0,0c0-0.2,0-1.7-0.7-3.5c-0.4-1.1-1-2.1-1.8-2.9c-0.9-1.1-2.1-1.9-3.5-2.5	c-2.8-1.2-4.7-2.3-6.4-3.5c-1.8-1.3-3.3-2.9-4.7-4.9c-1.4,2-3,3.6-4.7,4.9c-1.7,1.2-3.6,2.3-6.4,3.5c-1.4,0.6-2.6,1.4-3.5,2.5	c-0.8,0.8-1.3,1.8-1.8,2.9c-0.7,1.7-0.7,3.2-0.7,3.5c0,0,0,0,0,0l0,0.2H8l0-0.2c0-3.2,1-6.6,2.8-9.4c1.9-2.9,4.4-5,7.2-6	c1.3-0.4,2.5-1,3.6-1.8c0.9-0.6,1.7-1.2,2.5-2c1.3-1.2,1.9-2.2,1.9-2.3c2-3.4,4-6.8,5.9-10.2c2,3.4,4,6.8,5.9,10.2	c0,0.1,0.7,1.1,1.9,2.3c0.8,0.7,1.6,1.4,2.5,2c1.1,0.7,2.3,1.3,3.6,1.8c2.8,1,5.4,3.1,7.2,6C55,37.8,56,41.2,56,44.4z" class="st5"/></svg>