<?xml version="1.0" encoding="utf-8"?>
<!-- Generator: Adobe Illustrator 23.0.5, SVG Export Plug-In . SVG Version: 6.00 Build 0)  -->
<svg version="1.1" id="Layer_1" xmlns:v="https://vecta.io/nano"
	 xmlns="http://www.w3.org/2000/svg" xmlns:xlink="http://www.w3.org/1999/xlink" x="0px" y="0px" viewBox="0 0 64 64"
	 style="enable-background:new 0 0 64 64;" xml:space="preserve">
<style type="text/css">
	.st0{fill:#5959F4;}
</style>
<path class="st0" d="M64,53v0.4h-0.4c-2.7,0-3.3,0-3.6,0c-0.1,0-0.1,0-0.3,0c-0.3,0-1.1,0-4.3,0h-0.5v-0.5c0,0,0-2.1-0.9-4.7
	c-0.5-1.5-1.3-2.8-2.4-3.9c-1.2-1.5-2.8-2.5-4.7-3.3c-3.7-1.6-6.3-3.1-8.6-4.7c-2.4-1.7-4.4-3.9-6.3-6.6c-1.9,2.7-4,4.8-6.3,6.6
	c-2.3,1.6-4.8,3.1-8.6,4.7c-1.9,0.8-3.5,1.9-4.7,3.3c-1.1,1.1-1.7,2.4-2.4,3.9c-0.9,2.5-0.9,4.7-0.9,4.7v0.5H8.6c-3.2,0-3.9,0-4.3,0
	c-0.1,0-0.1,0-0.3,0c-0.3,0-1.1,0-3.6,0H0V53c0-4.3,1.3-8.8,3.7-12.6c2.5-3.9,5.9-6.7,9.6-8c1.7-0.5,3.3-1.3,4.8-2.4
	c1.2-0.8,2.3-1.6,3.3-2.7c1.7-1.6,2.5-2.9,2.5-3.1c2.7-4.6,5.4-9.1,7.9-13.7c2.7,4.6,5.4,9.1,7.9,13.7c0,0.1,0.9,1.5,2.5,3.1
	c1.1,0.9,2.1,1.9,3.3,2.7c1.5,0.9,3.1,1.7,4.8,2.4c3.7,1.3,7.2,4.2,9.6,8C62.7,44.2,64,48.7,64,53z"/>
</svg>
