<svg xmlns="http://www.w3.org/2000/svg" xmlns:v="https://vecta.io/nano" xmlns:xlink="http://www.w3.org/1999/xlink" id="Layer_1" x="0" y="0" version="1.1" viewBox="0 0 135 135" xml:space="preserve" style="enable-background:new 0 0 135 135"><style type="text/css">.st0{fill:#8054ed}.st1{fill:#fff}</style><path d="M45.3,23L112,89.7V135L0,23H45.3z" class="st0"/><g><path d="M47.7,40.9l5.3,5.2l-1.6,1.6l-3.3-3.3l-2,2l3.1,3.1l-1.6,1.6L44.6,48l-3.4,3.5l-2-1.9L47.7,40.9z" class="st1"/><path d="M45.7,56.1l6.2-6.2l1.9,1.9L47.7,58L45.7,56.1z M55.7,50.1c-0.5,0.5-1.4,0.6-2-0.1c-0.6-0.6-0.6-1.4,0-2 c0.5-0.6,1.4-0.6,2,0C56.2,48.7,56.2,49.5,55.7,50.1z" class="st1"/><path d="M53.6,55.4c0.8-0.8,1.4-1.5,1.9-2l1.7,1.7L56.4,56l0,0c0.6-0.1,1.9-0.1,2.9,0.9c1.3,1.3,1.4,3.1-0.4,4.9 l-3.7,3.7l-1.9-1.9l3.4-3.5c0.8-0.8,1.1-1.6,0.4-2.3c-0.5-0.5-1.2-0.5-1.7-0.2c-0.2,0.1-0.4,0.2-0.6,0.4l-3.6,3.6l-1.9-1.9 L53.6,55.4z" class="st1"/><path d="M57,67.2l6.2-6.2l1.9,1.9l-6.2,6.2L57,67.2z M66.9,61.2c-0.5,0.5-1.4,0.6-2-0.1c-0.6-0.6-0.6-1.5,0-2 c0.5-0.6,1.4-0.6,2,0C67.5,59.8,67.4,60.6,66.9,61.2z" class="st1"/><path d="M62.3,69.1c0.1,0.6,0.6,1.6,1.2,2.1c0.6,0.6,1,0.6,1.4,0.3c0.3-0.3,0.3-0.7-0.2-1.6c-0.9-1.7-0.7-2.9,0.1-3.6 c1.2-1.2,3-1.1,4.6,0.5c0.7,0.7,1.2,1.5,1.4,2.1l-1.7,1c-0.1-0.4-0.5-1.2-1-1.7c-0.5-0.5-0.9-0.5-1.2-0.2c-0.3,0.3-0.2,0.7,0.3,1.7 c0.8,1.6,0.7,2.7-0.2,3.6c-1.2,1.2-2.9,1.1-4.7-0.7c-0.8-0.8-1.4-1.7-1.6-2.5L62.3,69.1z" class="st1"/><path d="M75.3,67.4l1.9,1.9l-3.5,3.6l0,0c0.5-0.1,0.9,0,1.4,0.1c0.4,0.1,0.9,0.4,1.2,0.8c1.2,1.2,1.3,3-0.5,4.9 l-3.6,3.7l-1.9-1.9l3.4-3.4c0.8-0.8,1.1-1.7,0.4-2.4c-0.5-0.5-1.2-0.5-1.6-0.3c-0.2,0.1-0.4,0.2-0.5,0.4l-3.7,3.7l-1.9-1.9 L75.3,67.4z" class="st1"/><path d="M77.9,83c-0.7,0.9-0.3,2,0.6,2.9c0.7,0.7,1.3,1.1,2,1.5L79.4,89c-0.9-0.4-1.8-1-2.7-1.8 c-2.1-2.1-2.1-4.6-0.2-6.5c1.6-1.6,4.3-2.4,6.5-0.2c2,2,1.2,4.3-0.3,5.9c-0.3,0.3-0.7,0.6-0.8,0.7L77.9,83z M81.5,83.9 c0.5-0.5,1.1-1.5,0.2-2.4c-0.8-0.8-1.9-0.4-2.5,0.1L81.5,83.9z" class="st1"/><path d="M95.8,87.8L88.7,95c-0.7,0.7-1.4,1.5-1.8,1.9l-1.7-1.7l0.8-1l0,0c-1.1,0.3-2.2-0.1-3-0.9 c-1.5-1.5-1.4-3.9,0.5-5.9c2.1-2.1,4.6-2,6.1-0.5c0.8,0.8,1.1,1.6,0.9,2.3l0,0l3.4-3.4L95.8,87.8z M88.4,91.3 c0.1-0.1,0.2-0.3,0.3-0.4c0.4-0.6,0.4-1.5-0.2-2.1c-0.9-0.9-2.1-0.5-3.1,0.4c-1.1,1.1-1.2,2.2-0.4,3c0.6,0.6,1.4,0.6,2.1,0.2 c0.2-0.1,0.3-0.2,0.5-0.4L88.4,91.3z" class="st1"/></g></svg>