<svg xmlns="http://www.w3.org/2000/svg" xmlns:v="https://vecta.io/nano" xmlns:xlink="http://www.w3.org/1999/xlink" id="Layer_1" x="0" y="0" version="1.1" viewBox="0 0 193 230" xml:space="preserve" style="enable-background:new 0 0 193 230"><style type="text/css">.st0{clip-path:url(#SVGID_2_)}.st1{opacity:.2}.st2{fill:#ffedcc}.st3{fill:#e3d3b5}.st4{fill:#a2987d}.st5{fill:#8b8169}.st6{fill:#d3c2a9}.st7{fill:#beb29b}</style><g><g><g><g><g><g><defs><rect id="SVGID_1_" width="192.2" height="230"/></defs><clipPath id="SVGID_2_"><use xlink:href="#SVGID_1_" style="overflow:visible"/></clipPath><g class="st0"><g class="st1"><g id="_x33_5"><g><rect width="50.8" height="13.2" x="115.1" y="35.2" class="st2"/><rect width="50.8" height="9.6" x="115.1" y="38.8" class="st3"/><polygon points="124.9 35.8 140.5 30.1 156.2 35.8" class="st2"/><rect width="98" height="67" x="91.5" y="41.2" class="st2"/><rect width="98" height="49.4" x="91.5" y="58.7" class="st3"/><rect width="126.7" height="45.4" x="77.1" y="62.7" class="st2"/><rect width="126.7" height="38.3" x="77.1" y="69.9" class="st3"/><rect width="153.9" height="30.3" x="63.6" y="77.9" class="st2"/><rect width="153.9" height="18.3" x="63.6" y="89.8" class="st3"/><g><path d="M221.2,105.8v124.3h-60c0-9.2,0-17.3,0-24.4c0-28.1,0.1-40.7-0.1-46.8c0-0.3,0-0.5,0-0.7 c-0.1-3.3-0.3-4.5-0.5-5.6v-0.1c-0.1-0.3-0.2-0.5-0.3-0.8c-0.3-1.1-0.6-2.1-1.1-3.1c0-0.1,0-0.1-0.1-0.1 c0-0.1-0.1-0.2-0.1-0.3l0,0l0,0c-0.1-0.2-0.1-0.3-0.2-0.5c-0.1-0.3-0.2-0.5-0.4-0.7c-0.1-0.1-0.1-0.3-0.2-0.4 c-0.3-0.5-0.6-1-0.8-1.4l0,0c-0.1-0.1-0.1-0.2-0.1-0.2c-0.1-0.2-0.2-0.4-0.4-0.6c-0.2-0.2-0.3-0.4-0.5-0.7 c-0.2-0.2-0.3-0.4-0.5-0.7c-0.1-0.1-0.2-0.2-0.3-0.3c-0.7-0.8-1.3-1.6-1.6-1.8l0,0c-0.3-0.3-0.7-0.6-1-1 c-0.7-0.6-1.5-1.2-2.2-1.7c-0.3-0.2-0.5-0.3-0.8-0.5c-0.1-0.1-0.2-0.1-0.3-0.2c-0.3-0.1-0.5-0.3-0.7-0.4 c-0.2-0.1-0.4-0.2-0.6-0.3c-0.3-0.1-0.5-0.3-0.8-0.3c-0.4-0.2-0.8-0.3-1.2-0.4c-0.4-0.1-0.8-0.3-1.2-0.3 c-0.4-0.1-0.8-0.2-1.2-0.3c-0.3-0.1-0.5-0.1-0.7-0.1c-0.7-0.3-3.8-0.7-7.7,0.4c-0.3,0.1-0.6,0.2-1,0.3 c-2.5,0.8-5.2,2.3-7.7,4.7c-0.3,0.3-0.6,0.6-1,1c-0.1,0.1-0.1,0.1-0.2,0.2c0,0-0.1,0.2-0.4,0.4c-0.2,0.2-0.4,0.4-0.5,0.7 c-0.5,0.6-1.1,1.4-1.5,2.1l0,0c-0.4,0.7-0.8,1.5-1.2,2.2c-0.2,0.3-0.3,0.7-0.5,1s-0.3,0.7-0.4,1 c-0.1,0.4-0.3,0.8-0.4,1.1c-0.2,0.5-0.3,0.9-0.3,1.2l0,0c0,0,0,0,0,0.1c-0.1,0.3-0.1,0.5-0.2,0.8 c-0.1,0.2-0.1,0.4-0.1,0.5c0,0.2-0.1,0.4-0.1,0.6c0,0.1,0,0.2-0.1,0.3c0,0.1,0,0.2,0,0.3s0,0.3-0.1,0.4 c0,0.3-0.1,0.7-0.1,1.1c0,0.1,0,0.2,0,0.4s0,0.4,0,0.6c0,0.3,0,0.5-0.1,0.8v0.2c-0.1,2.7-0.2,6.5-0.2,12.6 c0,4.7,0,10.7,0,18.6c0.1,10.3,0.1,23.7,0.1,41.3h-60V105.8H221.2z" class="st3"/><path d="M123.5,145.2c-0.5,0.8-0.9,1.5-1.2,2.2c-0.2,0.4-0.3,0.7-0.5,1s-0.3,0.7-0.4,1 c-0.2,0.4-0.3,0.8-0.4,1.1c-0.2,0.6-0.3,1-0.3,1.2c0,0,0,0,0,0.1c-0.1,0.3-0.1,0.5-0.2,0.8c0,0.2-0.1,0.4-0.1,0.5 c0,0.2-0.1,0.4-0.1,0.6c0,0.1,0,0.2-0.1,0.3c0,0.1,0,0.2,0,0.3s0,0.3-0.1,0.4c0,0.3-0.1,0.7-0.1,1.1c0,0.1,0,0.2,0,0.4 s0,0.4,0,0.6c0,0.3,0,0.5-0.1,0.8v0.2c-0.2,4.7-0.2,13.2-0.1,31.1c0.1,10.3,0.1,23.7,0.1,41.3h-2.4 c0-84.3-0.3-81,0.6-84.9h5.4V145.2z" class="st4"/><path d="M163.7,166.5c0,9.2,0,22.8,0,43.1v20.5h-2.4c0-9.2,0-17.3,0-24.4c0.1-27,0.2-39.9-0.1-46.8 c0-0.3,0-0.5,0-0.7c-0.1-2.6-0.3-4.3-0.5-5.6v-0.1c-0.3-1.6-0.7-2.6-1.3-3.9c0-0.1,0-0.1-0.1-0.1 c-0.1-0.1-0.1-0.2-0.1-0.3l0,0c-0.1-0.2-0.1-0.3-0.2-0.5c-0.1-0.3-0.2-0.5-0.4-0.7c-0.1-0.1-0.1-0.3-0.2-0.4 c-0.3-0.5-0.5-0.9-0.8-1.4h5.5c0.4,1.5,0.5,1.7,0.6,7.4c0,0.8,0,1.7,0,2.6c0,1.2,0,2.5,0,4.1c0,1.1,0,2.2,0,3.5 C163.7,164,163.7,165.2,163.7,166.5z" class="st4"/><path d="M163,145.2h-5.5c-0.1-0.1-0.1-0.2-0.1-0.2c-0.1-0.2-0.3-0.4-0.4-0.6c-0.2-0.2-0.3-0.4-0.5-0.7 c-0.2-0.2-0.3-0.5-0.5-0.7c-0.1-0.1-0.2-0.2-0.3-0.3c-0.5-0.6-1.1-1.2-1.6-1.8l0,0c-0.3-0.3-0.7-0.7-1-1 c-0.7-0.6-1.5-1.2-2.2-1.7c-0.3-0.2-0.5-0.3-0.8-0.5c-0.1-0.1-0.2-0.1-0.3-0.2c-0.3-0.1-0.5-0.3-0.7-0.4 c-0.2-0.1-0.4-0.2-0.6-0.3c-0.3-0.1-0.5-0.2-0.8-0.3c-0.4-0.2-0.8-0.3-1.2-0.4c-0.4-0.1-0.8-0.3-1.2-0.3 c-0.4-0.1-0.8-0.2-1.2-0.3c-2.8-0.6-5.7-0.5-8.4,0.3c-0.3,0.1-0.6,0.2-1,0.3c-2.8,0.9-5.4,2.5-7.7,4.7 c-0.3,0.3-0.6,0.6-1,1c-0.2,0.2-0.4,0.4-0.6,0.6c-0.2,0.2-0.4,0.4-0.5,0.7c-0.5,0.6-1,1.3-1.5,2.1H118 c2.4-10.3,11.5-17.9,22.5-17.9c6.3,0,12.1,2.6,16.2,6.7l0.1,0.1c1.9,1.9,3.5,4.1,4.6,6.6 C162.1,142.1,162.7,143.7,163,145.2z" class="st5"/></g><g><polygon points="178.4 116.9 178.4 230.1 173.6 230.1 173.6 121.7 107.4 121.7 107.4 230.1 102.7 230.1 102.7 116.9" class="st6"/></g><g><polygon points="229.2 95 228.3 96.6 52.7 96.6 51.9 95" class="st2"/><polygon points="228.3 96.6 226.2 100.6 54.8 100.6 52.7 96.6" class="st3"/><polygon points="226.2 100.6 223.2 106.3 57.8 106.3 54.8 100.6" class="st7"/></g><g><g><g><polygon points="117.3 159.4 117.3 162.9 55.8 162.9 54.6 159.4" class="st2"/><polygon points="117.3 162.9 117.3 166.5 57 166.5 55.8 162.9" class="st7"/></g><g><polygon points="117.3 209.6 117.3 213.1 55.8 213.1 54.6 209.6" class="st2"/><polygon points="117.3 213.1 117.3 216.7 57 216.7 55.8 213.1" class="st7"/></g><g><polygon points="117.3 223.2 117.3 226.7 53.4 226.7 53.3 226.5 53.3 223.2" class="st2"/><rect width="64" height="3.5" x="53.3" y="226.7" class="st7"/></g><g><polygon points="117.3 148.2 117.3 151.7 55.8 151.7 54.6 148.2" class="st2"/><polygon points="117.3 151.7 117.3 155.3 57 155.3 55.8 151.7" class="st7"/></g></g><g><g><polygon points="163.6 159.4 163.6 162.9 225.4 162.9 226.5 159.4" class="st2"/><polygon points="163.6 162.9 163.6 166.5 224.2 166.5 225.4 162.9" class="st7"/></g><g><polygon points="163.6 209.6 163.6 213.1 225.4 213.1 226.5 209.6" class="st2"/><polygon points="163.5 213.1 163.6 216.7 224.2 216.7 225.2 213.1" class="st7"/></g><g><rect width="64.1" height="3.5" x="163.6" y="223.2" class="st2"/><rect width="64.1" height="3.5" x="163.6" y="226.7" class="st7"/></g><g><polygon points="163.6 148.2 163.6 151.7 225.4 151.7 226.5 148.2" class="st2"/><polygon points="163.6 151.7 163.6 155.3 224.2 155.3 225.4 151.7" class="st7"/></g></g></g><g><g><path d="M93.3,126.8c0,4.8-3.9,8.8-8.8,8.8c-4.8,0-8.8-3.9-8.8-8.8c0-4.8,3.9-8.8,8.8-8.8 S93.3,122,93.3,126.8z" class="st7"/><path d="M91.2,126.8c0,3.7-3,6.7-6.7,6.7s-6.7-3-6.7-6.7s3-6.7,6.7-6.7C88.2,120.1,91.2,123.1,91.2,126.8z" class="st2"/></g><g><path d="M209.3,126.8c0,4.8-3.9,8.8-8.8,8.8c-4.8,0-8.8-3.9-8.8-8.8c0-4.8,3.9-8.8,8.8-8.8 C205.3,118,209.3,122,209.3,126.8z" class="st7"/><path d="M207.2,126.8c0,3.7-3,6.7-6.7,6.7s-6.7-3-6.7-6.7s3-6.7,6.7-6.7 C204.2,120.1,207.2,123.1,207.2,126.8z" class="st2"/></g></g><g><g><rect width="9.2" height="4.3" x="69" y="104.6" class="st7"/><rect width="9.2" height="3.1" x="69" y="101.5" class="st2"/></g><g><rect width="9.2" height="4.3" x="88.1" y="104.6" class="st7"/><rect width="9.2" height="3.1" x="88.1" y="101.5" class="st2"/></g><g><rect width="9.2" height="4.3" x="107.2" y="104.6" class="st7"/><rect width="9.2" height="3.1" x="107.2" y="101.5" class="st2"/></g><g><rect width="9.2" height="4.3" x="126.4" y="104.6" class="st7"/><rect width="9.2" height="3.1" x="126.4" y="101.5" class="st2"/></g><g><rect width="9.2" height="4.3" x="145.5" y="104.6" class="st7"/><rect width="9.2" height="3.1" x="145.5" y="101.5" class="st2"/></g><g><rect width="9.2" height="4.3" x="164.6" y="104.6" class="st7"/><rect width="9.2" height="3.1" x="164.6" y="101.5" class="st2"/></g><g><rect width="9.2" height="4.3" x="183.8" y="104.6" class="st7"/><rect width="9.2" height="3.1" x="183.8" y="101.5" class="st2"/></g><g><rect width="9.2" height="4.3" x="202.9" y="104.6" class="st7"/><rect width="9.2" height="3.1" x="202.9" y="101.5" class="st2"/></g></g><g><g><g><path d="M119.7,51.9c0,4-3.2,7.2-7.2,7.2s-7.2-3.2-7.2-7.2s3.2-7.2,7.2-7.2S119.7,47.9,119.7,51.9z" class="st3"/><path d="M118.1,51.9c0,3-2.5,5.5-5.5,5.5s-5.5-2.5-5.5-5.5s2.5-5.5,5.5-5.5S118.1,48.8,118.1,51.9z" class="st2"/></g><g><path d="M175.6,51.9c0,4-3.2,7.2-7.2,7.2s-7.2-3.2-7.2-7.2s3.2-7.2,7.2-7.2 C172.4,44.7,175.6,47.9,175.6,51.9z" class="st3"/><path d="M173.9,51.9c0,3-2.5,5.5-5.5,5.5s-5.5-2.5-5.5-5.5s2.5-5.5,5.5-5.5 C171.5,46.4,173.9,48.8,173.9,51.9z" class="st2"/></g></g><g><rect width="37.3" height="11.2" x="121.9" y="45.5" class="st7"/><rect width="34.3" height="8.8" x="123.4" y="46.3" class="st3"/></g></g></g></g></g></g></g></g></g></g></g></g></svg>