<svg xmlns="http://www.w3.org/2000/svg" xmlns:xlink="http://www.w3.org/1999/xlink" id="Layer_1" x="0" y="0" version="1.1" viewBox="0 0 64 64" xml:space="preserve" style="enable-background:new 0 0 64 64"><style type="text/css">.st0{fill:#896847}.st1{fill:#5050bc}.st2{fill:#6868ff}.st3{fill:#8080ff}.st4{fill:#4b4bdb}.st5{fill-rule:evenodd;clip-rule:evenodd;fill:url(#SVGID_1_)}.st6{fill:none;stroke:#5050bc;stroke-linecap:round}</style><rect width="4.3" height="33.9" x="30.1" class="st0"/><path d="M18.1,40.6c-3.5,0.9-2.9,5.9-1.5,11.1s3.4,9.8,6.9,8.8c3.5-0.9,5.2-6.6,3.9-11.7C25.9,43.7,21.6,39.7,18.1,40.6	z" class="st1"/><path d="M2,47.4c0-6.7,5.4-12.1,12.1-12.1h10.4V54H8.7C5,54,2,51,2,47.4z" class="st2"/><path d="M11.6,33.8c1.3,2.2-0.6,4-3,5.3c-2.3,1.4-4.8,2.1-6.1-0.1c-1.3-2.2-0.2-5.4,2.1-6.8C7,30.9,10.3,31.6,11.6,33.8	z" class="st3"/><path d="M3.2,45.9c-2.6,2.6,0.4,6.6,4.2,10.4s7.8,6.8,10.4,4.2s1.3-8.3-2.5-12.1S5.8,43.3,3.2,45.9z" class="st2"/><rect width="1.9" height="18.7" x="24.5" y="35.3" class="st4"/><rect width="31.9" height="18.7" x="17" y="35.3" class="st2"/><path d="M31.1,46c-2.6,2.6,0.4,6.6,4.2,10.4c3.8,3.8,7.8,6.8,10.4,4.2s1.3-8.3-2.5-12.1C39.4,44.7,33.6,43.4,31.1,46z" class="st2"/><path d="M42.3,42.2c-2.6,2.6,0.4,6.6,4.2,10.4s7.8,6.8,10.4,4.2c2.6-2.6,1.3-8.3-2.5-12.1C50.6,41,44.9,39.7,42.3,42.2z" class="st2"/><linearGradient id="SVGID_1_" x1="39.6" x2="39.6" y1="20.4" y2="63.5" gradientTransform="matrix(1 0 0 -1 0 66)" gradientUnits="userSpaceOnUse"><stop offset="0" style="stop-color:#6161f7"/><stop offset="1" style="stop-color:#7575fc"/></linearGradient><path d="M62,31.2c-0.3-1.9-1-5-3.1-8c-1.4-2.1-3.2-3.7-4.5-4.5c-1.2-0.7-2.2-1.1-2.2-1.1c-0.6-0.3-0.9-0.3-1.4-0.6	c0,0-0.9-0.4-1.9-1.1c-2.2-1.5-4.1-3.9-4.1-3.9c-2.9-3.6-5-8.1-5.6-9.5C37,8.6,34,12.8,32,14.4c-2.3,1.8-3.8,2.5-3.8,2.5	c-0.4,0.2-1.2,0.5-2.2,1c0,0-1,0.5-1.8,1c-2.7,1.7-4.5,4.4-4.5,4.4c-2.4,3.5-2.6,7.3-2.6,8.8v0.4c0,0.2,0,0.4,0,0.6	c0,10.5,10.9,12.5,22.5,12.5c9.1,0,17.8-1.4,21.1-7c1.4-2.4,1.4-5.5,1.4-5.5C62,32.3,62,31.6,62,31.2z" class="st5"/><g><path d="M39.5,33.4c0.2,1.5-0.4,4.3-3.2,4.3" class="st6"/><path d="M39.5,33.4c-0.2,1.5,0.4,4.3,3.2,4.3" class="st6"/><ellipse cx="34.4" cy="28.9" class="st1" rx="2.2" ry="3.6"/><ellipse cx="44.6" cy="28.9" class="st1" rx="2.2" ry="3.6"/></g></svg>