<?xml version="1.0" encoding="utf-8"?>
<!-- Generator: Adobe Illustrator 23.0.5, SVG Export Plug-In . SVG Version: 6.00 Build 0)  -->
<svg version="1.1" id="Layer_1" xmlns="http://www.w3.org/2000/svg" xmlns:xlink="http://www.w3.org/1999/xlink" x="0px" y="0px"
	 viewBox="0 0 64 64" style="enable-background:new 0 0 64 64;" xml:space="preserve">
<style type="text/css">
	.st0{fill:#896847;}
	.st1{fill:#5050BC;}
	.st2{fill:#6868FF;}
	.st3{fill:#8080FF;}
	.st4{fill-rule:evenodd;clip-rule:evenodd;fill:url(#SVGID_1_);}
	.st5{fill:none;stroke:#5050BC;stroke-linecap:round;}
</style>
<rect x="30.1" y="0.2" class="st0" width="4.3" height="33.9"/>
<path class="st1" d="M44.9,42.8c3.3,1.4,2,6.3-0.2,11.2s-4.8,9.2-8.2,7.7c-3.3-1.4-4.1-7.3-2.1-12.2C36.8,44.7,41.6,41.3,44.9,42.8z
	"/>
<path class="st2" d="M59.8,51.9c1-6.6-3.5-12.8-10.1-13.8l-10.3-1.6L36.6,55l15.6,2.4C55.9,58,59.3,55.5,59.8,51.9z"/>
<path class="st3" d="M52.4,37c-1.6,2,0,4,2.2,5.7c2.1,1.7,4.4,2.8,6,0.8s1-5.3-1-7C57.4,34.9,54,35,52.4,37z"/>
<path class="st2" d="M58.9,50.3c2.2,3-1.4,6.5-5.7,9.6s-8.7,5.5-10.9,2.6c-2.2-3,0-8.4,4.3-11.6S56.7,47.3,58.9,50.3z"/>
<rect x="20.3" y="28.6" transform="matrix(0.1512 -0.9885 0.9885 0.1512 -18.8466 67.1021)" class="st2" width="18.7" height="31.9"/>
<path class="st2" d="M31.3,46.1c2.2,3-1.4,6.5-5.7,9.6c-4.3,3.2-8.7,5.5-10.9,2.6s0-8.4,4.3-11.6C23.3,43.6,29.2,43.2,31.3,46.1z"/>
<path class="st2" d="M20.8,40.7c2.2,3-1.4,6.5-5.7,9.6s-8.7,5.5-10.9,2.6c-2.2-3,0-8.4,4.3-11.6C12.8,38.2,18.6,37.8,20.8,40.7z"/>
<linearGradient id="SVGID_1_" gradientUnits="userSpaceOnUse" x1="46.5754" y1="19.1847" x2="46.5754" y2="62.1078" gradientTransform="matrix(-1.2581 -0.1512 0.1924 -0.9885 77.3318 70.4507)">
	<stop  offset="0" style="stop-color:#6161F7"/>
	<stop  offset="1" style="stop-color:#7575FC"/>
</linearGradient>
<path class="st4" d="M3,26.8C3.5,25,4.7,22,7.2,19.4c1.7-1.9,3.7-3.2,5.1-3.8c1.3-0.5,2.3-0.8,2.3-0.8c0.6-0.2,0.9-0.2,1.5-0.4
	c0,0,1-0.3,2-0.8c2.4-1.2,4.6-3.2,4.6-3.2c3.4-3.1,6.2-7.3,7-8.5c1.3,6.4,3.6,11,5.3,12.9c2,2.1,3.4,3,3.4,3c0.4,0.3,1.1,0.7,2,1.3
	c0,0,0.9,0.6,1.6,1.3c2.4,2.1,3.8,5,3.8,5c1.8,3.8,1.5,7.6,1.2,9.1l-0.1,0.4c0,0.2-0.1,0.4-0.1,0.6c-1.6,10.4-12.7,10.7-24.1,9
	c-9-1.4-17.4-4.1-19.8-10.1c-1-2.6-0.6-5.6-0.6-5.6C2.8,27.9,2.9,27.2,3,26.8z"/>
<g>
	<path class="st5" d="M27.4,34.8c-0.5,3-6.4,2-5.9-1"/>
	<ellipse transform="matrix(0.1512 -0.9885 0.9885 0.1512 -2.4355 54.6374)" class="st1" cx="30.6" cy="28.7" rx="3.6" ry="2.2"/>
	<ellipse transform="matrix(0.1512 -0.9885 0.9885 0.1512 -9.4697 43.3616)" class="st1" cx="20.5" cy="27.2" rx="3.6" ry="2.2"/>
</g>
</svg>
