<svg xmlns="http://www.w3.org/2000/svg" xmlns:xlink="http://www.w3.org/1999/xlink" id="Layer_1" x="0" y="0" version="1.1" viewBox="0 0 64 64" xml:space="preserve" style="enable-background:new 0 0 64 64"><style type="text/css">.st0{fill:#896847}.st1{fill:#5050bc}.st2{fill:#6868ff}.st3{fill:#8080ff}.st4{fill-rule:evenodd;clip-rule:evenodd;fill:url(#SVGID_1_)}.st5{fill:none;stroke:#5050bc;stroke-linecap:round}</style><rect width="4.3" height="33.9" x="29.7" class="st0" transform="matrix(-1 -1.224647e-16 1.224647e-16 -1 63.6495 33.851)"/><path d="M46,40.6c3.5,0.9,2.9,5.9,1.5,11.1c-1.4,5.2-3.4,9.8-6.9,8.8c-3.5-0.9-5.2-6.6-3.9-11.7	C38.2,43.7,42.5,39.7,46,40.6z" class="st1"/><path d="M62.1,47.4c0-6.7-5.4-12.1-12.1-12.1H39.6V54h15.8C59.1,54,62.1,51,62.1,47.4z" class="st2"/><path d="M52.5,33.8c-1.3,2.2,0.6,4,3,5.3c2.3,1.4,4.8,2.1,6.1-0.1c1.3-2.2,0.2-5.4-2.1-6.8	C57.1,30.9,53.8,31.6,52.5,33.8z" class="st3"/><path d="M60.9,45.9c2.6,2.6-0.4,6.6-4.2,10.4s-7.8,6.8-10.4,4.2c-2.6-2.6-1.3-8.3,2.5-12.1	C52.6,44.6,58.3,43.3,60.9,45.9z" class="st2"/><rect width="31.9" height="18.7" x="15.2" y="35.3" class="st2"/><path d="M33,46c2.6,2.6-0.4,6.6-4.2,10.4c-3.8,3.8-7.8,6.8-10.4,4.2c-2.6-2.6-1.3-8.3,2.5-12.1	C24.7,44.7,30.5,43.4,33,46z" class="st2"/><path d="M21.8,42.2c2.6,2.6-0.4,6.6-4.2,10.4c-3.8,3.8-7.8,6.8-10.4,4.2c-2.6-2.6-1.3-8.3,2.5-12.1	C13.5,41,19.2,39.7,21.8,42.2z" class="st2"/><linearGradient id="SVGID_1_" x1="21.204" x2="21.204" y1="45.585" y2="2.474" gradientTransform="matrix(-0.4746 0 0 1 34.6714 0)" gradientUnits="userSpaceOnUse"><stop offset="0" style="stop-color:#6161f7"/><stop offset="1" style="stop-color:#7575fc"/></linearGradient><path d="M2.1,31.2c0.3-1.9,1-5,3.1-8c1.4-2.1,3.2-3.7,4.5-4.5c1.2-0.7,2.2-1.1,2.2-1.1c0.6-0.3,0.9-0.3,1.4-0.6	c0,0,0.9-0.4,1.9-1.1c2.2-1.5,4.1-3.9,4.1-3.9c2.9-3.6,5-8.1,5.6-9.5c2.1,6.1,5.1,10.3,7.1,11.9c2.3,1.8,3.8,2.5,3.8,2.5	c0.4,0.2,1.2,0.5,2.2,1c0,0,1,0.5,1.8,1c2.7,1.7,4.5,4.4,4.5,4.4c2.4,3.5,2.6,7.3,2.6,8.8v0.4c0,0.2,0,0.4,0,0.6	c0,10.5-10.9,12.5-22.5,12.5c-9.1,0-17.8-1.4-21.1-7c-1.4-2.4-1.4-5.5-1.4-5.5C2.1,32.3,2.1,31.6,2.1,31.2z" class="st4"/><g><path d="M24.6,33.4c-0.2,1.5,0.4,4.3,3.2,4.3" class="st5"/><path d="M24.6,33.4c0.2,1.5-0.4,4.3-3.2,4.3" class="st5"/><ellipse cx="29.7" cy="28.9" class="st1" rx="2.2" ry="3.6"/><ellipse cx="19.5" cy="28.9" class="st1" rx="2.2" ry="3.6"/></g></svg>