<?xml version="1.0" encoding="utf-8"?>
<!-- Generator: Adobe Illustrator 23.0.5, SVG Export Plug-In . SVG Version: 6.00 Build 0)  -->
<svg version="1.1" id="Layer_1" xmlns="http://www.w3.org/2000/svg" xmlns:xlink="http://www.w3.org/1999/xlink" x="0px" y="0px"
	 viewBox="0 0 64 64" style="enable-background:new 0 0 64 64;" xml:space="preserve">
<style type="text/css">
	.st0{fill:#896847;}
	.st1{fill:#5050BC;}
	.st2{fill:#6868FF;}
	.st3{fill:#8080FF;}
	.st4{fill-rule:evenodd;clip-rule:evenodd;fill:url(#SVGID_1_);}
	.st5{fill:none;stroke:#5050BC;stroke-linecap:round;}
</style>
<rect x="29.7" transform="matrix(-1 -1.224647e-16 1.224647e-16 -1 63.6495 33.851)" class="st0" width="4.3" height="33.9"/>
<path class="st1" d="M46,40.6c3.5,0.9,2.9,5.9,1.5,11.1c-1.4,5.2-3.4,9.8-6.9,8.8c-3.5-0.9-5.2-6.6-3.9-11.7
	C38.2,43.7,42.5,39.7,46,40.6z"/>
<path class="st2" d="M62.1,47.4c0-6.7-5.4-12.1-12.1-12.1H39.6V54h15.8C59.1,54,62.1,51,62.1,47.4z"/>
<path class="st3" d="M52.5,33.8c-1.3,2.2,0.6,4,3,5.3c2.3,1.4,4.8,2.1,6.1-0.1c1.3-2.2,0.2-5.4-2.1-6.8
	C57.1,30.9,53.8,31.6,52.5,33.8z"/>
<path class="st2" d="M60.9,45.9c2.6,2.6-0.4,6.6-4.2,10.4s-7.8,6.8-10.4,4.2c-2.6-2.6-1.3-8.3,2.5-12.1
	C52.6,44.6,58.3,43.3,60.9,45.9z"/>
<rect x="15.2" y="35.3" class="st2" width="31.9" height="18.7"/>
<path class="st2" d="M33,46c2.6,2.6-0.4,6.6-4.2,10.4c-3.8,3.8-7.8,6.8-10.4,4.2c-2.6-2.6-1.3-8.3,2.5-12.1
	C24.7,44.7,30.5,43.4,33,46z"/>
<path class="st2" d="M21.8,42.2c2.6,2.6-0.4,6.6-4.2,10.4c-3.8,3.8-7.8,6.8-10.4,4.2c-2.6-2.6-1.3-8.3,2.5-12.1
	C13.5,41,19.2,39.7,21.8,42.2z"/>
<linearGradient id="SVGID_1_" gradientUnits="userSpaceOnUse" x1="21.2045" y1="45.5851" x2="21.2045" y2="2.4744" gradientTransform="matrix(-0.4746 0 0 1 34.6714 0)">
	<stop  offset="0" style="stop-color:#6161F7"/>
	<stop  offset="1" style="stop-color:#7575FC"/>
</linearGradient>
<path class="st4" d="M2.1,31.2c0.3-1.9,1-5,3.1-8c1.4-2.1,3.2-3.7,4.5-4.5c1.2-0.7,2.2-1.1,2.2-1.1c0.6-0.3,0.9-0.3,1.4-0.6
	c0,0,0.9-0.4,1.9-1.1c2.2-1.5,4.1-3.9,4.1-3.9c2.9-3.6,5-8.1,5.6-9.5c2.1,6.1,5.1,10.3,7.1,11.9c2.3,1.8,3.8,2.5,3.8,2.5
	c0.4,0.2,1.2,0.5,2.2,1c0,0,1,0.5,1.8,1c2.7,1.7,4.5,4.4,4.5,4.4c2.4,3.5,2.6,7.3,2.6,8.8v0.4c0,0.2,0,0.4,0,0.6
	c0,10.5-10.9,12.5-22.5,12.5c-9.1,0-17.8-1.4-21.1-7c-1.4-2.4-1.4-5.5-1.4-5.5C2.1,32.3,2.1,31.6,2.1,31.2z"/>
<g>
	<path class="st5" d="M24.6,33.4c-0.2,1.5,0.4,4.3,3.2,4.3"/>
	<path class="st5" d="M24.6,33.4c0.2,1.5-0.4,4.3-3.2,4.3"/>
	<ellipse class="st1" cx="29.7" cy="28.9" rx="2.2" ry="3.6"/>
	<ellipse class="st1" cx="19.5" cy="28.9" rx="2.2" ry="3.6"/>
</g>
</svg>
