<?xml version="1.0" encoding="utf-8"?>
<!-- Generator: Adobe Illustrator 23.0.5, SVG Export Plug-In . SVG Version: 6.00 Build 0)  -->
<svg version="1.1" id="Layer_1" xmlns:v="https://vecta.io/nano"
	 xmlns="http://www.w3.org/2000/svg" xmlns:xlink="http://www.w3.org/1999/xlink" x="0px" y="0px" viewBox="0 0 193 230"
	 style="enable-background:new 0 0 193 230;" xml:space="preserve">
<style type="text/css">
	.st0{clip-path:url(#SVGID_2_);}
	.st1{opacity:0.3;}
	.st2{fill:#DDEEF5;}
	.st3{fill:#C8DEE4;}
	.st4{fill:#C5D4DB;}
	.st5{fill:#B8D0D6;}
	.st6{fill:#8AA9B2;}
	.st7{fill:#AAC5CC;}
	.st8{fill:#EEFBFF;}
	.st9{fill:#D2E4E9;}
	.st10{fill:#7A9AA7;}
	.st11{fill:#B4CED6;}
	.st12{fill:#8A7A79;}
	.st13{fill:#867977;}
	.st14{fill:#AAA4A4;}
	.st15{fill:#5FB888;}
	.st16{fill:#978F8F;}
</style>
<g>
	<g>
		<g>
			<defs>
				<rect id="SVGID_1_" width="192.2" height="230"/>
			</defs>
			<clipPath id="SVGID_2_">
				<use xlink:href="#SVGID_1_"  style="overflow:visible;"/>
			</clipPath>
			<g class="st0">
				<g class="st1">
					<g id="_x32_8_2_">
						<g>
							<path class="st2" d="M147.9,199.2l2.9-0.2l32.6-2.1l-2.6-117.3c0,0,1-23.3-3.2-27.9c0,0-0.5,0.5-1.3,1.4
								c-5.3,5.8-24.7,28.3-30.3,49.7c-8.2,25.6-14.8,87.1-15.7,96.3H147.9z"/>
							<path class="st3" d="M183.4,196.9l-32.6,2.1c0.9-20.1,2.8-51.3,6.2-76.2c2.4-26.8,13.7-56.8,19.3-69.6
								c0.8-0.9,1.3-1.4,1.3-1.4c4.2,4.6,3.7,28.4,3.7,28.4L183.4,196.9z"/>
							<path class="st4" d="M133.1,199l-32.8-2.2l-2.8-0.2c0,0,1.9-21.9,12.6-64.9c8.4-36.7,46.3-67.8,56.7-75.7c0,0,0,0,0,0
								c1.6-1.2,2.5-1.9,2.6-1.9C123.8,126.9,133.1,199,133.1,199z"/>
							<path class="st2" d="M152.5,86.2c4.6-10.6,10.1-21.3,16.9-32.2c-0.1,0.1-1,0.7-2.6,1.9c0,0,0,0,0,0
								c-10.3,7.9-48,38.8-56.6,75.3C121.2,113.7,134.6,97.9,152.5,86.2z"/>
							<path class="st5" d="M110.2,131.3c0,0.1-0.1,0.3-0.1,0.4c-10.7,43-12.6,64.9-12.6,64.9l2.8,0.2l32.8,2.2
								c0,0-6.7-52.3,19.4-112.8C134.6,97.9,121.2,113.7,110.2,131.3z"/>
							<path class="st3" d="M166.8,56c-14.9,14.2-51.3,52.9-56.7,88.1c-3.3,24-7,41.3-9.8,52.8l-2.8-0.2c0,0,1.9-21.9,12.6-64.9
								C118.5,95.1,156.4,64,166.8,56z"/>
							<path class="st2" d="M79,198.8H40.9c-0.7-2.4-7.1-22.8-17.8-30.2c0,0,0.1,0,0.3-0.1c0.1,0,0.3-0.1,0.6-0.1
								c3.2-0.4,14.8-1.2,31,6.4C69.4,182.2,76.4,193.4,79,198.8z"/>
							<path class="st4" d="M50.6,198.8h-9.7c-0.7-2.4-7.1-22.8-17.8-30.2c0,0,0.1,0,0.3-0.1c0.1,0,0.3-0.1,0.6-0.1
								c3.8,1.2,10.8,5.3,19.5,18.5C47,192.3,49.2,196.1,50.6,198.8z"/>
							<path class="st6" d="M48.2,198.8h-7.2c-0.7-2.4-7.1-22.8-17.8-30.2c0,0,0.1,0,0.3-0.1c4.6,2.7,12.1,9.4,22.2,25.9
								C46.6,195.9,47.4,197.4,48.2,198.8z"/>
							<path class="st3" d="M57.1,199.1c2.8,0,6.4,0.1,10.5,0.1h45.3c0.8-0.1,1.3-0.1,1.2-0.2c-1-1,0.8-93,0.9-97.3
								c0-0.1,0-0.2,0-0.2S66.6,118,55.6,166.2c-5.3,25.6-4.2,32.8-4.2,32.8S53.6,199,57.1,199.1z"/>
							<path class="st2" d="M112.9,199.2c0.8-0.1,1.3-0.1,1.2-0.2c-1-1,0.8-93,0.9-97.3c-9.3,5-41.4,24.6-50.5,59.9
								c-4.1,17.4-6.3,29.5-7.4,37.5c2.8,0,6.4,0.1,10.5,0.1H112.9z"/>
							<path class="st3" d="M185.9,199.2C184.5,136.8,154.7,98,154.7,98c-0.2,0.2-0.5,0.5-0.7,0.7c-35.5,36.1-41.6,78.8-41.9,100.5
								H185.9z"/>
							<path class="st7" d="M118.6,158.5c-4.9,16.2-6.3,30.7-6.4,40.7h5.6C116.1,185.8,116.6,172.1,118.6,158.5z"/>
							<path class="st2" d="M185.9,199.2C184.5,136.8,154.7,98,154.7,98c-0.2,0.2-0.5,0.5-0.7,0.7c-6.7,10.3-22.6,41.7-26.7,100.5
								H185.9z"/>
							<g>
								<path class="st8" d="M107.6,199.2h19c-0.8-1.3-3.1-4.7-9.7-13.6c-16.4-18-44.4-22.2-44.7-21.7
									C66.8,174.9,99.4,194.5,107.6,199.2z"/>
								<path class="st9" d="M122,199.2c-5.5-6.4-11.9-11.9-18.2-16.4c-11.4-8.3-23.1-15.5-31.5-18.9c-3.1,3.3-7.5,10.6-10.5,19.2
									c-2.2,6.2-4.4,12.1-4.6,16.1H122z"/>
								<path class="st7" d="M118.7,199.2c-5.1-5.9-11-11.1-16.9-15.4c-10.6-7.7-21.4-14.5-29.2-17.7c-2.9,3.1-7,9.9-9.8,18
									c-2,5.8-4,11.3-4.3,15H118.7z"/>
								<path class="st10" d="M119.5,199.2c-3.3-4.1-6.8-7.2-10.4-10c-8.3,2.3-16.2,5.9-23.8,10H119.5z"/>
								<path class="st6" d="M85.3,199.2c7.6-4.1,15.5-7.7,23.8-10c-2.3-1.8-4.7-3.5-7.3-5.4c-13.4,3.1-23.6,9.7-30.4,15.4H85.3z"/>
							</g>
						</g>
						<g>
							<path class="st2" d="M215.2,199.2l-2.9-0.2l-32.6-2.1l3.1-116.8c0,0-1.5-23.7,2.7-28.4c0,0,0.5,0.5,1.3,1.4
								c5.3,5.8,24.7,28.3,30.3,49.7c8.2,25.6,14.8,87.1,15.7,96.3H215.2z"/>
							<path class="st5" d="M179.7,196.9l32.6,2.1c-0.9-20.1-2.8-51.3-6.2-76.2C203.7,96,192.4,66,186.8,53.2
								c-0.8-0.9-1.3-1.4-1.3-1.4c-4.2,4.6-3.7,28.4-3.7,28.4L179.7,196.9z"/>
							<path class="st4" d="M229.9,199l32.8-2.2l2.8-0.2c0,0-1.9-21.9-12.6-64.9C244.5,95.1,206.6,64,196.3,56c0,0,0,0,0,0
								c-1.6-1.2-2.5-1.9-2.6-1.9C239.2,126.9,229.9,199,229.9,199z"/>
							<path class="st2" d="M210.5,86.2c-4.6-10.6-10.1-21.3-16.9-32.2c0.1,0.1,1,0.7,2.6,1.9c0,0,0,0,0,0
								c10.3,7.9,48,38.8,56.6,75.3C241.9,113.7,228.5,97.9,210.5,86.2z"/>
							<path class="st3" d="M252.9,131.3c0,0.1,0.1,0.3,0.1,0.4c10.7,43,12.6,64.9,12.6,64.9l-2.8,0.2l-32.8,2.2
								c0,0,6.7-52.3-19.4-112.8C228.5,97.9,241.9,113.7,252.9,131.3z"/>
							<path class="st8" d="M196.3,56c14.9,14.2,51.3,52.9,56.7,88.1c3.3,24,7,41.3,9.8,52.8l2.8-0.2c0,0-1.9-21.9-12.6-64.9
								C244.5,95.1,206.6,64,196.3,56z"/>
							<path class="st8" d="M284.1,198.8h38.1c0.7-2.4,7.1-22.8,17.8-30.2c0,0-0.1,0-0.3-0.1c-0.1,0-0.3-0.1-0.6-0.1
								c-3.2-0.4-14.8-1.2-31,6.4C293.6,182.2,286.7,193.4,284.1,198.8z"/>
							<path class="st4" d="M312.4,198.8h9.7c0.7-2.4,7.1-22.8,17.8-30.2c0,0-0.1,0-0.3-0.1c-0.1,0-0.3-0.1-0.6-0.1
								c-3.8,1.2-10.8,5.3-19.5,18.5C316.1,192.3,313.8,196.1,312.4,198.8z"/>
							<path class="st11" d="M314.9,198.8h7.2c0.7-2.4,7.1-22.8,17.8-30.2c0,0-0.1,0-0.3-0.1c-4.6,2.7-12.1,9.4-22.2,25.9
								C316.5,195.9,315.6,197.4,314.9,198.8z"/>
							<path class="st8" d="M305.9,199.1c-2.8,0-6.4,0.1-10.5,0.1h-45.3c-0.8-0.1-1.3-0.1-1.2-0.2c1-1-0.8-93-0.9-97.3
								c0-0.1,0-0.2,0-0.2s48.4,16.5,59.3,64.7c5.3,25.6,4.2,32.8,4.2,32.8S309.4,199,305.9,199.1z"/>
							<path class="st2" d="M250.2,199.2c-0.8-0.1-1.3-0.1-1.2-0.2c1-1-0.8-93-0.9-97.3c9.3,5,41.4,24.6,50.5,59.9
								c4.1,17.4,6.3,29.5,7.4,37.5c-2.8,0-6.4,0.1-10.5,0.1H250.2z"/>
							<path class="st8" d="M177.2,199.2C178.6,136.8,208.3,98,208.3,98c0.2,0.2,0.5,0.5,0.7,0.7c35.5,36.1,41.6,78.8,41.9,100.5
								H177.2z"/>
							<path class="st2" d="M244.4,158.5c4.9,16.2,6.3,30.7,6.4,40.7h-5.6C247,185.8,246.4,172.1,244.4,158.5z"/>
							<path class="st3" d="M177.2,199.2C178.6,136.8,208.3,98,208.3,98c0.2,0.2,0.5,0.5,0.7,0.7c6.7,10.3,22.6,41.7,26.7,100.5
								H177.2z"/>
							<g>
								<path class="st8" d="M255.4,199.2h-19c0.8-1.3,3.1-4.7,9.7-13.6c16.4-18,44.4-22.2,44.7-21.7
									C296.2,174.9,263.6,194.5,255.4,199.2z"/>
								<path class="st9" d="M241,199.2c5.5-6.4,11.9-11.9,18.2-16.4c11.4-8.3,23.1-15.5,31.5-18.9c3.1,3.3,7.5,10.6,10.5,19.2
									c2.2,6.2,4.4,12.1,4.6,16.1H241z"/>
								<path class="st11" d="M244.3,199.2c5.1-5.9,11-11.1,16.9-15.4c10.6-7.7,21.4-14.5,29.2-17.7c2.9,3.1,7,9.9,9.8,18
									c2,5.8,4,11.3,4.3,15H244.3z"/>
								<path class="st10" d="M243.5,199.2c3.3-4.1,6.8-7.2,10.4-10c8.3,2.3,16.2,5.9,23.8,10H243.5z"/>
								<path class="st6" d="M277.8,199.2c-7.6-4.1-15.5-7.7-23.8-10c2.3-1.8,4.7-3.5,7.3-5.4c13.4,3.1,23.6,9.7,30.4,15.4H277.8z"
									/>
							</g>
						</g>
						<g>
							<path class="st8" d="M174.1,198.8l9.8-0.8l9.8,0.8H229c-6.2-8.2-25-31.5-44.7-39.4V159c-0.1,0-0.2,0.1-0.4,0.1
								c-0.1,0-0.2-0.1-0.4-0.1v0.3c-19.8,7.9-38.6,31.2-44.7,39.4H174.1z"/>
							<path class="st7" d="M184.3,163.2v-0.3c-0.1,0-0.2,0.1-0.3,0.1c-0.1,0-0.2-0.1-0.3-0.1v0.3c0,0,0,0,0,0v35.2l0.4,0l6,0.4
								h37.9C221.6,191.1,203.4,170.3,184.3,163.2z"/>
							<path class="st11" d="M140.1,198.8H178l5.6-0.4v-35.2C164.5,170.3,146.3,191.1,140.1,198.8z"/>
							<path class="st6" d="M178,198.8l6-0.4l6,0.4h35c-9.5-6.6-25.6-16.1-40.6-17.3v-0.1c-0.1,0-0.2,0-0.3,0c-0.1,0-0.2,0-0.3,0
								v0.1c-15,1.1-31.2,10.7-40.6,17.3H178z"/>
							<path class="st10" d="M216.8,198.8c-8-4.6-20.7-10.8-32.5-11.6v0c-0.1,0-0.2,0-0.3,0c-0.1,0-0.2,0-0.3,0v0
								c-11.8,0.8-24.5,6.9-32.5,11.6H216.8z"/>
						</g>
						<g>
							<polygon class="st12" points="164.5,198.4 151.6,198.4 36.1,198.4 36.1,230.6 151.6,230.6 164.5,230.6 342.3,230.6 
								342.3,198.4 							"/>
							<g>
								<rect x="165" y="198.4" class="st13" width="48.3" height="32.2"/>
								<g>
									<rect x="165" y="204.2" class="st14" width="48.3" height="3.3"/>
									<rect x="165" y="211.1" class="st14" width="48.3" height="3.3"/>
									<rect x="165" y="218" class="st14" width="48.3" height="3.3"/>
									<rect x="165" y="224.8" class="st14" width="48.3" height="3.3"/>
									<rect x="165" y="197.4" class="st14" width="48.3" height="3.3"/>
								</g>
							</g>
							<g>
								<g>
									<g>
										<rect x="36" y="196.9" class="st2" width="131.7" height="4.5"/>
										<rect x="35.3" y="205.6" class="st2" width="133.3" height="4.5"/>
										<rect x="35.7" y="214.3" class="st2" width="127.8" height="4.5"/>
									</g>
									<rect x="36.1" y="222" class="st15" width="99.3" height="8.6"/>
									<rect x="142.4" y="222.5" class="st16" width="14.6" height="8.1"/>
								</g>
								<g>
									<g>
										<rect x="211" y="196.9" class="st2" width="131.4" height="4.5"/>
										<rect x="210.2" y="205.6" class="st2" width="132.9" height="4.5"/>
										<rect x="215.3" y="214.3" class="st2" width="127.5" height="4.5"/>
									</g>
									<rect x="243" y="222" class="st15" width="99.3" height="8.6"/>
									<rect x="221.4" y="222.5" class="st16" width="14.6" height="8.1"/>
								</g>
							</g>
						</g>
					</g>
				</g>
			</g>
		</g>
	</g>
</g>
</svg>
