<svg xmlns="http://www.w3.org/2000/svg" xmlns:v="https://vecta.io/nano" xmlns:xlink="http://www.w3.org/1999/xlink" id="Layer_1" x="0" y="0" version="1.1" viewBox="0 0 193 230" xml:space="preserve" style="enable-background:new 0 0 193 230"><style type="text/css">.st0{opacity:.1;clip-path:url(#SVGID_2_)}.st1{fill:#303060}.st2{fill:#7c7cf2}.st3{fill:#7575ea}</style><g><g><g><defs><rect id="SVGID_1_" width="192.2" height="230"/></defs><clipPath id="SVGID_2_"><use xlink:href="#SVGID_1_" style="overflow:visible"/></clipPath><g class="st0"><g><g><path d="M250,20.9c-0.1-3.7-1.6-7.1-4.3-9.6l-67-67c-5.6-5.6-14.3-5.6-19.9,0L54.2,48.8 c-2.7,2.7-4.3,6.5-4.2,10.3c0.1,3.7,1.6,7.1,4.3,9.6L68.6,83c2.5,2.5,6.4,2.8,9.2,0.7c8.2-6.1,19.6-5.3,26.6,1.8 c7.1,7.3,8,18.7,2,26.6c-2.1,2.8-1.9,6.8,0.6,9.3l14.4,14.4c2.7,2.7,6.3,4.2,10,4.2c0.1,0,0.2,0,0.3,0 c3.7-0.1,7.1-1.6,9.6-4.3L245.8,31.2C248.6,28.5,250.1,24.7,250,20.9z M131.3,125.8l-10.4-10.4c6.3-12.9,4-29-6.5-39.7 C104,65,87.8,62.6,74.6,69.1L64.2,58.7L168.7-45.8l67,67L131.3,125.8z" class="st1"/><path d="M235.8,21.3L131.3,125.8l-10.4-10.4c6.3-12.9,4-29-6.5-39.7C104,65,87.8,62.6,74.6,69.1L64.2,58.7 L168.7-45.8L235.8,21.3z" class="st2"/><path d="M235.8,21.3L131.3,125.8l-10.4-10.4c6.3-12.9,4-29-6.5-39.7C104,65,87.8,62.6,74.6,69.1L64.2,58.7 c23.8-10.3,54.1-20.9,90-28.2C184.9,24.2,212.6,21.8,235.8,21.3z" class="st3"/></g></g><g><g><path d="M137.2-25.2l3.2-3.2c1.9-1.9,4.9-1.8,6.8,0l11.4,11.5c1.9,1.9,1.8,4.9,0,6.8l-3.2,3.2 c-1.9,1.9-4.9,1.8-6.8,0l-11.4-11.5C135.3-20.3,135.3-23.3,137.2-25.2z" class="st1"/></g></g><g><g><path d="M197.1,34.9l3.2-3.2c1.9-1.9,4.9-1.9,6.8,0L218.6,43c1.9,1.9,1.9,4.9,0,6.8l-3.2,3.2 c-1.9,1.9-4.9,1.9-6.8,0L197,41.6C195.2,39.8,195.2,36.8,197.1,34.9z" class="st1"/></g></g><g><g><path d="M167.1,4.7l3.2-3.2c1.9-1.9,4.9-1.9,6.8,0l11.6,11.6c1.9,1.9,1.9,4.9,0,6.8l-3.2,3.2 c-1.9,1.9-4.9,1.9-6.8,0l-11.6-11.6C165.2,9.6,165.2,6.6,167.1,4.7z" class="st1"/></g></g><g><path d="M162.5,51.1c2.1,2.1,2.7,5,1.3,6.4s-4.3,0.8-6.4-1.3s-2.7-5-1.3-6.4C157.5,48.4,160.4,49,162.5,51.1z" class="st1"/><path d="M151.5,62.2c2.1,2.1,2.7,5,1.3,6.4s-4.3,0.8-6.4-1.3c-2.1-2.1-2.7-5-1.3-6.4 C146.5,59.5,149.3,60,151.5,62.2z" class="st1"/><path d="M182.4,38l0.4,0.4l-0.4,0.4c-2,2-2.6,2.6-2.8,2.8c-0.1,0.1-0.1,0.1-0.3,0.3s-0.8,0.8-3.2,3.3l-0.4,0.4 l-0.4-0.4c0,0-1.6-1.7-4.3-2.9c-1.6-0.7-3.2-1.1-4.8-1.2c-2-0.1-4.1,0.2-6.2,1.1c-4.1,1.7-7.2,2.5-10.1,3 c-3.2,0.5-6.3,0.4-9.8-0.2c0.6,3.6,0.7,6.7,0.2,9.9c-0.4,3-1.3,6-3,10.1c-0.8,2.1-1.2,4.1-1.1,6.2c0.1,1.6,0.5,3.3,1.2,4.8 c1.2,2.7,2.9,4.3,2.9,4.3l0.4,0.4l-0.4,0.4c-2.4,2.4-3,3-3.3,3.2c-0.1,0.1-0.1,0.1-0.3,0.3c-0.2,0.2-0.8,0.8-2.8,2.8l-0.4,0.4 l-0.4-0.4c-3.3-3.2-5.7-7.7-6.8-12.5c-1-4.8-0.5-9.6,1.3-13.5c0.8-1.7,1.5-3.6,1.9-5.4c0.3-1.5,0.5-3,0.5-4.6 c0.1-2.5-0.3-4.2-0.3-4.3c-1.5-5.5-2.9-11-4.4-16.6c5.5,1.5,11,2.9,16.5,4.4c0.1,0,1.8,0.4,4.3,0.3c1.5,0,3.1-0.2,4.6-0.5 c1.9-0.4,3.7-1,5.4-1.9c3.9-1.9,8.7-2.3,13.5-1.3C174.7,32.3,179.1,34.7,182.4,38z" class="st1"/></g></g></g></g></g></svg>