<svg xmlns="http://www.w3.org/2000/svg" xmlns:v="https://vecta.io/nano" xmlns:xlink="http://www.w3.org/1999/xlink" id="Layer_1" x="0" y="0" version="1.1" viewBox="0 0 64 64" xml:space="preserve" style="enable-background:new 0 0 64 64"><style type="text/css">.st0{fill:#303060}.st1{fill:#7c7cf2}.st2{fill:#7575ea}</style><g><g><path d="M64,25.9c0-1.2-0.5-2.3-1.4-3.1L41.2,1.3c-1.8-1.8-4.6-1.8-6.4,0L1.3,34.8C0.5,35.7,0,36.9,0,38.1 c0,1.2,0.5,2.3,1.4,3.1L6,45.8c0.8,0.8,2,0.9,2.9,0.2c2.6-1.9,6.3-1.7,8.5,0.6c2.3,2.3,2.6,6,0.6,8.5c-0.7,0.9-0.6,2.2,0.2,3 l4.6,4.6c0.9,0.9,2,1.3,3.2,1.3h0.1c1.2,0,2.3-0.5,3.1-1.4l33.4-33.4C63.5,28.3,64,27.1,64,25.9z M26,59.4l-3.3-3.3 c2-4.1,1.3-9.3-2.1-12.7c-3.3-3.4-8.5-4.2-12.7-2.1L4.6,38L38,4.6L59.4,26L26,59.4z" class="st0"/><path d="M59.4,26L26,59.4l-3.3-3.3c2-4.1,1.3-9.3-2.1-12.7c-3.3-3.4-8.5-4.2-12.7-2.1L4.6,38L38,4.6L59.4,26z" class="st1"/><path d="M59.4,26L26,59.4l-3.3-3.3c2-4.1,1.3-9.3-2.1-12.7c-3.3-3.4-8.5-4.2-12.7-2.1L4.6,38c7.6-3.3,17.3-6.7,28.8-9 C43.2,27,52,26.2,59.4,26z" class="st2"/></g></g><g><g><path d="M27.9,11.1l1-1c0.6-0.6,1.6-0.6,2.2,0l3.6,3.7c0.6,0.6,0.6,1.6,0,2.2l-1,1c-0.6,0.6-1.6,0.6-2.2,0l-3.6-3.7 C27.3,12.7,27.3,11.7,27.9,11.1z" class="st0"/></g></g><g><g><path d="M47.1,30.4l1-1c0.6-0.6,1.6-0.6,2.2,0L54,33c0.6,0.6,0.6,1.6,0,2.2l-1,1c-0.6,0.6-1.6,0.6-2.2,0l-3.7-3.6 C46.5,31.9,46.5,31,47.1,30.4z" class="st0"/></g></g><g><g><path d="M37.5,20.7l1-1c0.6-0.6,1.6-0.6,2.2,0l3.7,3.7c0.6,0.6,0.6,1.6,0,2.2l-1,1c-0.6,0.6-1.6,0.6-2.2,0l-3.7-3.7 C36.9,22.3,36.9,21.3,37.5,20.7z" class="st0"/></g></g><g><path d="M36,35.6c0.7,0.7,0.9,1.6,0.4,2s-1.4,0.3-2-0.4c-0.7-0.7-0.9-1.6-0.4-2C34.4,34.7,35.3,34.9,36,35.6z" class="st0"/><path d="M32.5,39.1c0.7,0.7,0.9,1.6,0.4,2c-0.4,0.4-1.4,0.3-2-0.4c-0.7-0.7-0.9-1.6-0.4-2 C30.9,38.2,31.8,38.4,32.5,39.1z" class="st0"/><path d="M42.4,31.4l0.1,0.1l-0.1,0.1c-0.6,0.6-0.8,0.8-0.9,0.9c0,0,0,0-0.1,0.1s-0.3,0.3-1,1l-0.1,0.1l-0.1-0.1 c0,0-0.5-0.5-1.4-0.9c-0.5-0.2-1-0.3-1.5-0.4c-0.7,0-1.3,0.1-2,0.3c-1.3,0.5-2.3,0.8-3.2,1c-1,0.2-2,0.1-3.2-0.1 c0.2,1.1,0.2,2.1,0.1,3.2c-0.1,0.9-0.4,1.9-1,3.2c-0.3,0.7-0.4,1.3-0.3,2c0,0.5,0.2,1,0.4,1.5c0.4,0.9,0.9,1.4,0.9,1.4l0,0.2 l-0.1,0.1c-0.8,0.8-1,1-1,1s0,0-0.1,0.1s-0.3,0.3-0.9,0.9l-0.1,0.1l-0.1-0.1c-1.1-1-1.8-2.5-2.2-4c-0.3-1.5-0.2-3.1,0.4-4.3 c0.3-0.6,0.5-1.1,0.6-1.7c0.1-0.5,0.2-1,0.2-1.5c0-0.8-0.1-1.4-0.1-1.4c-0.5-1.8-0.9-3.5-1.4-5.3c1.8,0.5,3.5,0.9,5.3,1.4 c0,0,0.6,0.1,1.4,0.1c0.5,0,1-0.1,1.5-0.2c0.6-0.1,1.2-0.3,1.7-0.6c1.2-0.6,2.8-0.7,4.3-0.4C39.9,29.5,41.3,30.3,42.4,31.4z" class="st0"/></g></svg>