<svg xmlns="http://www.w3.org/2000/svg" xmlns:v="https://vecta.io/nano" xmlns:xlink="http://www.w3.org/1999/xlink" id="Layer_1" x="0" y="0" version="1.1" viewBox="0 0 193 230" xml:space="preserve" style="enable-background:new 0 0 193 230"><style type="text/css">.st0{clip-path:url(#SVGID_2_)}.st1{opacity:.2}.st2{fill:#b8a790}.st3{fill:#d3c2a9}.st4{fill:#a89781}.st5{fill:#e1d0b9}.st6{fill:#a3a2a1}</style><g><g><g><g><g><g><defs><rect id="SVGID_1_" width="192.2" height="230"/></defs><clipPath id="SVGID_2_"><use xlink:href="#SVGID_1_" style="overflow:visible"/></clipPath><g class="st0"><g class="st1"><g><g><rect width="232.1" height="5.2" x="50" y="116.5" class="st2"/><path d="M282.1,121.7v108h-31v-22c0,0,0,0-0.8-0.9c0-14.9-6.1-16.9-7.6-17.2c-1.5,0.3-7.6,2.3-7.6,17.2 c-0.8,0.9-0.8,0.9-0.8,0.9v22h-46.9v-45c0,0,0,0-1.9-1.8c0-12.3-2.6-20.4-6-25.6c-1.5-2.4-3.2-4.2-4.9-5.5 c-0.2-0.2-0.5-0.4-0.7-0.5c-1.9-1.4-3.7-2.3-5.2-2.8h-5.5c-1.5,0.5-3.3,1.4-5.2,2.8c-0.2,0.2-0.4,0.3-0.7,0.5 c-1.7,1.4-3.3,3.2-4.9,5.5c-3.3,5.2-6,13.2-6,25.6c-1.9,1.8-1.9,1.8-1.9,1.8v45H97.8v-22c0,0,0,0-0.8-0.9 c0-14.9-6.1-16.9-7.6-17.2c-1.5,0.3-7.6,2.3-7.6,17.2c-0.8,0.9-0.8,0.9-0.8,0.9v22H50v-108H282.1z" class="st3"/><path d="M150,151.4c2.7,0,5.4,0,8.1,0c-0.2,0.2-0.4,0.3-0.7,0.5c-1.7,1.4-3.3,3.2-4.9,5.5H47l-4.1-6.2 c0,0,0.4,0,1.2,0.1c1.2,0,3.2,0.1,5.9,0.1c12,0.1,37.9,0.1,68.4,0.1c0.2,0,0.4,0,0.6,0c6.3,0,12.8,0,19.4,0 C142.3,151.4,146.1,151.4,150,151.4z" class="st4"/><path d="M289.2,151l-1.1,0.8l0,0l-6,4.4l-1.6,1.2h-101c-1.5-2.4-3.2-4.2-4.9-5.5c-0.2-0.2-0.5-0.4-0.7-0.5 c2.7,0,5.4,0,8.1,0c3.9,0,7.8,0,11.6,0c6.6,0,13.1,0,19.5,0h0.6c30.6-0.1,56.5-0.2,68.4-0.2 C286.6,151,289.2,151,289.2,151z" class="st4"/><path d="M163.3,148.5c-1.5,0.5-3.3,1.4-5.2,2.8c-0.2,0.2-0.4,0.3-0.7,0.5h-7.8h-30.7h-69h-5.1l-0.8-0.7 l-3.2-2.7L163.3,148.5L163.3,148.5z" class="st2"/><path d="M291.2,148.5v3.3h-3.1h-6h-69h-30.7h-7.8c-0.2-0.2-0.5-0.4-0.7-0.5c-1.9-1.4-3.7-2.3-5.2-2.8H291.2z" class="st2"/><polygon points="284.9 131.6 47.1 131.6 49.9 126.4 282.2 126.4" class="st2"/><rect width="94.1" height="5.1" x="119" y="89" class="st2"/><rect width="94.1" height="4.1" x="119" y="97.6" class="st2"/><rect width="94.1" height="3.5" x="119" y="94.1" class="st3"/><path d="M213.1,101.6v127.2h-25.7v-44.1c0,0,0,0-1.9-1.8c0-12.3-2.6-20.4-6-25.6c-1.5-2.4-3.2-4.2-4.9-5.5 c-0.2-0.2-0.5-0.4-0.7-0.5c-1.9-1.4-3.7-2.3-5.2-2.8h-5.5c-1.5,0.5-3.3,1.4-5.2,2.8c-0.2,0.2-0.4,0.3-0.7,0.5 c-1.7,1.4-3.3,3.2-4.9,5.5c-3.3,5.2-6,13.2-6,25.6c-1.9,1.8-1.9,1.8-1.9,1.8v44.1H119V101.6H213.1z" class="st3"/><path d="M190.4,177.9v51.8h-3v-45c0,0,0,0-1.9-1.8c0-12.3-2.6-20.4-6-25.6c-1.5-2.4-3.2-4.2-4.9-5.5 c-0.2-0.2-0.5-0.4-0.7-0.5c-1.9-1.4-3.7-2.3-5.2-2.8c-1.2-0.4-2.1-0.6-2.7-0.7c-0.6,0.1-1.6,0.3-2.7,0.7 c-1.5,0.5-3.3,1.4-5.2,2.8c-0.2,0.2-0.4,0.3-0.7,0.5c-1.7,1.4-3.3,3.2-4.9,5.5c-3.3,5.2-6,13.2-6,25.6 c-1.9,1.8-1.9,1.8-1.9,1.8v45h-3v-51.8c0,0,0,0,2.2-1.8c0-7.9,1.2-14,3.1-18.8c0.8-2.1,1.8-3.9,2.8-5.5 c0.1-0.2,0.2-0.3,0.3-0.5c0.7-1,1.4-2,2.2-2.8c2.8-3.1,5.8-5,8.4-6.1c2.4-1,4.4-1.4,5.5-1.6c1.1,0.1,3.1,0.5,5.5,1.6 c2.6,1.1,5.6,3,8.4,6.1c0.7,0.8,1.4,1.7,2.1,2.8c0.1,0.2,0.2,0.4,0.4,0.6c1,1.6,2,3.4,2.8,5.5c1.9,4.8,3.1,10.9,3.1,18.8 C190.4,177.9,190.4,177.9,190.4,177.9z" class="st2"/><g><g><g><polygon points="108.3 157.6 108.3 229.3 104.9 229.3 104.9 160.4 73.9 160.4 73.9 229.3 70.4 229.3 70.4 157.6" class="st2"/><polygon points="103.9 184.6 103.9 229.3 101.2 229.3 101.2 186.4 77.5 186.4 77.5 229.3 74.9 229.3 74.9 184.6" class="st2"/><path d="M99.5,204.4v25.3h-1.7v-22c0,0,0,0-0.8-0.9c0-14.9-6.1-16.9-7.6-17.2c-1.5,0.3-7.6,2.3-7.6,17.2 c-0.8,0.9-0.8,0.9-0.8,0.9v22h-1.7v-25.3c0,0,0,0,0.9-0.9c0-13.5,6.1-16.5,8.5-17.1c0.3-0.1,0.5-0.1,0.7-0.1 s0.4,0.1,0.7,0.1c2.5,0.7,8.5,3.7,8.5,17.1C99.5,204.4,99.5,204.4,99.5,204.4z" class="st2"/><path d="M104.1,183.9H74.6c0-2.2,0.5-4.4,1.2-6.4c0.2-0.5,0.4-1.1,0.6-1.6c0.3-0.6,0.5-1.2,0.8-1.8 c0.8-1.6,1.8-3.1,2.9-4.4c0.5-0.6,0.9-1.1,1.4-1.7c0.9-1,1.9-1.8,2.9-2.6c0.5-0.4,1-0.7,1.4-1c1-0.6,1.9-1.1,2.9-1.4 c0.2-0.1,0.4-0.1,0.6-0.2c0.3,0.1,0.6,0.2,0.8,0.4c1,0.4,1.9,1,2.9,1.6c0.5,0.3,1,0.7,1.4,1c1,0.8,2,1.6,2.9,2.6 c0.5,0.5,1,1.1,1.4,1.6c1,1.3,2,2.7,2.7,4.2c0,0.1,0.1,0.2,0.1,0.3c0.2,0.5,0.5,0.9,0.7,1.4c0.3,0.7,0.6,1.4,0.8,2.2 C103.7,180,104.1,181.9,104.1,183.9z" class="st2"/><path d="M101.6,176.3c-0.2-0.5-0.4-0.9-0.6-1.4c0-0.1-0.1-0.2-0.1-0.3h-2.6v-3.2v-0.8 c-0.2-0.3-0.5-0.6-0.7-0.8s-0.4-0.5-0.7-0.7v0.7h-2.7v-3.2c0,0,0,0-0.1,0c-0.4-0.3-0.9-0.6-1.3-0.9v0.9v3.2h-2.7v-3.2 V165v-0.8c-0.3-0.1-0.5-0.2-0.8-0.3c-0.2,0.1-0.4,0.1-0.6,0.2v1v1.6v3.2H86v-3.2v-1.2c-0.5,0.3-0.9,0.6-1.4,0.9v0.2 v3.2h-2.7v-1c-0.3,0.3-0.6,0.7-0.9,1c-0.2,0.2-0.3,0.4-0.5,0.6v1v3.2h-2.6c0,0.1-0.1,0.1-0.1,0.2v-0.2c0,0,0,0,0,0.1 c-0.3,0.5-0.5,1.1-0.8,1.6c-0.2,0.5-0.4,1-0.6,1.5v1.7v1.6v2.8h1.4v-2.8h2.7v2.8h1.4v-2.8h2.7v2.8H86v-2.8h2.7v2.8h1.4 v-2.8h2.7v2.8h1.4v-2.8h2.7v2.8h1.4v-2.8h2.7v2.8h1.4v-2.8v-1.6v-1.2C102.1,177.7,101.9,177,101.6,176.3z M96.9,171.5 v3.2h-2.7v-3.2H96.9z M92.8,171.5v3.2h-2.7v-3.2H92.8z M88.7,171.5v3.2H86v-3.2H88.7z M81.9,171.5h2.7v3.2h-2.7V171.5z M77.8,179.6v-3.2h2.7v3.2H77.8z M81.9,179.6v-3.2h2.7v3.2H81.9z M86,179.6v-3.2h2.7v3.2H86z M90.1,179.6v-3.2h2.7v3.2 H90.1z M94.1,179.6v-3.2h2.7v3.2H94.1z M98.2,179.6v-3.2h2.7v3.2H98.2z" class="st5"/></g><path d="M69.6,133.9v12.2h39.6v-12.2H69.6z M106.1,143.5H72.6v-7h33.5V143.5z" class="st2"/></g><g><g><polygon points="261.6 157.6 261.6 229.3 258.2 229.3 258.2 160.4 227.2 160.4 227.2 229.3 223.7 229.3 223.7 157.6" class="st2"/><polygon points="257.2 184.6 257.2 229.3 254.6 229.3 254.6 186.4 230.8 186.4 230.8 229.3 228.2 229.3 228.2 184.6" class="st2"/><path d="M252.8,204.4v25.3h-1.7v-22c0,0,0,0-0.8-0.9c0-14.9-6.1-16.9-7.6-17.2c-1.5,0.3-7.6,2.3-7.6,17.2 c-0.8,0.9-0.8,0.9-0.8,0.9v22h-1.7v-25.3c0,0,0,0,0.9-0.9c0-13.5,6.1-16.5,8.5-17.1c0.3-0.1,0.5-0.1,0.7-0.1 s0.4,0.1,0.7,0.1c2.5,0.7,8.5,3.7,8.5,17.1C252.8,204.4,252.8,204.4,252.8,204.4z" class="st2"/><path d="M257.4,183.9h-29.5c0-2.2,0.5-4.4,1.2-6.4c0.2-0.5,0.4-1.1,0.6-1.6c0.3-0.6,0.5-1.2,0.8-1.8 c0.8-1.6,1.8-3.1,2.9-4.4c0.5-0.6,0.9-1.1,1.4-1.7c0.9-1,1.9-1.8,2.9-2.6c0.5-0.4,1-0.7,1.4-1c1-0.6,1.9-1.1,2.9-1.4 c0.2-0.1,0.4-0.1,0.6-0.2c0.3,0.1,0.6,0.2,0.8,0.4c1,0.4,1.9,1,2.9,1.6c0.5,0.3,1,0.7,1.4,1c1,0.8,2,1.6,2.9,2.6 c0.5,0.5,1,1.1,1.4,1.6c1,1.3,2,2.7,2.7,4.2c0,0.1,0.1,0.2,0.1,0.3c0.2,0.5,0.5,0.9,0.7,1.4c0.3,0.7,0.6,1.4,0.8,2.2 C257,180,257.4,181.9,257.4,183.9z" class="st2"/><path d="M254.9,176.3c-0.2-0.5-0.4-0.9-0.6-1.4c0-0.1-0.1-0.2-0.1-0.3h-2.6v-3.2v-0.8 c-0.2-0.3-0.5-0.6-0.7-0.8s-0.4-0.5-0.7-0.7v0.7h-2.7v-3.2c0,0,0,0-0.1,0c-0.4-0.3-0.9-0.6-1.3-0.9v0.9v3.2h-2.7v-3.2 V165v-0.8c-0.3-0.1-0.5-0.2-0.8-0.3c-0.2,0.1-0.4,0.1-0.6,0.2v1v1.6v3.2h-2.7v-3.2v-1.2c-0.5,0.3-0.9,0.6-1.4,0.9v0.2 v3.2h-2.7v-1c-0.3,0.3-0.6,0.7-0.9,1c-0.2,0.2-0.3,0.4-0.5,0.6v1v3.2h-2.6c0,0.1-0.1,0.1-0.1,0.2v-0.2c0,0,0,0,0,0.1 c-0.3,0.5-0.5,1.1-0.8,1.6c-0.2,0.5-0.4,1-0.6,1.5v1.7v1.6v2.8h1.4v-2.8h2.7v2.8h1.4v-2.8h2.7v2.8h1.4v-2.8h2.7v2.8 h1.4v-2.8h2.7v2.8h1.4v-2.8h2.7v2.8h1.4v-2.8h2.7v2.8h1.4v-2.8v-1.6v-1.2C255.4,177.7,255.2,177,254.9,176.3z M250.2,171.5v3.2h-2.7v-3.2H250.2z M246.1,171.5v3.2h-2.7v-3.2H246.1z M242,171.5v3.2h-2.7v-3.2H242z M235.2,171.5 h2.7v3.2h-2.7V171.5z M231.1,179.6v-3.2h2.7v3.2H231.1z M235.2,179.6v-3.2h2.7v3.2H235.2z M239.3,179.6v-3.2h2.7v3.2 H239.3z M243.4,179.6v-3.2h2.7v3.2H243.4z M247.5,179.6v-3.2h2.7v3.2H247.5z M251.6,179.6v-3.2h2.7v3.2H251.6z" class="st5"/></g><path d="M222.9,133.9v12.2h39.6v-12.2H222.9z M259.4,143.5h-33.5v-7h33.5V143.5z" class="st2"/></g></g><rect width="94.9" height="5.2" x="118.6" y="118.5" class="st2"/><rect width="93.2" height="14.2" x="118.8" y="123.4" class="st2"/><g><g><g><path d="M138.5,66h-20.2c0-0.9,0.1-1.7,0.2-2.6c0.6-4.8,2.6-9.3,5.1-12.5c0.9-1.2,1.9-2.2,2.9-2.9 c0.6-0.5,1.2-0.8,1.8-1.1c0.6,0.3,1.2,0.7,1.8,1.1c4,3,7.4,8.7,8.2,15.4C138.4,64.3,138.5,65.1,138.5,66z" class="st5"/><rect width="20" height="20.3" x="118.4" y="65.2" class="st5"/><rect width="20" height="13.4" x="118.4" y="85.5" class="st3"/><rect width="20" height="131.1" x="118.4" y="98.9" class="st5"/><g><rect width="2.6" height="9.9" x="121" y="71.7" class="st2"/><rect width="2.6" height="9.9" x="127.1" y="71.7" class="st2"/><rect width="2.6" height="9.9" x="133.2" y="71.7" class="st2"/></g><polygon points="139.4 63.4 138.5 66.4 118.3 66.4 117.5 63.4" class="st2"/><path d="M131.5,45.6c0,1-0.5,1.9-1.3,2.5c-0.5,0.4-1.1,0.6-1.8,0.6s-1.3-0.2-1.8-0.6 c-0.7-0.6-1.2-1.4-1.2-2.4c0-1.4,1-2.6,2.3-3v-3.8c0-0.4,0.3-0.8,0.8-0.8c0.4,0,0.8,0.3,0.8,0.8v3.8 C130.5,43,131.5,44.2,131.5,45.6z" class="st5"/><polygon points="142.7 99.3 114.1 99.3 117.7 95.6 139.1 95.6" class="st2"/><rect width="20" height="1.5" x="118.4" y="205.2" class="st2"/><rect width="20" height="1.5" x="118.4" y="202.1" class="st2"/><rect width="20" height="1.5" x="118.4" y="199.2" class="st2"/></g><polygon points="117.5 145.7 116.7 150 140.2 150 139.3 145.7" class="st2"/><polygon points="118.1 119.7 116.9 124 140 124 138.7 119.7" class="st2"/></g><g><g><path d="M213.7,66h-20.2c0-0.9,0.1-1.7,0.2-2.6c0.8-6.6,4.4-12.7,8.1-15.4c0.4-0.3,0.7-0.5,1.1-0.7 c0.3-0.1,0.5-0.3,0.8-0.4c0.6,0.3,1.2,0.7,1.8,1.1c4,3,7.4,8.7,8.2,15.4C213.6,64.3,213.7,65.1,213.7,66z" class="st5"/><rect width="20" height="20.3" x="193.6" y="65.2" class="st5"/><rect width="20" height="13.4" x="193.6" y="85.5" class="st3"/><rect width="20" height="131.1" x="193.6" y="98.9" class="st5"/><g><rect width="2.6" height="9.9" x="196.2" y="71.7" class="st2"/><rect width="2.6" height="9.9" x="202.3" y="71.7" class="st2"/><rect width="2.6" height="9.9" x="208.4" y="71.7" class="st2"/></g><polygon points="214.6 63.4 213.7 66.4 193.5 66.4 192.7 63.4" class="st2"/><path d="M206.7,45.6c0,1-0.5,1.9-1.3,2.5c-0.5,0.4-1.1,0.6-1.8,0.6c-0.2,0-0.5,0-0.7-0.1 c-0.4-0.1-0.8-0.3-1.1-0.5c-0.7-0.6-1.2-1.4-1.2-2.4c0-1.4,0.9-2.5,2.1-2.9c0.1,0,0.1,0,0.2-0.1v-3.8 c0-0.4,0.3-0.8,0.8-0.8c0.4,0,0.8,0.3,0.8,0.8v3.8C205.7,43,206.7,44.2,206.7,45.6z" class="st5"/><polygon points="217.9 99.3 189.3 99.3 192.9 95.6 214.3 95.6" class="st2"/><rect width="20" height="1.5" x="193.6" y="205.2" class="st2"/><rect width="20" height="1.5" x="193.6" y="202.1" class="st2"/><rect width="20" height="1.5" x="193.6" y="199.2" class="st2"/></g><polygon points="192.7 145.7 191.9 150 215.4 150 214.5 145.7" class="st2"/><polygon points="193.3 119.7 192.1 124 215.2 124 213.9 119.7" class="st2"/></g></g></g><g><path d="M141.2,121.4v13.1c0,0.8,0.6,1.5,1.5,1.5c0.8,0,1.5-0.6,1.5-1.5v-13.1H141.2z" class="st3"/><path d="M147.9,121.4v13.1c0,0.8,0.7,1.5,1.5,1.5s1.5-0.6,1.5-1.5v-13.1H147.9z" class="st3"/><path d="M154.6,121.4v13.1c0,0.8,0.7,1.5,1.5,1.5s1.5-0.6,1.5-1.5v-13.1H154.6z" class="st3"/><path d="M161.2,121.4v13.1c0,0.8,0.6,1.5,1.5,1.5s1.5-0.6,1.5-1.5v-13.1H161.2z" class="st3"/><path d="M167.9,121.4v13.1c0,0.8,0.7,1.5,1.5,1.5s1.5-0.6,1.5-1.5v-13.1H167.9z" class="st3"/><path d="M174.6,121.4v13.1c0,0.8,0.7,1.5,1.5,1.5s1.5-0.6,1.5-1.5v-13.1H174.6z" class="st3"/><path d="M181.3,121.4v13.1c0,0.8,0.6,1.5,1.5,1.5c0.8,0,1.5-0.6,1.5-1.5v-13.1H181.3z" class="st3"/><path d="M188,121.4v13.1c0,0.8,0.7,1.5,1.5,1.5s1.5-0.6,1.5-1.5v-13.1H188z" class="st3"/></g><path d="M138.3,63.4h1l-0.9,3h-0.1v1.1c-0.3-0.3-0.6-0.7-1-1.1c-0.1-0.1-0.2-0.3-0.4-0.4 c-0.2-0.2-0.4-0.5-0.7-0.8c-0.5-0.6-1.1-1.2-1.6-1.8c-3.3-3.7-7.4-8.3-11.2-12.5c0.9-1.2,1.9-2.2,2.9-2.9 c-0.7-0.6-1.2-1.4-1.2-2.4c0-1.4,1-2.6,2.3-3v-3.8c0-0.4,0.3-0.8,0.8-0.8c0.4,0,0.8,0.3,0.8,0.8v3.8 c1.3,0.4,2.2,1.5,2.2,2.9c0,1-0.5,1.9-1.3,2.5C134.2,51.1,137.6,56.8,138.3,63.4z" class="st6"/><path d="M214.6,63.4l-0.9,3h-0.1v32.5l0,0V230h-3.5l-5.2-131.1l-0.2-4.8l-0.2-5.1l-0.1-3.5l-0.2-3.9l-0.4-10 l-0.2-5.3v-0.4v-0.8l-0.1-1.8l-0.6-14.9v-1.3l-0.2-4.6c0.1,0,0.1,0,0.2-0.1v-3.8c0-0.4,0.3-0.8,0.8-0.8 c0.4,0,0.8,0.3,0.8,0.8v3.8c1.3,0.4,2.2,1.5,2.2,2.9c0,1-0.5,1.9-1.3,2.5c4,3,7.4,8.7,8.2,15.4h1V63.4z" class="st6"/></g></g></g></g></g></g></g></g></g></svg>