<?xml version="1.0" encoding="utf-8"?>
<!-- Generator: Adobe Illustrator 23.0.5, SVG Export Plug-In . SVG Version: 6.00 Build 0)  -->
<svg version="1.1" id="Layer_1" xmlns="http://www.w3.org/2000/svg" xmlns:xlink="http://www.w3.org/1999/xlink" x="0px" y="0px"
	 viewBox="0 0 192 192" style="enable-background:new 0 0 192 192;" xml:space="preserve">
<style type="text/css">
	.st0{clip-path:url(#SVGID_2_);}
	.st1{fill:#EFF4F5;}
	.st2{fill-rule:evenodd;clip-rule:evenodd;fill:url(#SVGID_3_);}
	.st3{fill:none;stroke:#5050BC;stroke-width:3;stroke-linecap:round;}
	.st4{fill:#5050BC;}
	.st5{fill:#A58355;}
	.st6{fill:#8E704D;}
	.st7{fill:#3342AA;}
	.st8{fill:#545FE8;}
</style>
<g>
	<defs>
		<path id="SVGID_1_" d="M57.5,19h77c21.3,0,38.5,17.2,38.5,38.5v77c0,21.3-17.2,38.5-38.5,38.5h-77C36.2,173,19,155.8,19,134.5v-77
			C19,36.2,36.2,19,57.5,19z"/>
	</defs>
	<clipPath id="SVGID_2_">
		<use xlink:href="#SVGID_1_"  style="overflow:visible;"/>
	</clipPath>
	<g class="st0">
		<path class="st1" d="M57.5,19h77c21.3,0,38.5,17.2,38.5,38.5v77c0,21.3-17.2,38.5-38.5,38.5h-77C36.2,173,19,155.8,19,134.5v-77
			C19,36.2,36.2,19,57.5,19z"/>
		<g>
			
				<linearGradient id="SVGID_3_" gradientUnits="userSpaceOnUse" x1="97.2612" y1="24.4043" x2="97.2612" y2="116.1111" gradientTransform="matrix(-1.2579 -0.1531 0.1939 -0.9882 210.0893 200.1003)">
				<stop  offset="0" style="stop-color:#6161F7"/>
				<stop  offset="1" style="stop-color:#7575FC"/>
			</linearGradient>
			<path class="st2" d="M51,123.4c1.3-3.9,3.7-10.2,9.2-15.9c3.6-4,8-6.8,11-8c2.8-1.1,5-1.6,5-1.6c1.4-0.4,2-0.3,3.2-0.8
				c0,0,2-0.6,4.4-1.7c5.1-2.4,9.9-6.9,9.9-6.9c7.3-6.7,13.2-15.5,14.9-18.2c2.7,13.6,7.6,23.4,11.3,27.5c4.3,4.6,7.2,6.5,7.2,6.5
				c0.8,0.6,2.4,1.4,4.3,2.8c0,0,1.9,1.4,3.5,2.7c5.1,4.5,8.1,10.8,8.1,10.8c3.9,8.2,3.1,16.3,2.6,19.4l-0.1,0.8
				c-0.1,0.4-0.1,0.8-0.2,1.3c-3.4,22.2-27.1,22.8-51.6,19.1c-19.2-3-37.1-8.8-42.3-21.7c-2.2-5.5-1.2-12.1-1.2-12.1
				C50.6,125.7,50.8,124.3,51,123.4z"/>
			<path class="st3" d="M103.1,140.4c-1,6.3-13.7,4.2-12.6-2.1"/>
			
				<ellipse transform="matrix(0.1527 -0.9883 0.9883 0.1527 -32.8704 216.7819)" class="st4" cx="110" cy="127.6" rx="7.7" ry="4.7"/>
			
				<ellipse transform="matrix(0.1527 -0.9883 0.9883 0.1527 -47.8317 192.6781)" class="st4" cx="88.4" cy="124.2" rx="7.7" ry="4.7"/>
		</g>
		<path class="st5" d="M2.4,153.1h186.8c4,0,7.2,3.2,7.2,7.2v40.1c0,4-3.2,7.2-7.2,7.2H2.4c-4,0-7.2-3.2-7.2-7.2v-40.1
			C-4.8,156.4-1.5,153.1,2.4,153.1z"/>
		<path class="st4" d="M73.9,156.3c0,6.5-5.1,8.6-11.4,8.6c-6.3,0-11.4-2.1-11.4-8.6c0-6.5,5.1-8.6,11.4-8.6
			C68.7,147.7,73.9,149.9,73.9,156.3z"/>
		<path class="st4" d="M142.6,155.7c0,6.5-5.1,8.6-11.3,8.6c-6.2,0-11.3-2.1-11.3-8.6c0-6.5,5.1-8.6,11.3-8.6
			C137.5,147.1,142.6,149.2,142.6,155.7z"/>
		
			<rect x="5.5" y="57.8" transform="matrix(0.993 -0.1184 0.1184 0.993 -13.5272 3.0606)" class="st5" width="27.1" height="115.2"/>
		<path class="st6" d="M-1.3,59.8l26.9-3.2l7,58.6C17.8,117,4.3,106.4,2.5,91.5L-1.3,59.8z"/>
		
			<rect x="115.5" y="101.9" transform="matrix(0.1184 -0.993 0.993 0.1184 38.027 273.627)" class="st5" width="115.2" height="27.1"/>
		<path class="st6" d="M193.4,59.8l-26.9-3.2l-7,58.6c14.8,1.8,28.3-8.8,30.1-23.7L193.4,59.8z"/>
		<path class="st7" d="M164.8,4H132l6.4,67.6c0.9,9.3,8.7,16.4,18,16.4h5.6c11.7,0,20.2-10.9,17.6-22.2L164.8,4z"/>
		<path class="st8" d="M26.9,4h32.8l-6.4,67.6c-0.9,9.3-8.7,16.4-18,16.4h-5.6C18.1,87.9,9.5,77,12.2,65.7L26.9,4z"/>
		<path class="st8" d="M132,4H95.8v65.9c0,10,8.1,18,18,18h6.2c10.6,0,19-9.1,18-19.7L132,4z"/>
		<path class="st7" d="M59.7,4h36.1v65.9c0,10-8.1,18-18,18h-6.2c-10.6,0-19-9.1-18-19.7L59.7,4z"/>
	</g>
</g>
</svg>
