<svg xmlns="http://www.w3.org/2000/svg" xmlns:xlink="http://www.w3.org/1999/xlink" id="Layer_1" x="0" y="0" version="1.1" viewBox="0 0 437 112" xml:space="preserve" style="enable-background:new 0 0 437 112"><style type="text/css">.st0{fill:url(#SVGID_3_)}.st0,.st1,.st2{clip-path:url(#SVGID_2_)}.st1{fill:url(#SVGID_4_)}.st2{fill:url(#SVGID_5_)}.st3{fill:#4444c6}.st3,.st4,.st5,.st6,.st7{clip-path:url(#SVGID_2_)}.st4{fill:url(#SVGID_6_)}.st5{fill:url(#SVGID_7_)}.st6{fill:#fff}.st7{opacity:.1;fill:#242628;enable-background:new}.st10,.st11,.st8,.st9{clip-path:url(#SVGID_2_)}.st8{fill:#2d3338}.st9{fill:#01943f}.st10,.st11{opacity:.5;fill:url(#SVGID_8_)}.st11{fill:url(#SVGID_9_)}</style><g><defs><rect id="SVGID_1_" width="437" height="112"/></defs><clipPath id="SVGID_2_"><use xlink:href="#SVGID_1_" style="overflow:visible"/></clipPath><linearGradient id="SVGID_3_" x1="218.5" x2="218.5" y1="112" y2="0" gradientUnits="userSpaceOnUse"><stop offset="0" style="stop-color:#dee4ff"/><stop offset="1" style="stop-color:#fff"/></linearGradient><rect width="437" height="112" class="st0"/><linearGradient id="SVGID_4_" x1="296.004" x2="250.996" y1="19.022" y2="96.978" gradientTransform="matrix(1 0 0 -1 0 114)" gradientUnits="userSpaceOnUse"><stop offset="0" style="stop-color:#76a4ff"/><stop offset="1" style="stop-color:#d7e7ff"/></linearGradient><circle cx="273.5" cy="56" r="45" class="st1"/><linearGradient id="SVGID_5_" x1="293.759" x2="253.247" y1="22.928" y2="93.096" gradientTransform="matrix(1 0 0 -1 0 114)" gradientUnits="userSpaceOnUse"><stop offset="0" style="stop-color:#9fc2ff"/><stop offset="1" style="stop-color:#d7e7ff"/></linearGradient><path d="M314,56c0,6.5-1.5,12.6-4.2,18l0,0c-6.6,13.3-20.4,22.5-36.3,22.5l0,0c-15.9,0-29.6-9.2-36.3-22.5l0,0 c-2.7-5.4-4.2-11.5-4.2-18c0-22.4,18.1-40.5,40.5-40.5l0,0C295.9,15.5,314,33.6,314,56z" class="st2"/><path d="M307.2,73.4v0.5h-0.5c-2.8,0-3.6,0-3.9,0c-0.2,0-0.2,0-0.3,0c-0.3,0-1.1,0-4.4,0h-0.5v-0.5c0,0,0.1-2.3-1-4.9 c-0.6-1.5-1.4-2.9-2.5-4.1c-1.3-1.5-3-2.7-5-3.5c-4-1.7-6.7-3.2-9-4.9c-2.5-1.9-4.6-4.1-6.6-6.9c-2,2.9-4.2,5.1-6.7,6.9 c-2.3,1.7-5,3.2-9,4.9c-2,0.9-3.7,2-5,3.5c-1.1,1.2-1.9,2.6-2.5,4.1c-1,2.7-1,4.9-1,4.9v0.5h-0.5c-3.3,0-4.1,0-4.4,0 c-0.2,0-0.2,0-0.3,0c-0.3,0-1.1,0-3.9,0h-0.5v-0.5c-0.1-4.5,1.3-9.2,4-13.2c2.6-4,6.2-7,10.2-8.4c1.8-0.6,3.5-1.5,5-2.5 c1.3-0.8,2.4-1.7,3.5-2.8c1.8-1.7,2.7-3.1,2.7-3.2c2.8-4.8,5.6-9.6,8.4-14.4c2.8,4.8,5.6,9.6,8.4,14.4c0,0.1,0.9,1.5,2.7,3.2 c1.1,1,2.2,2,3.5,2.8c1.6,1,3.3,1.8,5,2.5c3.9,1.4,7.6,4.4,10.2,8.4C305.9,64.2,307.3,68.9,307.2,73.4z" class="st3"/><linearGradient id="SVGID_6_" x1="186.004" x2="140.996" y1="19.022" y2="96.978" gradientTransform="matrix(1 0 0 -1 0 114)" gradientUnits="userSpaceOnUse"><stop offset="0" style="stop-color:#76a4ff"/><stop offset="1" style="stop-color:#d7e7ff"/></linearGradient><circle cx="163.5" cy="56" r="45" class="st4"/><linearGradient id="SVGID_7_" x1="183.759" x2="143.247" y1="22.928" y2="93.096" gradientTransform="matrix(1 0 0 -1 0 114)" gradientUnits="userSpaceOnUse"><stop offset="0" style="stop-color:#9fc2ff"/><stop offset="1" style="stop-color:#d7e7ff"/></linearGradient><path d="M204,56c0,6.5-1.5,12.6-4.2,18l0,0c-6.6,13.3-20.4,22.5-36.3,22.5l0,0c-15.9,0-29.6-9.2-36.3-22.5l0,0 c-2.7-5.4-4.2-11.5-4.2-18c0-22.4,18.1-40.5,40.5-40.5l0,0C185.9,15.5,204,33.6,204,56z" class="st5"/><path d="M197.2,73.4v0.5h-0.5c-2.8,0-3.6,0-3.9,0c-0.2,0-0.2,0-0.3,0c-0.3,0-1.1,0-4.4,0h-0.5v-0.5c0,0,0.1-2.3-1-4.9 c-0.6-1.5-1.4-2.9-2.5-4.1c-1.3-1.5-3-2.7-5-3.5c-4-1.7-6.7-3.2-9-4.9c-2.5-1.9-4.6-4.1-6.6-6.9c-2,2.9-4.2,5.1-6.7,6.9 c-2.3,1.7-5,3.2-9,4.9c-2,0.9-3.7,2-5,3.5c-1.1,1.2-1.9,2.6-2.5,4.1c-1,2.7-1,4.9-1,4.9v0.5h-0.5c-3.3,0-4.1,0-4.4,0 c-0.2,0-0.2,0-0.3,0c-0.3,0-1.1,0-3.9,0h-0.5v-0.5c-0.1-4.5,1.3-9.2,4-13.2c2.6-4,6.2-7,10.2-8.4c1.8-0.6,3.5-1.5,5-2.5 c1.3-0.8,2.4-1.7,3.5-2.8c1.8-1.7,2.7-3.1,2.7-3.2c2.8-4.8,5.6-9.6,8.4-14.4c2.8,4.8,5.6,9.6,8.4,14.4c0,0.1,0.9,1.5,2.7,3.2 c1.1,1,2.2,2,3.5,2.8c1.6,1,3.3,1.8,5,2.5c3.9,1.4,7.6,4.4,10.2,8.4C195.9,64.2,197.3,68.9,197.2,73.4z" class="st3"/><path d="M272.5,56c0,8.6-2,16.8-5.6,24l0,0c-8.9,17.8-27.1,30-48.4,30l0,0c-21.2,0-39.5-12.2-48.4-30l0,0 c-3.6-7.2-5.6-15.4-5.6-24c0-29.8,24.1-54,54-54l0,0C248.4,2,272.5,26.2,272.5,56z" class="st6"/><path d="M218.5,2c-29.8,0-54,24.2-54,54s24.2,54,54,54s54-24.2,54-54S248.3,2,218.5,2z M262.1,77.6 c-7.9,16-24.5,27-43.6,27l0,0c-19.1,0-35.5-11-43.6-27l0,0c-3.2-6.5-5-13.8-5-21.6c0-26.9,21.7-48.6,48.6-48.6l0,0 c26.9,0,48.6,21.7,48.6,48.6C267.1,63.8,265.3,71.1,262.1,77.6L262.1,77.6z" class="st7"/><path d="M226.1,41.7c0-10.7-5.2-19.8-9.1-22.9c0,0-0.2-0.1-0.2,0.2c-0.4,20.6-10.8,26.3-16.6,33.7 c-13.3,17.4-1,36.5,11.6,40c7.1,1.9-1.7-3.5-2.8-15C207.8,63.8,226.1,53.2,226.1,41.7" class="st8"/><path d="M233,48.8c0,0-0.1,0-0.2,0l0,0c-0.2,2.5-3.1,8.2-6.6,13.2c-12.1,17.3-5.2,25.6-1.3,30.1c2.3,2.6,0,0,5.6-2.6 c0.5-0.2,10.9-5.8,12.1-18.5C243.6,58.6,235.8,51,233,48.8" class="st9"/><linearGradient id="SVGID_8_" x1="289.335" x2="289.335" y1="287.048" y2="-44.953" gradientTransform="matrix(0.5 0.866 -0.866 0.5 266.0107 -175.4465)" gradientUnits="userSpaceOnUse"><stop offset="0" style="stop-color:#dee4ff"/><stop offset="1" style="stop-color:#fff"/></linearGradient><polygon points="150.3 198.3 173.8 239 461.4 73 437.9 32.3" class="st10"/><linearGradient id="SVGID_9_" x1="66.703" x2="66.703" y1="362.444" y2="30.444" gradientTransform="matrix(0.5 0.866 -0.866 0.5 266.0107 -175.4465)" gradientUnits="userSpaceOnUse"><stop offset="0" style="stop-color:#dee4ff"/><stop offset="1" style="stop-color:#fff"/></linearGradient><polygon points="-26.3 43.2 -2.8 83.9 284.7 -82.1 261.2 -122.8" class="st11"/></g></svg>