<?xml version="1.0" encoding="utf-8"?>
<!-- Generator: Adobe Illustrator 23.0.5, SVG Export Plug-In . SVG Version: 6.00 Build 0)  -->
<svg version="1.1" id="Layer_1" xmlns:v="https://vecta.io/nano"
	 xmlns="http://www.w3.org/2000/svg" xmlns:xlink="http://www.w3.org/1999/xlink" x="0px" y="0px" viewBox="0 0 96 96"
	 style="enable-background:new 0 0 96 96;" xml:space="preserve">
<style type="text/css">
	.st0{fill-rule:evenodd;clip-rule:evenodd;fill:#CBCBD1;}
	.st1{fill:#EDEDEF;}
	.st2{fill:#C4C4C4;filter:url(#Adobe_OpacityMaskFilter);}
	.st3{mask:url(#A_2_);}
	.st4{fill:#CBCBD1;}
</style>
<circle class="st0" cx="48" cy="48" r="48"/>
<path class="st1" d="M90,48c0,23.2-18.8,42-42,42S6,71.2,6,48S24.8,6,48,6S90,24.8,90,48z"/>
<defs>
	<filter id="Adobe_OpacityMaskFilter" filterUnits="userSpaceOnUse" x="12" y="10.2" width="72" height="72.4">
		<feColorMatrix  type="matrix" values="1 0 0 0 0  0 1 0 0 0  0 0 1 0 0  0 0 0 1 0"/>
	</filter>
</defs>
<mask maskUnits="userSpaceOnUse" x="12" y="10.2" width="72" height="72.4" id="A_2_">
	<path class="st2" d="M91,48c0,23.7-19.3,43-43,43S5,71.7,5,48S24.3,5,48,5S91,24.3,91,48z"/>
</mask>
<g class="st3">
	<g>
		<g>
			<path id="C" class="st4" d="M42.8,76.4c0,3.1-1.7,5.6-3.7,5.6c-2.1,0-3.7-2.5-3.7-5.6s1.7-5.6,3.7-5.6
				C41.1,70.8,42.8,73.3,42.8,76.4z"/>
		</g>
		<g>
			<path class="st4" d="M59,76.4c0,3.1-1.7,5.6-3.7,5.6c-2.1,0-3.7-2.5-3.7-5.6s1.7-5.6,3.7-5.6C57.3,70.8,59,73.3,59,76.4z"/>
		</g>
		<path class="st4" d="M45.5,26.6V26c0-0.9,0.2-1.7,0.5-2.3c0.4-0.6,0.9-1.2,1.5-1.8c0.5-0.5,1.1-1,1.8-1.5c0.6-0.4,1-0.8,1.4-1.3
			c0.4-0.5,0.6-1,0.6-1.6c0-0.9-0.3-1.5-1-1.9c-0.6-0.4-1.7-0.6-3.1-0.6c-1,0-1.9,0.1-2.9,0.4c-0.9,0.2-1.7,0.5-2.4,0.9v-4.6
			c0.8-0.4,1.8-0.7,3-1c1.2-0.3,2.4-0.4,3.8-0.4c2.7,0,4.7,0.6,6.1,1.8c1.4,1.1,2.1,2.7,2.1,4.7c0,1.3-0.3,2.3-0.8,3.1
			c-0.5,0.8-1.3,1.6-2.3,2.4l-2.1,1.8c-0.6,0.5-0.9,1.2-0.9,2.1v0.4L45.5,26.6L45.5,26.6z M45.3,32.7v-4h5.8v4H45.3z"/>
	</g>
	<path class="st4" d="M84,82l0,0.5l-0.5,0c-2.9,0-3.8,0-4.1,0c-0.2,0-0.2,0-0.4,0c-0.3,0-1.2,0-4.7,0l-0.6,0l0-0.6
		c0,0,0.1-2.4-1-5.2c-0.6-1.7-1.5-3.1-2.7-4.4c-1.4-1.6-3.2-2.9-5.3-3.8c-4.2-1.8-7.1-3.4-9.6-5.2c-2.7-2-4.9-4.3-7.1-7.4
		c-2.2,3.1-4.4,5.4-7.1,7.4c-2.5,1.8-5.4,3.4-9.6,5.2c-2.1,0.9-3.9,2.2-5.3,3.8c-1.1,1.3-2,2.8-2.7,4.4c-1.1,2.8-1,5.2-1,5.2l0,0.5
		l-0.6,0c-3.6,0-4.4,0-4.7,0c-0.2,0-0.2,0-0.4,0c-0.3,0-1.2,0-4.1,0l-0.5,0l0-0.5c-0.1-4.8,1.4-9.9,4.2-14.1
		c2.8-4.3,6.7-7.5,10.9-8.9c1.9-0.7,3.7-1.6,5.4-2.6c1.3-0.9,2.6-1.9,3.7-3c1.9-1.8,2.9-3.3,2.9-3.4c3-5.1,5.9-10.2,8.9-15.4
		c3,5.1,5.9,10.2,8.9,15.3c0.1,0.1,1,1.6,2.9,3.4c1.1,1.1,2.4,2.1,3.7,3c1.7,1.1,3.5,2,5.4,2.6c4.2,1.5,8.1,4.7,10.9,8.9
		C82.6,72.2,84.1,77.2,84,82z"/>
</g>
</svg>
