<svg xmlns="http://www.w3.org/2000/svg" xmlns:xlink="http://www.w3.org/1999/xlink" id="Layer_1" x="0" y="0" version="1.1" viewBox="0 0 128 128" xml:space="preserve" style="enable-background:new 0 0 128 128"><style type="text/css">.st0{fill:url(#SVGID_1_)}.st1{fill:url(#SVGID_2_)}.st2{fill:#4444c6}</style><linearGradient id="SVGID_1_" x1="96.005" x2="31.995" y1="119.435" y2="8.565" gradientUnits="userSpaceOnUse"><stop offset="0" style="stop-color:#76a4ff"/><stop offset="1" style="stop-color:#d7e7ff"/></linearGradient><circle cx="64" cy="64" r="64" class="st0"/><linearGradient id="SVGID_2_" x1="92.805" x2="35.195" y1="113.891" y2="14.108" gradientUnits="userSpaceOnUse"><stop offset="0" style="stop-color:#9fc2ff"/><stop offset="1" style="stop-color:#d7e7ff"/></linearGradient><path d="M121.6,64c0,9.2-2.1,17.9-6,25.6c0,0,0,0,0,0.1c-9.4,18.9-29,32-51.6,32H64c-22.6,0-42.1-13-51.6-32	c0,0,0,0,0-0.1c-3.8-7.7-6-16.4-6-25.6C6.4,32.2,32.2,6.4,64,6.4H64C95.8,6.4,121.6,32.2,121.6,64z" class="st1"/><path d="M112,88.8l0,0.7l-0.7,0c-3.9,0-5.1,0-5.5,0c-0.3,0-0.3,0-0.5,0c-0.4,0-1.6,0-6.3,0l-0.7,0l0-0.7	c0,0,0.1-3.2-1.4-7c-0.8-2.2-2-4.2-3.5-5.9c-1.9-2.1-4.3-3.8-7.1-5c-5.7-2.4-9.5-4.5-12.8-7c-3.6-2.6-6.6-5.8-9.4-9.8	c-2.9,4.1-5.9,7.2-9.5,9.9c-3.3,2.5-7.2,4.6-12.8,7c-2.8,1.2-5.2,2.9-7.1,5c-1.5,1.7-2.7,3.7-3.5,5.9c-1.5,3.8-1.4,7-1.4,7l0,0.7	l-0.7,0c-4.7,0-5.9,0-6.3,0c-0.2,0-0.2,0-0.5,0c-0.4,0-1.6,0-5.5,0l-0.7,0l0-0.7c-0.1-6.4,1.9-13.1,5.6-18.8	c3.7-5.7,8.9-9.9,14.5-11.9c2.5-0.9,4.9-2.1,7.1-3.5c1.8-1.2,3.5-2.5,5-3.9c2.5-2.4,3.8-4.4,3.9-4.6c4-6.8,7.9-13.6,11.9-20.5	c4,6.8,7.9,13.6,11.9,20.4c0.1,0.1,1.3,2.1,3.9,4.6c1.5,1.5,3.2,2.8,5,3.9c2.2,1.4,4.6,2.6,7.1,3.5c5.6,2,10.7,6.2,14.5,11.9	C110.1,75.7,112.1,82.3,112,88.8z" class="st2"/></svg>