<?xml version="1.0" encoding="utf-8"?>
<!-- Generator: Adobe Illustrator 23.0.5, SVG Export Plug-In . SVG Version: 6.00 Build 0)  -->
<svg version="1.1" id="Layer_1" xmlns="http://www.w3.org/2000/svg" xmlns:xlink="http://www.w3.org/1999/xlink" x="0px" y="0px"
	 viewBox="0 0 128 128" style="enable-background:new 0 0 128 128;" xml:space="preserve">
<style type="text/css">
	.st0{fill:url(#SVGID_1_);}
	.st1{fill:url(#SVGID_2_);}
	.st2{fill:#4444C6;}
</style>
<linearGradient id="SVGID_1_" gradientUnits="userSpaceOnUse" x1="96.0053" y1="119.4349" x2="31.9947" y2="8.5651">
	<stop  offset="0" style="stop-color:#76A4FF"/>
	<stop  offset="1" style="stop-color:#D7E7FF"/>
</linearGradient>
<circle class="st0" cx="64" cy="64" r="64"/>
<linearGradient id="SVGID_2_" gradientUnits="userSpaceOnUse" x1="92.8048" y1="113.8913" x2="35.1952" y2="14.1085">
	<stop  offset="0" style="stop-color:#9FC2FF"/>
	<stop  offset="1" style="stop-color:#D7E7FF"/>
</linearGradient>
<path class="st1" d="M121.6,64c0,9.2-2.1,17.9-6,25.6c0,0,0,0,0,0.1c-9.4,18.9-29,32-51.6,32H64c-22.6,0-42.1-13-51.6-32
	c0,0,0,0,0-0.1c-3.8-7.7-6-16.4-6-25.6C6.4,32.2,32.2,6.4,64,6.4H64C95.8,6.4,121.6,32.2,121.6,64z"/>
<path class="st2" d="M112,88.8l0,0.7l-0.7,0c-3.9,0-5.1,0-5.5,0c-0.3,0-0.3,0-0.5,0c-0.4,0-1.6,0-6.3,0l-0.7,0l0-0.7
	c0,0,0.1-3.2-1.4-7c-0.8-2.2-2-4.2-3.5-5.9c-1.9-2.1-4.3-3.8-7.1-5c-5.7-2.4-9.5-4.5-12.8-7c-3.6-2.6-6.6-5.8-9.4-9.8
	c-2.9,4.1-5.9,7.2-9.5,9.9c-3.3,2.5-7.2,4.6-12.8,7c-2.8,1.2-5.2,2.9-7.1,5c-1.5,1.7-2.7,3.7-3.5,5.9c-1.5,3.8-1.4,7-1.4,7l0,0.7
	l-0.7,0c-4.7,0-5.9,0-6.3,0c-0.2,0-0.2,0-0.5,0c-0.4,0-1.6,0-5.5,0l-0.7,0l0-0.7c-0.1-6.4,1.9-13.1,5.6-18.8
	c3.7-5.7,8.9-9.9,14.5-11.9c2.5-0.9,4.9-2.1,7.1-3.5c1.8-1.2,3.5-2.5,5-3.9c2.5-2.4,3.8-4.4,3.9-4.6c4-6.8,7.9-13.6,11.9-20.5
	c4,6.8,7.9,13.6,11.9,20.4c0.1,0.1,1.3,2.1,3.9,4.6c1.5,1.5,3.2,2.8,5,3.9c2.2,1.4,4.6,2.6,7.1,3.5c5.6,2,10.7,6.2,14.5,11.9
	C110.1,75.7,112.1,82.3,112,88.8z"/>
</svg>
