<?xml version="1.0" encoding="utf-8"?>
<!-- Generator: Adobe Illustrator 23.0.5, SVG Export Plug-In . SVG Version: 6.00 Build 0)  -->
<svg version="1.1" id="Layer_1" xmlns="http://www.w3.org/2000/svg" xmlns:xlink="http://www.w3.org/1999/xlink" x="0px" y="0px"
	 viewBox="0 0 440 112" style="enable-background:new 0 0 440 112;" xml:space="preserve">
<style type="text/css">
	.st0{clip-path:url(#SVGID_2_);fill:url(#SVGID_3_);}
	.st1{opacity:0.5;clip-path:url(#SVGID_2_);fill:url(#SVGID_4_);}
	.st2{opacity:0.5;clip-path:url(#SVGID_2_);fill:url(#SVGID_5_);}
	.st3{opacity:0.9;}
	.st4{fill:#4444C6;}
	.st5{fill:#FFFFFF;}
	.st6{opacity:0.1;fill:#242628;enable-background:new    ;}
	.st7{fill:#282E5B;}
	.st8{fill:#059BDC;}
</style>
<g>
	<defs>
		<rect id="SVGID_1_" width="440" height="112"/>
	</defs>
	<clipPath id="SVGID_2_">
		<use xlink:href="#SVGID_1_"  style="overflow:visible;"/>
	</clipPath>
	<linearGradient id="SVGID_3_" gradientUnits="userSpaceOnUse" x1="220" y1="112" x2="220" y2="-9.094947e-13">
		<stop  offset="0" style="stop-color:#DEE4FF"/>
		<stop  offset="1" style="stop-color:#FFFFFF"/>
	</linearGradient>
	<rect x="1.5" class="st0" width="437" height="112"/>
	
		<linearGradient id="SVGID_4_" gradientUnits="userSpaceOnUse" x1="290.8353" y1="287.0475" x2="290.8353" y2="-44.9525" gradientTransform="matrix(0.5 0.866 -0.866 0.5 266.7607 -176.7455)">
		<stop  offset="0" style="stop-color:#DEE4FF"/>
		<stop  offset="1" style="stop-color:#FFFFFF"/>
	</linearGradient>
	<polygon class="st1" points="151.8,198.3 175.3,239 462.9,73 439.4,32.3 	"/>
	
		<linearGradient id="SVGID_5_" gradientUnits="userSpaceOnUse" x1="68.203" y1="362.4437" x2="68.203" y2="30.4437" gradientTransform="matrix(0.5 0.866 -0.866 0.5 266.7607 -176.7455)">
		<stop  offset="0" style="stop-color:#DEE4FF"/>
		<stop  offset="1" style="stop-color:#FFFFFF"/>
	</linearGradient>
	<polygon class="st2" points="-24.8,43.2 -1.3,83.9 286.2,-82.1 262.7,-122.8 	"/>
</g>
<g class="st3">
	<g>
		<path id="C" class="st4" d="M189.2,80.5c0,5.4-2.9,9.8-6.5,9.8s-6.5-4.3-6.5-9.8c0-5.5,2.9-9.8,6.5-9.8
			C186.4,70.7,189.2,75,189.2,80.5z"/>
	</g>
	<g>
		<path class="st4" d="M217.6,80.5c0,5.4-2.9,9.8-6.5,9.8s-6.5-4.3-6.5-9.8c0-5.5,2.9-9.8,6.5-9.8S217.6,75,217.6,80.5z"/>
	</g>
	<path class="st4" d="M260.1,89.2v0.9h-0.9c-5.1,0-6.7,0-7.2,0c-0.4,0-0.4,0-0.7,0c-0.5,0-2.1,0-8.3,0.1h-1v-1c0,0,0.1-4.2-1.8-9.2
		c-1.1-2.9-2.7-5.5-4.7-7.8c-2.4-2.8-5.6-5-9.3-6.6c-7.5-3.2-12.6-6-16.9-9.1c-4.7-3.5-8.7-7.6-12.5-12.9c-3.8,5.3-7.8,9.5-12.5,13
		c-4.2,3.2-9.3,6.1-16.8,9.1c-3.7,1.5-6.8,3.8-9.3,6.6c-2,2.3-3.6,4.9-4.7,7.7c-2,5-1.8,9.1-1.8,9.2v1h-1c-6.2,0-7.8-0.1-8.3-0.1
		c-0.3,0-0.3,0-0.7,0c-0.5,0-2.1,0-7.2,0h-0.9v-0.9c0-8.4,2.6-17.3,7.5-24.8c5-7.5,11.7-13.1,19.1-15.6c3.3-1.2,6.4-2.7,9.4-4.7
		c2.3-1.5,4.6-3.3,6.5-5.1c3.3-3.2,5.1-5.9,5.1-6.1c5.2-8.9,10.4-18,15.6-26.9c5.2,8.9,10.4,17.9,15.6,26.8c0.1,0.2,1.7,2.8,5.1,6.1
		c2.1,2,4.2,3.7,6.5,5.1c2.9,2,6.1,3.5,9.4,4.7c7.4,2.6,14.2,8.1,19.1,15.6C257.5,71.9,260.2,80.8,260.1,89.2z"/>
	<path class="st5" d="M306.5,65.3c0,6.5-1.5,12.6-4.2,18.1l0,0c-6.7,13.4-20.4,22.6-36.4,22.6l0,0c-16,0-29.7-9.2-36.4-22.6l0,0
		c-2.7-5.4-4.2-11.6-4.2-18.1c0-22.4,18.2-40.7,40.7-40.7l0,0C288.3,24.7,306.5,42.9,306.5,65.3z"/>
	<path class="st6" d="M265.8,24.7c-22.4,0-40.7,18.2-40.7,40.7s18.2,40.7,40.7,40.7s40.7-18.2,40.7-40.7S288.2,24.7,265.8,24.7z
		 M298.6,81.6c-6,12-18.4,20.3-32.8,20.3l0,0c-14.4,0-26.7-8.3-32.8-20.3l0,0c-2.4-4.9-3.8-10.4-3.8-16.3
		c0-20.2,16.4-36.6,36.6-36.6l0,0c20.2,0,36.6,16.4,36.6,36.6C302.4,71.2,301.1,76.7,298.6,81.6L298.6,81.6z"/>
	<path class="st7" d="M271.5,54.6c0-8-3.9-14.9-6.9-17.3c0,0-0.2-0.1-0.2,0.2c-0.3,15.5-8.1,19.8-12.5,25.4
		c-10,13.1-0.7,27.5,8.8,30.1c5.3,1.4-1.3-2.6-2.1-11.3C257.8,71.2,271.5,63.3,271.5,54.6"/>
	<path class="st8" d="M276.8,59.9c0,0-0.1,0-0.2,0l0,0c-0.2,1.9-2.3,6.1-5,9.9c-9.1,13-3.9,19.2-1,22.7c1.7,2,0,0,4.2-2
		c0.4-0.2,8.2-4.3,9.1-13.9C284.7,67.3,278.9,61.6,276.8,59.9"/>
</g>
</svg>
