<svg xmlns="http://www.w3.org/2000/svg" xmlns:xlink="http://www.w3.org/1999/xlink" id="Layer_1" x="0" y="0" version="1.1" viewBox="0 0 440 112" xml:space="preserve" style="enable-background:new 0 0 440 112"><style type="text/css">.st0{clip-path:url(#SVGID_2_);fill:url(#SVGID_3_)}.st1,.st2{opacity:.5;clip-path:url(#SVGID_5_);fill:url(#SVGID_6_);enable-background:new}.st2{clip-path:url(#SVGID_8_);fill:url(#SVGID_9_)}.st3{opacity:.9}.st4{fill:#4444c6}.st5{fill:#21284f}.st6{fill:#d2d2d8}.st7{fill:url(#SVGID_10_)}.st8{fill:url(#SVGID_11_)}.st9{fill:#282e5b}.st10{fill:#1ac4ff}</style><g><g><defs><rect id="SVGID_1_" width="440" height="112"/></defs><clipPath id="SVGID_2_"><use xlink:href="#SVGID_1_" style="overflow:visible"/></clipPath><linearGradient id="SVGID_3_" x1="220" x2="220" y1="2" y2="114" gradientTransform="matrix(1 0 0 -1 0 114)" gradientUnits="userSpaceOnUse"><stop offset="0" style="stop-color:#dee4ff"/><stop offset="1" style="stop-color:#fff"/></linearGradient><rect width="437" height="112" x="1.5" class="st0"/></g><g><defs><rect id="SVGID_4_" width="440" height="112"/></defs><clipPath id="SVGID_5_"><use xlink:href="#SVGID_4_" style="overflow:visible"/></clipPath><linearGradient id="SVGID_6_" x1="374.901" x2="374.901" y1="-304.693" y2="27.384" gradientTransform="matrix(0.5 0.866 0.866 -0.5 239.9747 -258.3415)" gradientUnits="userSpaceOnUse"><stop offset="0" style="stop-color:#dee4ff"/><stop offset="1" style="stop-color:#fff"/></linearGradient><polygon points="151.8 198.3 175.3 239 462.9 73 439.4 32.3" class="st1"/></g><g><defs><rect id="SVGID_7_" width="440" height="112"/></defs><clipPath id="SVGID_8_"><use xlink:href="#SVGID_7_" style="overflow:visible"/></clipPath><linearGradient id="SVGID_9_" x1="152.249" x2="152.249" y1="-380.082" y2="-48.092" gradientTransform="matrix(0.5 0.866 0.866 -0.5 239.9747 -258.3415)" gradientUnits="userSpaceOnUse"><stop offset="0" style="stop-color:#dee4ff"/><stop offset="1" style="stop-color:#fff"/></linearGradient><polygon points="-24.8 43.2 -1.3 83.9 286.2 -82.1 262.7 -122.8" class="st2"/></g></g><g class="st3"><g><path id="C" d="M189.2,80.5c0,5.4-2.9,9.8-6.5,9.8s-6.5-4.3-6.5-9.8s2.9-9.8,6.5-9.8C186.4,70.7,189.2,75,189.2,80.5z" class="st4"/></g><g><path d="M217.6,80.5c0,5.4-2.9,9.8-6.5,9.8s-6.5-4.3-6.5-9.8s2.9-9.8,6.5-9.8S217.6,75,217.6,80.5z" class="st4"/></g><path d="M260.1,89.2v0.9h-0.9c-5.1,0-6.7,0-7.2,0c-0.4,0-0.4,0-0.7,0c-0.5,0-2.1,0-8.3,0.1h-1v-1c0,0,0.1-4.2-1.8-9.2 c-1.1-2.9-2.7-5.5-4.7-7.8c-2.4-2.8-5.6-5-9.3-6.6c-7.5-3.2-12.6-6-16.9-9.1c-4.7-3.5-8.7-7.6-12.5-12.9c-3.8,5.3-7.8,9.5-12.5,13 c-4.2,3.2-9.3,6.1-16.8,9.1c-3.7,1.5-6.8,3.8-9.3,6.6c-2,2.3-3.6,4.9-4.7,7.7c-2,5-1.8,9.1-1.8,9.2v1h-1c-6.2,0-7.8-0.1-8.3-0.1 c-0.3,0-0.3,0-0.7,0c-0.5,0-2.1,0-7.2,0h-0.9v-0.9c0-8.4,2.6-17.3,7.5-24.8c5-7.5,11.7-13.1,19.1-15.6c3.3-1.2,6.4-2.7,9.4-4.7 c2.3-1.5,4.6-3.3,6.5-5.1c3.3-3.2,5.1-5.9,5.1-6.1c5.2-8.9,10.4-18,15.6-26.9c5.2,8.9,10.4,17.9,15.6,26.8c0.1,0.2,1.7,2.8,5.1,6.1 c2.1,2,4.2,3.7,6.5,5.1c2.9,2,6.1,3.5,9.4,4.7c7.4,2.6,14.2,8.1,19.1,15.6C257.5,71.9,260.2,80.8,260.1,89.2z" class="st4"/></g><circle cx="265.5" cy="63.1" r="41" class="st5"/><path d="M298.7,79.3C298.6,79.3,298.6,79.3,298.7,79.3c0,0.1-0.1,0.1-0.1,0.2c0,0,0,0,0,0c-6,12.1-18.6,20.5-33,20.5h0	c-14.5,0-27-8.3-33-20.5c0,0,0,0,0,0c0,0,0-0.1-0.1-0.1c0,0,0,0,0,0h2.4l0-0.3c-0.1-4.1,1.2-8.4,3.6-12.1c2.4-3.7,5.7-6.4,9.3-7.6	c1.6-0.6,3.1-1.3,4.6-2.3c1.1-0.7,2.2-1.6,3.2-2.5c1.6-1.6,2.4-2.8,2.5-2.9c2.5-4.4,5.1-8.7,7.6-13.1c2.5,4.4,5.1,8.7,7.6,13.1	c0,0.1,0.9,1.4,2.5,2.9c1,0.9,2,1.8,3.2,2.5c1.4,0.9,3,1.7,4.6,2.3c3.6,1.3,6.9,4,9.3,7.6c2.4,3.7,3.7,7.9,3.6,12.1l0,0.3H298.7z" class="st6"/><linearGradient id="SVGID_10_" x1="232.345" x2="298.656" y1="79.309" y2="79.309" gradientUnits="userSpaceOnUse"><stop offset="0" style="stop-color:#adadad"/><stop offset=".5" style="stop-color:#c9c9c9"/><stop offset="1" style="stop-color:#adadad"/></linearGradient><path d="M298.7,79.3C298.6,79.3,298.6,79.3,298.7,79.3l-66.3,0c0,0,0,0,0,0H298.7z" class="st7"/><linearGradient id="SVGID_11_" x1="265.5" x2="265.5" y1="99.973" y2="26.173" gradientUnits="userSpaceOnUse"><stop offset="0" style="stop-color:#adadad"/><stop offset=".5" style="stop-color:#c9c9c9"/><stop offset="1" style="stop-color:#adadad"/></linearGradient><rect width="0" height="73.8" x="265.5" y="26.2" class="st8"/><path d="M302.4,63.1c0,1.1,0,2.2-0.1,3.3c0,0.1,0,0.3,0,0.4c0,0.1,0,0.2,0,0.4c0,0.1,0,0.3-0.1,0.4c0,0.1,0,0.3-0.1,0.4	c0,0.1,0,0.2,0,0.3c-0.1,0.8-0.3,1.7-0.4,2.5c0,0.2-0.1,0.3-0.1,0.4c-0.2,0.9-0.4,1.7-0.7,2.5c0,0.2-0.1,0.3-0.2,0.5	c0,0.1-0.1,0.2-0.1,0.2c-0.2,0.6-0.4,1.1-0.6,1.7c-0.1,0.2-0.1,0.3-0.2,0.5c0,0.1-0.1,0.2-0.1,0.2c-0.1,0.2-0.1,0.3-0.2,0.5	c-0.1,0.2-0.1,0.3-0.2,0.5c-0.2,0.4-0.3,0.8-0.5,1.1c0,0.1-0.1,0.2-0.1,0.2h-2.4l0-0.3c0.1-4.1-1.2-8.4-3.6-12.1	c-2.4-3.7-5.7-6.4-9.3-7.6c-1.6-0.6-3.1-1.3-4.6-2.3c-1.1-0.7-2.2-1.6-3.2-2.5c-1.6-1.6-2.4-2.8-2.5-2.9c-2.5-4.4-5.1-8.7-7.6-13.1	c-2.5,4.4-5.1,8.7-7.6,13.1c0,0.1-0.9,1.4-2.5,2.9c-1,0.9-2.1,1.8-3.2,2.5c-1.4,0.9-3,1.7-4.6,2.3c-3.6,1.3-6.9,4-9.3,7.6	c-2.4,3.7-3.7,7.9-3.6,12.1l0,0.3h-2.4c0-0.1-0.1-0.2-0.1-0.2c-0.2-0.4-0.4-0.8-0.5-1.1c-0.1-0.2-0.1-0.3-0.2-0.5	c-0.1-0.2-0.1-0.3-0.2-0.5c0-0.1-0.1-0.2-0.1-0.2c-0.1-0.2-0.1-0.3-0.2-0.5c-0.2-0.6-0.4-1.1-0.6-1.7c0-0.1-0.1-0.2-0.1-0.2	c-0.1-0.2-0.1-0.3-0.2-0.5c-0.3-0.8-0.5-1.7-0.7-2.5c0-0.1-0.1-0.3-0.1-0.4c-0.2-0.8-0.3-1.6-0.4-2.5c0-0.1,0-0.2,0-0.3	c0-0.1,0-0.3-0.1-0.4c0-0.1,0-0.3-0.1-0.4c0-0.1,0-0.2,0-0.4c0-0.1,0-0.3,0-0.4c-0.1-1.1-0.1-2.2-0.1-3.3	c0-20.4,16.5-36.9,36.9-36.9h0C285.9,26.2,302.4,42.7,302.4,63.1z" class="st9"/><path d="M296.2,79l0,0.3h-8.8l0-0.3c0,0,0,0,0,0c0-0.3,0-2.2-0.9-4.4c-0.5-1.4-1.3-2.7-2.3-3.8	c-1.2-1.4-2.7-2.4-4.5-3.2c-3.6-1.6-6.1-2.9-8.2-4.5c-2.3-1.7-4.2-3.7-6-6.3c-1.8,2.6-3.8,4.6-6.1,6.3c-2.1,1.6-4.6,2.9-8.2,4.5	c-1.8,0.8-3.3,1.9-4.5,3.2c-1,1.1-1.7,2.4-2.3,3.8c-0.9,2.2-0.9,4.1-0.9,4.4c0,0,0,0,0,0l0,0.3h-8.8l0-0.3	c-0.1-4.1,1.2-8.4,3.6-12.1c2.4-3.7,5.7-6.4,9.3-7.6c1.6-0.6,3.1-1.3,4.6-2.3c1.1-0.7,2.2-1.6,3.2-2.5c1.6-1.6,2.4-2.8,2.5-2.9	c2.5-4.4,5.1-8.7,7.6-13.1c2.5,4.4,5.1,8.7,7.6,13.1c0,0.1,0.9,1.4,2.5,2.9c1,0.9,2,1.8,3.2,2.5c1.4,0.9,3,1.7,4.6,2.3	c3.6,1.3,6.9,4,9.3,7.6C295,70.5,296.3,74.8,296.2,79z" class="st10"/></svg>