<svg xmlns="http://www.w3.org/2000/svg" xmlns:xlink="http://www.w3.org/1999/xlink" id="Layer_1" x="0" y="0" version="1.1" viewBox="0 0 128 128" xml:space="preserve" style="enable-background:new 0 0 128 128"><style type="text/css">.st0{fill:#21284f}.st1{fill:#d2d2d8}.st2{fill:url(#SVGID_1_)}.st3{fill:url(#SVGID_2_)}.st4{fill:#282e5b}.st5{fill:#1ac4ff}</style><circle cx="64" cy="64" r="64" class="st0"/><path d="M115.8,89.3C115.7,89.3,115.7,89.4,115.8,89.3c-0.1,0.1-0.1,0.2-0.1,0.3c0,0,0,0,0,0.1c-9.4,18.9-29,32-51.6,32	H64c-22.6,0-42.1-13-51.6-32c0,0,0,0,0-0.1c0-0.1-0.1-0.1-0.1-0.2c0,0,0,0,0-0.1H16l0-0.5c-0.1-6.4,1.9-13.1,5.6-18.8	c3.7-5.7,8.9-9.9,14.5-11.9c2.5-0.9,4.9-2.1,7.1-3.5c1.8-1.2,3.5-2.5,5-3.9c2.5-2.4,3.8-4.4,3.9-4.6c4-6.8,7.9-13.6,11.9-20.5	c4,6.8,7.9,13.6,11.9,20.4c0.1,0.1,1.3,2.1,3.9,4.6c1.5,1.5,3.2,2.8,5,3.9c2.2,1.4,4.6,2.6,7.1,3.5c5.6,2,10.7,6.2,14.5,11.9	c3.7,5.7,5.7,12.4,5.6,18.8l0,0.5H115.8z" class="st1"/><linearGradient id="SVGID_1_" x1="12.245" x2="115.755" y1="89.344" y2="89.344" gradientUnits="userSpaceOnUse"><stop offset="0" style="stop-color:#adadad"/><stop offset=".5" style="stop-color:#c9c9c9"/><stop offset="1" style="stop-color:#adadad"/></linearGradient><path d="M115.8,89.3C115.7,89.3,115.7,89.4,115.8,89.3L12.3,89.4c0,0,0,0,0-0.1H115.8z" class="st2"/><linearGradient id="SVGID_2_" x1="64" x2="64" y1="121.6" y2="6.4" gradientUnits="userSpaceOnUse"><stop offset="0" style="stop-color:#adadad"/><stop offset=".5" style="stop-color:#c9c9c9"/><stop offset="1" style="stop-color:#adadad"/></linearGradient><rect width=".1" height="115.2" x="64" y="6.4" class="st3"/><path d="M121.6,64c0,1.7-0.1,3.4-0.2,5.1c0,0.2,0,0.5-0.1,0.7c0,0.2,0,0.4-0.1,0.5c0,0.2-0.1,0.4-0.1,0.7	c0,0.2-0.1,0.4-0.1,0.6c0,0.2,0,0.3-0.1,0.5c-0.2,1.3-0.4,2.6-0.7,3.9c0,0.2-0.1,0.5-0.2,0.7c-0.3,1.3-0.7,2.7-1,4	c-0.1,0.3-0.2,0.5-0.2,0.8c0,0.1-0.1,0.3-0.1,0.4c-0.3,0.9-0.6,1.8-0.9,2.7c-0.1,0.2-0.2,0.5-0.3,0.7c0,0.1-0.1,0.3-0.2,0.4	c-0.1,0.2-0.2,0.5-0.3,0.7c-0.1,0.3-0.2,0.5-0.3,0.8c-0.3,0.6-0.5,1.2-0.8,1.8c-0.1,0.1-0.1,0.2-0.2,0.4H112l0-0.5	c0.1-6.4-1.9-13.1-5.6-18.8c-3.7-5.7-8.9-9.9-14.5-11.9c-2.5-0.9-4.9-2.1-7.1-3.5c-1.8-1.2-3.5-2.5-5-3.9c-2.5-2.4-3.8-4.4-3.9-4.6	c-4-6.8-7.9-13.6-11.9-20.4c-4,6.8-7.9,13.6-11.9,20.5c-0.1,0.1-1.3,2.1-3.9,4.6c-1.5,1.5-3.2,2.8-5,3.9c-2.2,1.4-4.6,2.6-7.1,3.5	c-5.6,2-10.7,6.2-14.5,11.9c-3.7,5.7-5.7,12.4-5.6,18.8l0,0.5h-3.8c-0.1-0.1-0.1-0.2-0.2-0.4c-0.3-0.6-0.6-1.2-0.8-1.8	c-0.1-0.3-0.2-0.5-0.3-0.8c-0.1-0.2-0.2-0.5-0.3-0.7c-0.1-0.1-0.1-0.3-0.2-0.4c-0.1-0.2-0.2-0.5-0.3-0.7c-0.3-0.9-0.6-1.8-0.9-2.7	c0-0.1-0.1-0.3-0.1-0.4C9,81.2,8.9,81,8.9,80.7c-0.4-1.3-0.7-2.6-1-4c-0.1-0.2-0.1-0.5-0.2-0.7c-0.3-1.3-0.5-2.6-0.7-3.9	c0-0.2,0-0.3-0.1-0.5c0-0.2-0.1-0.4-0.1-0.6c0-0.2-0.1-0.4-0.1-0.7c0-0.2,0-0.4-0.1-0.5c0-0.2,0-0.4-0.1-0.7	c-0.1-1.7-0.2-3.4-0.2-5.1C6.4,32.2,32.2,6.4,64,6.4H64C95.8,6.4,121.6,32.2,121.6,64z" class="st4"/><path d="M112,88.8l0,0.5H98.3l0-0.5c0,0,0,0,0-0.1c0-0.5,0-3.4-1.4-6.9c-0.8-2.2-2-4.2-3.5-5.9c-1.9-2.1-4.3-3.8-7.1-5	c-5.7-2.4-9.5-4.5-12.8-7c-3.6-2.6-6.6-5.8-9.4-9.8c-2.9,4.1-5.9,7.2-9.5,9.9c-3.3,2.5-7.2,4.6-12.8,7c-2.8,1.2-5.2,2.9-7.1,5	c-1.5,1.7-2.7,3.7-3.5,5.9c-1.3,3.5-1.4,6.5-1.4,6.9c0,0,0,0.1,0,0.1l0,0.4H16l0-0.5c-0.1-6.4,1.9-13.1,5.6-18.8	c3.7-5.7,8.9-9.9,14.5-11.9c2.5-0.9,4.9-2.1,7.1-3.5c1.8-1.2,3.5-2.5,5-3.9c2.5-2.4,3.8-4.4,3.9-4.6c4-6.8,7.9-13.6,11.9-20.5	c4,6.8,7.9,13.6,11.9,20.4c0.1,0.1,1.3,2.1,3.9,4.6c1.5,1.5,3.2,2.8,5,3.9c2.2,1.4,4.6,2.6,7.1,3.5c5.6,2,10.7,6.2,14.5,11.9	C110.1,75.7,112.1,82.3,112,88.8z" class="st5"/></svg>