<?xml version="1.0" encoding="utf-8"?>
<!-- Generator: Adobe Illustrator 23.0.5, SVG Export Plug-In . SVG Version: 6.00 Build 0)  -->
<svg version="1.1" id="Layer_1" xmlns="http://www.w3.org/2000/svg" xmlns:xlink="http://www.w3.org/1999/xlink" x="0px" y="0px"
	 viewBox="0 0 96 96" style="enable-background:new 0 0 96 96;" xml:space="preserve">
<style type="text/css">
	.st0{fill-rule:evenodd;clip-rule:evenodd;fill:#C4C4C4;filter:url(#Adobe_OpacityMaskFilter);}
	.st1{mask:url(#mask0_1_);}
	.st2{fill:url(#SVGID_1_);}
	.st3{fill:url(#SVGID_2_);}
	.st4{fill:#4444C6;}
	.st5{fill:url(#SVGID_3_);}
	.st6{fill:url(#SVGID_4_);}
</style>
<defs>
	<filter id="Adobe_OpacityMaskFilter" filterUnits="userSpaceOnUse" x="0" y="0" width="96" height="96">
		<feColorMatrix  type="matrix" values="1 0 0 0 0  0 1 0 0 0  0 0 1 0 0  0 0 0 1 0"/>
	</filter>
</defs>
<mask maskUnits="userSpaceOnUse" x="0" y="0" width="96" height="96" id="mask0_1_">
	<path class="st0" d="M96,0H0v96h69.7c-5.3-3.4-8.7-9.3-8.7-16c0-10.5,8.5-19,19-19c6.7,0,12.6,3.5,16,8.7V0z"/>
</mask>
<g class="st1">
	<linearGradient id="SVGID_1_" gradientUnits="userSpaceOnUse" x1="72.004" y1="89.5762" x2="23.996" y2="6.4238">
		<stop  offset="0" style="stop-color:#76A4FF"/>
		<stop  offset="1" style="stop-color:#D7E7FF"/>
	</linearGradient>
	<circle class="st2" cx="48" cy="48" r="48"/>
	<linearGradient id="SVGID_2_" gradientUnits="userSpaceOnUse" x1="69.6036" y1="85.4185" x2="26.3964" y2="10.5814">
		<stop  offset="0" style="stop-color:#9FC2FF"/>
		<stop  offset="1" style="stop-color:#D7E7FF"/>
	</linearGradient>
	<path class="st3" d="M91.2,48c0,6.9-1.6,13.4-4.5,19.2c0,0,0,0,0,0c-7.1,14.2-21.7,24-38.7,24h0c-16.9,0-31.6-9.8-38.7-24
		c0,0,0,0,0,0C6.4,61.4,4.8,54.9,4.8,48C4.8,24.1,24.1,4.8,48,4.8h0C71.9,4.8,91.2,24.1,91.2,48z"/>
	<path class="st4" d="M84,66.6l0,0.5l-0.5,0c-2.9,0-3.8,0-4.1,0c-0.2,0-0.2,0-0.4,0c-0.3,0-1.2,0-4.7,0l-0.6,0l0-0.6
		c0,0,0.1-2.4-1-5.2C72,59.7,71.1,58.2,70,57c-1.4-1.6-3.2-2.9-5.3-3.8c-4.2-1.8-7.1-3.4-9.6-5.2c-2.7-2-4.9-4.3-7.1-7.4
		c-2.2,3.1-4.4,5.4-7.1,7.4c-2.5,1.8-5.4,3.4-9.6,5.2c-2.1,0.9-3.9,2.2-5.3,3.8c-1.1,1.3-2,2.8-2.7,4.4c-1.1,2.8-1,5.2-1,5.2l0,0.5
		l-0.6,0c-3.6,0-4.4,0-4.7,0c-0.2,0-0.2,0-0.4,0c-0.3,0-1.2,0-4.1,0l-0.5,0l0-0.5c-0.1-4.8,1.4-9.9,4.2-14.1
		c2.8-4.3,6.7-7.5,10.9-8.9c1.9-0.7,3.7-1.6,5.4-2.6c1.3-0.9,2.6-1.9,3.7-3c1.9-1.8,2.9-3.3,2.9-3.4c3-5.1,5.9-10.2,8.9-15.4
		c3,5.1,5.9,10.2,8.9,15.3c0.1,0.1,1,1.6,2.9,3.4c1.1,1.1,2.4,2.1,3.7,3c1.7,1.1,3.5,2,5.4,2.6c4.2,1.5,8.1,4.7,10.9,8.9
		C82.6,56.7,84.1,61.8,84,66.6z"/>
</g>
<linearGradient id="SVGID_3_" gradientUnits="userSpaceOnUse" x1="88.0013" y1="93.8587" x2="71.9987" y2="66.1413">
	<stop  offset="0" style="stop-color:#76A4FF"/>
	<stop  offset="1" style="stop-color:#D7E7FF"/>
</linearGradient>
<circle class="st5" cx="80" cy="80" r="16"/>
<linearGradient id="SVGID_4_" gradientUnits="userSpaceOnUse" x1="87.2012" y1="92.4728" x2="72.7988" y2="67.5271">
	<stop  offset="0" style="stop-color:#9FC2FF"/>
	<stop  offset="1" style="stop-color:#D7E7FF"/>
</linearGradient>
<path class="st6" d="M94.4,80c0,2.3-0.5,4.5-1.5,6.4c0,0,0,0,0,0c-2.4,4.7-7.2,8-12.9,8h0c-5.6,0-10.5-3.3-12.9-8c0,0,0,0,0,0
	c-1-1.9-1.5-4.1-1.5-6.4c0-8,6.4-14.4,14.4-14.4h0C88,65.6,94.4,72,94.4,80z"/>
<path class="st4" d="M92,86.2l0,0.2l-0.2,0c-1,0-1.3,0-1.4,0c-0.1,0-0.1,0-0.1,0c-0.1,0-0.4,0-1.6,0l-0.2,0l0-0.2c0,0,0-0.8-0.3-1.7
	c-0.2-0.6-0.5-1-0.9-1.5c-0.5-0.5-1.1-1-1.8-1.3c-1.4-0.6-2.4-1.1-3.2-1.7c-0.9-0.7-1.6-1.4-2.4-2.5c-0.7,1-1.5,1.8-2.4,2.5
	c-0.8,0.6-1.8,1.1-3.2,1.7c-0.7,0.3-1.3,0.7-1.8,1.3c-0.4,0.4-0.7,0.9-0.9,1.5c-0.4,0.9-0.3,1.7-0.3,1.7l0,0.2l-0.2,0
	c-1.2,0-1.5,0-1.6,0c-0.1,0-0.1,0-0.1,0c-0.1,0-0.4,0-1.4,0l-0.2,0l0-0.2c0-1.6,0.5-3.3,1.4-4.7c0.9-1.4,2.2-2.5,3.6-3
	c0.6-0.2,1.2-0.5,1.8-0.9c0.4-0.3,0.9-0.6,1.2-1c0.6-0.6,1-1.1,1-1.1c1-1.7,2-3.4,3-5.1c1,1.7,2,3.4,3,5.1c0,0,0.3,0.5,1,1.1
	c0.4,0.4,0.8,0.7,1.2,1c0.6,0.4,1.2,0.7,1.8,0.9c1.4,0.5,2.7,1.6,3.6,3C91.5,82.9,92,84.6,92,86.2z"/>
</svg>
