<svg xmlns="http://www.w3.org/2000/svg" xmlns:xlink="http://www.w3.org/1999/xlink" id="Layer_1" width="96" height="96" data-name="Layer 1" viewBox="0 0 96 96"><defs><mask id="mask" width="96" height="96" x="0" y="0" maskUnits="userSpaceOnUse"><g id="mask-2" data-name="mask"><g id="mask0"><path fill="#c4c4c4" fill-rule="evenodd" d="M96,0H0V96H69.75A19,19,0,1,1,96,69.75Z"/></g></g></mask><linearGradient id="linear-gradient" x1="9.21" x2="86.82" y1="31" y2="31" gradientTransform="matrix(1, 0, 0, -1, 0, 98)" gradientUnits="userSpaceOnUse"><stop offset="0" stop-color="#adadad"/><stop offset=".5" stop-color="#c9c9c9"/><stop offset="1" stop-color="#adadad"/></linearGradient><linearGradient id="linear-gradient-2" x1="48" x2="48" y1="6.8" y2="93.2" xlink:href="#linear-gradient"/><linearGradient id="linear-gradient-3" x1="72" x2="24" y1="8.42" y2="91.58" gradientTransform="matrix(1, 0, 0, -1, 0, 98)" gradientUnits="userSpaceOnUse"><stop offset="0" stop-color="#76a4ff"/><stop offset="1" stop-color="#d7e7ff"/></linearGradient><linearGradient id="linear-gradient-4" x1="69.63" x2="26.41" y1="12.63" y2="87.49" gradientTransform="matrix(1, 0, 0, -1, 0, 98)" gradientUnits="userSpaceOnUse"><stop offset="0" stop-color="#9fc2ff"/><stop offset="1" stop-color="#d7e7ff"/></linearGradient><linearGradient id="linear-gradient-5" x1="88" x2="72" y1="4.14" y2="31.86" xlink:href="#linear-gradient-3"/><linearGradient id="linear-gradient-6" x1="87.21" x2="72.8" y1="5.54" y2="30.5" xlink:href="#linear-gradient-4"/></defs><title>oge-oge</title><g mask="url(#mask)"><g><g><circle cx="48" cy="48" r="48" fill="#21284f"/><path fill="#d2d2d8" d="M86.81,67h0a1,1,0,0,1-.07.15h0A43.2,43.2,0,0,1,48,91.2h0a43.2,43.2,0,0,1-38.68-24h0a1.28,1.28,0,0,1-.11-.2H12v-.35a25.46,25.46,0,0,1,4.23-14.13,22.16,22.16,0,0,1,10.86-8.94A25.49,25.49,0,0,0,36.18,38a19,19,0,0,0,2.9-3.42L48,19.2l8.91,15.31a19.74,19.74,0,0,0,2.9,3.42,25.74,25.74,0,0,0,3.74,3,25.32,25.32,0,0,0,5.35,2.63A22.26,22.26,0,0,1,79.76,52.5,25.5,25.5,0,0,1,84,66.59V67Z"/><path fill="url(#linear-gradient)" d="M86.82,67Z"/><rect width=".05" height="86.4" x="47.98" y="4.8" fill="url(#linear-gradient-2)"/><path fill="#282e5b" d="M91.2,48c0,1.3-.06,2.58-.17,3.85v.91l-.06.51-.06.48v.39c-.14,1-.31,2-.52,2.9a2.5,2.5,0,0,1-.11.53c-.23,1-.49,2-.79,3l-.18.58-.09.29c-.22.67-.46,1.33-.71,2-.07.19-.14.37-.22.56s-.07.19-.11.28-.15.37-.23.55l-.25.58c-.19.45-.4.89-.61,1.33,0,.1-.09.19-.14.28H84v-.4a25.54,25.54,0,0,0-4.23-14.13,22.26,22.26,0,0,0-10.86-8.94,25.32,25.32,0,0,1-5.35-2.63,25.74,25.74,0,0,1-3.74-3,19.74,19.74,0,0,1-2.9-3.42L48,19.2,39.07,34.55A18.7,18.7,0,0,1,36.18,38a25.4,25.4,0,0,1-9.09,5.6,22.16,22.16,0,0,0-10.86,8.94A25.44,25.44,0,0,0,12,66.64V67H9.19c0-.09-.09-.18-.14-.28-.21-.44-.42-.88-.61-1.33l-.25-.58c-.08-.18-.15-.36-.23-.55A2.79,2.79,0,0,1,7.85,64c0-.09-.15-.37-.22-.56-.25-.66-.49-1.32-.71-2l-.09-.29-.18-.58c-.3-1-.56-2-.79-3A2.5,2.5,0,0,0,5.75,57c-.21-1-.38-1.92-.52-2.9a1,1,0,0,0-.05-.39l-.06-.48-.06-.51v-.91A24.24,24.24,0,0,1,4.8,48,43.2,43.2,0,0,1,48,4.8h0A43.2,43.2,0,0,1,91.2,48Z"/><path fill="#1ac4ff" d="M84,66.59V67H73.7v-.43a15.38,15.38,0,0,0-1-5.19A14.37,14.37,0,0,0,70,57a14.88,14.88,0,0,0-5.31-3.76A46.08,46.08,0,0,1,55.09,48,31.65,31.65,0,0,1,48,40.62,31.65,31.65,0,0,1,40.91,48a46,46,0,0,1-9.62,5.23A15,15,0,0,0,26,57a14.2,14.2,0,0,0-2.66,4.41,15.38,15.38,0,0,0-1,5.19V67H12v-.35a25.46,25.46,0,0,1,4.23-14.13,22.16,22.16,0,0,1,10.86-8.94A25.49,25.49,0,0,0,36.18,38a19,19,0,0,0,2.9-3.42L48,19.2l8.91,15.31a19.74,19.74,0,0,0,2.9,3.42,25.74,25.74,0,0,0,3.74,3,25.32,25.32,0,0,0,5.35,2.63A22.26,22.26,0,0,1,79.76,52.5,25.5,25.5,0,0,1,84,66.59Z"/></g><circle cx="48" cy="48" r="48" fill="url(#linear-gradient-3)"/><path fill="url(#linear-gradient-4)" d="M91.2,48a41.16,41.16,0,0,1-4.5,19.2h0A43.4,43.4,0,0,1,48,91.2h0a43.75,43.75,0,0,1-38.7-24h0A41.16,41.16,0,0,1,4.8,48,43,43,0,0,1,48,4.8h0A43,43,0,0,1,91.2,48Z"/><path fill="#4444c6" d="M84,66.6v.6H73.5v-.6a18,18,0,0,0-.9-5.1A13.85,13.85,0,0,0,69.9,57a17.81,17.81,0,0,0-5.4-3.9A46.25,46.25,0,0,1,54.9,48a34.52,34.52,0,0,1-7.2-7.5A34.3,34.3,0,0,1,40.5,48a46.25,46.25,0,0,1-9.6,5.1A13.89,13.89,0,0,0,25.5,57a11.3,11.3,0,0,0-2.7,4.5,10.57,10.57,0,0,0-.9,5.1v.6H11.4v-.6a26.67,26.67,0,0,1,4.2-14.1,22.26,22.26,0,0,1,10.8-9,22.72,22.72,0,0,0,5.4-2.7,17.4,17.4,0,0,0,3.6-3c1.8-1.8,3-3.3,3-3.3l9-15.3,9,15.3a15.31,15.31,0,0,0,3,3.3,31.77,31.77,0,0,0,3.6,3,22.72,22.72,0,0,0,5.4,2.7,22.26,22.26,0,0,1,10.8,9A22.9,22.9,0,0,1,84,66.6Z"/></g></g><path fill="#1ac4ff" d="M92,86.2v.13H88.57V86.2h0a5.12,5.12,0,0,0-.34-1.73,4.76,4.76,0,0,0-2.66-2.72A15.14,15.14,0,0,1,82.36,80,10.81,10.81,0,0,1,80,77.54,10.81,10.81,0,0,1,77.64,80a16.33,16.33,0,0,1-3.21,1.74A5.17,5.17,0,0,0,72.66,83a4.9,4.9,0,0,0-.89,1.47,5.12,5.12,0,0,0-.34,1.73v.13H68v-.12a8.58,8.58,0,0,1,1.41-4.71,7.45,7.45,0,0,1,3.62-3,7.77,7.77,0,0,0,1.78-.88,8.06,8.06,0,0,0,1.25-1,6.81,6.81,0,0,0,1-1.14l3-5.12,3,5.1a6.81,6.81,0,0,0,1,1.14,8.06,8.06,0,0,0,1.25,1,8.43,8.43,0,0,0,1.78.88,7.39,7.39,0,0,1,3.62,3A8.53,8.53,0,0,1,92,86.2Z"/><circle cx="80" cy="80" r="16" fill="url(#linear-gradient-5)"/><path fill="url(#linear-gradient-6)" d="M94.4,80a13.72,13.72,0,0,1-1.5,6.4h0a14.47,14.47,0,0,1-12.9,8h0a14.58,14.58,0,0,1-12.9-8h0A13.72,13.72,0,0,1,65.6,80,14.34,14.34,0,0,1,80,65.6h0A14.34,14.34,0,0,1,94.4,80Z"/><path fill="#4444c6" d="M92,86.2v.2H88.5v-.2a6,6,0,0,0-.3-1.7,4.62,4.62,0,0,0-.9-1.5,5.94,5.94,0,0,0-1.8-1.3A15.42,15.42,0,0,1,82.3,80a11.51,11.51,0,0,1-2.4-2.5A11.43,11.43,0,0,1,77.5,80a15.42,15.42,0,0,1-3.2,1.7A4.63,4.63,0,0,0,72.5,83a3.77,3.77,0,0,0-.9,1.5,3.52,3.52,0,0,0-.3,1.7v.2H67.8v-.2a8.89,8.89,0,0,1,1.4-4.7,7.42,7.42,0,0,1,3.6-3,7.57,7.57,0,0,0,1.8-.9,5.8,5.8,0,0,0,1.2-1c.6-.6,1-1.1,1-1.1l3-5.1,3,5.1a5.1,5.1,0,0,0,1,1.1,10.59,10.59,0,0,0,1.2,1,7.57,7.57,0,0,0,1.8.9,7.42,7.42,0,0,1,3.6,3A7.63,7.63,0,0,1,92,86.2Z"/></svg>