<svg xmlns="http://www.w3.org/2000/svg" xmlns:xlink="http://www.w3.org/1999/xlink" id="Layer_1" width="96" height="96" data-name="Layer 1" viewBox="0 0 96 96"><defs><mask id="mask" width="96" height="96" x="0" y="0" maskUnits="userSpaceOnUse"><g id="mask0"><path fill="#c4c4c4" fill-rule="evenodd" d="M96,0H0V96H69.75A19,19,0,1,1,96,69.75Z"/></g></mask><linearGradient id="New_Gradient_Swatch_5" x1="9.18" x2="86.82" y1="67.01" y2="67.01" data-name="New Gradient Swatch 5" gradientUnits="userSpaceOnUse"><stop offset="0" stop-color="#adadad"/><stop offset=".5" stop-color="#c9c9c9"/><stop offset="1" stop-color="#adadad"/></linearGradient><linearGradient id="New_Gradient_Swatch_5-2" x1="48" x2="48" y1="91.2" y2="4.8" xlink:href="#New_Gradient_Swatch_5"/><linearGradient id="New_Gradient_Swatch_5-3" x1="67.06" x2="92.94" y1="86.34" y2="86.34" xlink:href="#New_Gradient_Swatch_5"/><linearGradient id="New_Gradient_Swatch_5-4" x1="80" x2="80" y1="94.4" y2="65.6" xlink:href="#New_Gradient_Swatch_5"/></defs><title>c-c</title><g mask="url(#mask)"><g><circle cx="48" cy="48" r="48" fill="#21284f"/><path fill="#d2d2d8" d="M86.81,67a.08.08,0,0,1,0,0,1,1,0,0,1-.07.15l0,0A43.2,43.2,0,0,1,48,91.2h0a43.2,43.2,0,0,1-38.68-24l0,0A1,1,0,0,1,9.21,67a.08.08,0,0,1,0,0H12v-.35a25.44,25.44,0,0,1,4.23-14.13,22.17,22.17,0,0,1,10.86-8.94A25.48,25.48,0,0,0,36.18,38a19,19,0,0,0,2.9-3.42Q43.55,26.89,48,19.2l8.91,15.31a19.78,19.78,0,0,0,2.9,3.42,26.16,26.16,0,0,0,3.74,3,25.32,25.32,0,0,0,5.35,2.63,22.22,22.22,0,0,1,10.86,8.94A25.48,25.48,0,0,1,84,66.59V67Z"/><path fill="url(#New_Gradient_Swatch_5)" d="M86.82,67l0,0H9.21l0,0Z"/><rect width=".05" height="86.4" x="47.98" y="4.8" fill="url(#New_Gradient_Swatch_5-2)"/><path fill="#282e5b" d="M91.2,48c0,1.3-.06,2.58-.17,3.85,0,.17,0,.33,0,.5s0,.28,0,.41l-.06.51-.06.48c0,.13,0,.26,0,.39-.14,1-.31,2-.52,2.9,0,.18-.07.35-.11.53-.23,1-.49,2-.79,3l-.18.58-.09.29c-.22.67-.46,1.33-.71,2-.07.19-.14.37-.22.56s-.07.19-.11.28-.15.37-.23.55l-.25.58c-.19.45-.4.89-.61,1.33,0,.1-.09.19-.14.28H84v-.4a25.48,25.48,0,0,0-4.23-14.13,22.22,22.22,0,0,0-10.86-8.94,25.32,25.32,0,0,1-5.35-2.63,26.16,26.16,0,0,1-3.74-3,19.78,19.78,0,0,1-2.9-3.42L48,19.2q-4.47,7.68-8.93,15.35A19,19,0,0,1,36.18,38a25.48,25.48,0,0,1-9.09,5.6,22.17,22.17,0,0,0-10.86,8.94A25.44,25.44,0,0,0,12,66.64V67H9.19c0-.09-.09-.18-.14-.28-.21-.44-.42-.88-.61-1.33l-.25-.58c-.08-.18-.15-.36-.23-.55s-.08-.19-.11-.28-.15-.37-.22-.56c-.25-.66-.49-1.32-.71-2l-.09-.29-.18-.58c-.3-1-.56-2-.79-3,0-.18-.07-.35-.11-.53-.21-.95-.38-1.92-.52-2.9,0-.13,0-.26-.05-.39l-.06-.48-.06-.51c0-.13,0-.27,0-.41s0-.33,0-.5C4.86,50.58,4.8,49.3,4.8,48A43.2,43.2,0,0,1,48,4.8h0A43.2,43.2,0,0,1,91.2,48Z"/><path fill="#1ac4ff" d="M84,66.59V67H73.7v-.43a15.36,15.36,0,0,0-1-5.19A14.42,14.42,0,0,0,70,57a14.88,14.88,0,0,0-5.31-3.76A46.48,46.48,0,0,1,55.09,48,31.67,31.67,0,0,1,48,40.62,31.83,31.83,0,0,1,40.91,48a46,46,0,0,1-9.62,5.23A15,15,0,0,0,26,57a14.35,14.35,0,0,0-2.66,4.41,15.4,15.4,0,0,0-1,5.19V67H12v-.35a25.44,25.44,0,0,1,4.23-14.13,22.17,22.17,0,0,1,10.86-8.94A25.48,25.48,0,0,0,36.18,38a19,19,0,0,0,2.9-3.42Q43.55,26.89,48,19.2l8.91,15.31a19.78,19.78,0,0,0,2.9,3.42,26.16,26.16,0,0,0,3.74,3,25.32,25.32,0,0,0,5.35,2.63,22.22,22.22,0,0,1,10.86,8.94A25.48,25.48,0,0,1,84,66.59Z"/></g></g><circle cx="80" cy="80" r="16" fill="#21284f"/><path fill="#d2d2d8" d="M92.94,86.33h0l0,0v0A14.4,14.4,0,0,1,80,94.4h0a14.4,14.4,0,0,1-12.89-8v0l0,0H68v-.12a8.56,8.56,0,0,1,1.41-4.71,7.44,7.44,0,0,1,3.62-3,7.77,7.77,0,0,0,1.78-.88,8.58,8.58,0,0,0,1.25-1,7,7,0,0,0,1-1.14l3-5.12,3,5.1a7,7,0,0,0,1,1.14,8,8,0,0,0,1.25,1,8.2,8.2,0,0,0,1.78.88,7.34,7.34,0,0,1,3.62,3A8.53,8.53,0,0,1,92,86.2v.13Z"/><path fill="url(#New_Gradient_Swatch_5-3)" d="M92.94,86.33h0Z"/><rect width=".02" height="28.8" x="79.99" y="65.6" fill="url(#New_Gradient_Swatch_5-4)"/><path fill="#282e5b" d="M94.4,80c0,.43,0,.86-.06,1.28,0,.06,0,.11,0,.17s0,.09,0,.14a1.11,1.11,0,0,1,0,.17,1,1,0,0,1,0,.16s0,.08,0,.13c-.05.32-.11.65-.18,1l0,.18q-.12.51-.27,1l-.06.2,0,.09c-.07.23-.15.45-.23.67l-.08.18,0,.1-.08.18c0,.06,0,.13-.08.19l-.21.45,0,.09H92V86.2a8.53,8.53,0,0,0-1.41-4.71,7.34,7.34,0,0,0-3.62-3,8.2,8.2,0,0,1-1.78-.88,8,8,0,0,1-1.25-1,7,7,0,0,1-1-1.14l-3-5.1-3,5.12a7,7,0,0,1-1,1.14,8.58,8.58,0,0,1-1.25,1,7.77,7.77,0,0,1-1.78.88,7.44,7.44,0,0,0-3.62,3A8.56,8.56,0,0,0,68,86.21v.12h-.94l0-.09-.21-.45c0-.06,0-.13-.08-.19l-.08-.18,0-.1-.08-.18c-.08-.22-.16-.44-.23-.67l0-.09-.06-.2q-.15-.48-.27-1l0-.18c-.07-.31-.13-.64-.18-1,0,0,0-.09,0-.13a1,1,0,0,1,0-.16,1.11,1.11,0,0,1,0-.17s0-.09,0-.14,0-.11,0-.17c0-.42-.06-.85-.06-1.28A14.4,14.4,0,0,1,80,65.6h0A14.4,14.4,0,0,1,94.4,80Z"/><path fill="#1ac4ff" d="M92,86.2v.13H88.57V86.2h0a5.16,5.16,0,0,0-.34-1.73A4.86,4.86,0,0,0,87.34,83a4.94,4.94,0,0,0-1.77-1.25A15.45,15.45,0,0,1,82.36,80,10.59,10.59,0,0,1,80,77.54,10.56,10.56,0,0,1,77.64,80a16,16,0,0,1-3.21,1.74A5.07,5.07,0,0,0,72.66,83a5,5,0,0,0-.89,1.47,5.2,5.2,0,0,0-.34,1.73v.13H68v-.12a8.56,8.56,0,0,1,1.41-4.71,7.44,7.44,0,0,1,3.62-3,7.77,7.77,0,0,0,1.78-.88,8.58,8.58,0,0,0,1.25-1,7,7,0,0,0,1-1.14l3-5.12,3,5.1a7,7,0,0,0,1,1.14,8,8,0,0,0,1.25,1,8.2,8.2,0,0,0,1.78.88,7.34,7.34,0,0,1,3.62,3A8.53,8.53,0,0,1,92,86.2Z"/></svg>